<svg width="140" height="38" viewBox="0 0 140 38" fill="none" xmlns="http://www.w3.org/2000/svg">
<g clip-path="url(#clip0_1120_883)">
<path d="M56.8334 18.0427C56.4701 18.0427 56.1216 17.8986 55.8656 17.6476C55.6079 17.395 55.4626 17.0549 55.4626 16.6987V10.2747C51.8984 17.3059 51.8984 17.3302 51.8984 17.3302C51.7977 17.5505 51.6325 17.7367 51.4228 17.8646C51.213 17.9925 50.9702 18.0541 50.7241 18.0444C50.4747 18.0589 50.2253 17.9958 50.0156 17.863C49.8042 17.7302 49.6423 17.5359 49.5531 17.3059L45.9642 10.2747V16.6728C45.9592 17.0339 45.8106 17.3772 45.5496 17.633C45.2903 17.8873 44.9385 18.033 44.5702 18.0395C44.2052 18.033 43.8567 17.8873 43.5991 17.6314C43.3431 17.3756 43.1978 17.0323 43.1978 16.6728V4.5633C43.1978 4.20704 43.3447 3.86536 43.6007 3.61436C43.8584 3.36174 44.2052 3.22086 44.5686 3.21924C44.8411 3.22895 45.1054 3.31316 45.3316 3.46214C45.5579 3.61112 45.7379 3.82002 45.8486 4.06454L50.706 13.7693L55.5633 4.06454C55.6756 3.82002 55.8557 3.61112 56.0819 3.46214C56.3082 3.31316 56.5741 3.22895 56.8466 3.21924C57.2149 3.2241 57.5651 3.36984 57.826 3.62569C58.0853 3.88155 58.234 4.22485 58.2406 4.58597V16.6987C58.234 17.0598 58.082 17.4031 57.8194 17.6557C57.5552 17.9083 57.2001 18.0476 56.8318 18.0444L56.8334 18.0427Z" fill="#423B3C"/>
<path d="M65.0303 18.0412C64.6372 18.0412 64.2607 17.8889 63.9816 17.6153C63.7024 17.3432 63.5455 16.974 63.5455 16.587V4.68156C63.5455 4.49047 63.5835 4.30101 63.6578 4.1245C63.7322 3.94799 63.8412 3.78768 63.9799 3.65327C64.117 3.51887 64.2821 3.41199 64.4622 3.33912C64.6422 3.26625 64.8354 3.229 65.0303 3.229C65.2236 3.229 65.4152 3.26463 65.5935 3.3375C65.7719 3.41037 65.9338 3.51563 66.0708 3.65003C66.2079 3.78444 66.3153 3.94314 66.3879 4.11803C66.4606 4.29291 66.4986 4.48076 66.497 4.67022V16.5773C66.5003 16.7684 66.4656 16.9578 66.3946 17.1359C66.3219 17.3141 66.2145 17.476 66.0791 17.612C65.942 17.7481 65.7802 17.8566 65.6001 17.931C65.4201 18.0055 65.2269 18.0428 65.032 18.0428L65.0303 18.0412Z" fill="#423B3C"/>
<path d="M53.0727 29.4155C53.4922 30.2397 55.4841 33.8444 55.4841 34.5391C55.4807 34.9099 55.3271 35.2646 55.0563 35.5253C54.7871 35.786 54.4237 35.9317 54.0438 35.9301C53.7796 35.9269 53.5219 35.8524 53.3006 35.7147C53.0777 35.5771 52.8993 35.3795 52.7853 35.148C52.564 34.714 50.1708 30.0244 50.1494 29.9175H46.0963V34.4954C46.093 34.8775 45.9345 35.2435 45.657 35.5123C45.3795 35.7811 45.0046 35.9317 44.6148 35.9301C44.4216 35.9317 44.2317 35.8961 44.0533 35.8248C43.8749 35.7536 43.7131 35.6483 43.5776 35.5139C43.4422 35.3795 43.3348 35.2208 43.2622 35.0459C43.1895 34.8711 43.1532 34.6832 43.1565 34.4954V22.7308C43.1548 22.5414 43.1895 22.3551 43.2622 22.1802C43.3348 22.0053 43.4422 21.8467 43.5776 21.7122C43.7131 21.5778 43.8749 21.4726 44.0533 21.4013C44.2317 21.3301 44.4232 21.2945 44.6148 21.2961H50.1015C53.0248 21.2961 55.4824 22.4685 55.4824 25.6392C55.4857 27.333 54.6896 28.7434 53.0744 29.4171L53.0727 29.4155ZM50.5259 23.9648H46.0963V27.4383H50.5259C51.6094 27.4383 52.5392 26.8731 52.5392 25.7234C52.5392 24.5736 51.6193 23.9648 50.5259 23.9648Z" fill="#423B3C"/>
<path d="M66.1584 36.0337C64.6406 36.0531 63.1525 35.6304 61.8807 34.8192C60.609 34.0079 59.6131 32.8436 59.0169 31.4752C58.4223 30.1069 58.2555 28.596 58.5379 27.1337C58.8203 25.6715 59.5404 24.3258 60.6057 23.2667C61.671 22.2077 63.0319 21.4822 64.5184 21.1826C66.0048 20.8847 67.5474 21.0256 68.9529 21.5891C70.3568 22.1526 71.5592 23.1129 72.4048 24.3468C73.2521 25.5808 73.7046 27.035 73.7062 28.5231C73.7195 29.5045 73.5345 30.4777 73.1612 31.3878C72.788 32.2978 72.2347 33.1253 71.5327 33.8249C70.8308 34.5228 69.9934 35.0782 69.0718 35.4572C68.1502 35.8361 67.1593 36.032 66.1584 36.0337ZM66.1584 23.704C63.3887 23.704 61.5306 25.8528 61.5306 28.5231C61.5306 31.1934 63.3887 33.3634 66.1584 33.3634C68.9282 33.3634 70.7647 31.1934 70.7647 28.5231C70.7647 25.8528 68.9248 23.704 66.1584 23.704Z" fill="#423B3C"/>
<path d="M84.6482 30.2817H80.6397V34.4937C80.6397 34.6831 80.6017 34.871 80.5274 35.0475C80.4531 35.2224 80.3424 35.3811 80.2053 35.5155C80.0683 35.6482 79.9047 35.7535 79.7247 35.8248C79.5447 35.896 79.3531 35.9316 79.1599 35.9284C78.9666 35.93 78.7767 35.8944 78.5983 35.8231C78.42 35.7519 78.2581 35.6466 78.1227 35.5122C77.9872 35.3778 77.8799 35.2191 77.8072 35.0442C77.7345 34.8693 77.6982 34.6815 77.7015 34.4937V22.7291C77.6982 22.5396 77.7345 22.3534 77.8072 22.1785C77.8799 22.0036 77.9872 21.8449 78.1227 21.7105C78.2581 21.5761 78.42 21.4709 78.5983 21.3996C78.7767 21.3284 78.9683 21.2927 79.1599 21.2944H84.6498C88.4815 21.2944 90.0539 23.4675 90.0539 25.8107C90.0539 28.1539 88.4815 30.2817 84.6498 30.2817H84.6482ZM85.0693 23.9436H80.6397V27.6114H85.0693C86.5079 27.6114 87.0859 26.6803 87.0859 25.8253C87.0859 24.9703 86.5095 23.9436 85.0693 23.9436Z" fill="#423B3C"/>
<path d="M103.405 35.7535H95.0384C94.8435 35.7535 94.6503 35.7163 94.4702 35.6434C94.2902 35.5705 94.1267 35.4637 93.988 35.3276C93.8509 35.1916 93.7402 35.0313 93.6659 34.8548C93.5916 34.6783 93.5536 34.4888 93.5536 34.2977V22.7291C93.5536 22.5397 93.5932 22.3502 93.6676 22.1753C93.7419 22.0004 93.8525 21.8417 93.9896 21.7073C94.1284 21.5745 94.2919 21.4693 94.4719 21.398C94.6519 21.3268 94.8435 21.2912 95.0384 21.2944H103.075C103.442 21.2944 103.795 21.4369 104.055 21.6928C104.314 21.9486 104.461 22.2919 104.461 22.653C104.461 23.0141 104.315 23.3591 104.055 23.6133C103.795 23.8675 103.443 24.01 103.075 24.01H96.4951V27.1143H100.139C100.32 27.1143 100.5 27.1516 100.667 27.2212C100.834 27.2908 100.986 27.3912 101.115 27.5192C101.242 27.6455 101.344 27.7961 101.412 27.9612C101.48 28.1264 101.514 28.3029 101.514 28.4811C101.514 28.6576 101.48 28.8341 101.412 28.9976C101.343 29.1612 101.242 29.3102 101.115 29.4348C100.987 29.5595 100.836 29.6583 100.667 29.7263C100.5 29.7927 100.32 29.8267 100.14 29.8267H96.4968V33.0444H103.407C103.775 33.0508 104.126 33.1982 104.386 33.4524C104.646 33.7083 104.794 34.0516 104.801 34.4127C104.796 34.7706 104.647 35.1139 104.386 35.3649C104.126 35.6159 103.774 35.7552 103.409 35.7535H103.405Z" fill="#423B3C"/>
<path d="M118.721 29.4154C119.14 30.2396 121.134 33.8443 121.134 34.539C121.13 34.9098 120.977 35.2645 120.706 35.5252C120.437 35.7859 120.072 35.9316 119.694 35.93C119.429 35.9284 119.172 35.8539 118.949 35.7146C118.726 35.577 118.546 35.3794 118.43 35.1463C118.209 34.7123 115.819 30.0226 115.797 29.9158H111.735V34.4937C111.73 34.8758 111.571 35.2418 111.294 35.5106C111.016 35.7794 110.641 35.93 110.25 35.9284C110.056 35.93 109.867 35.8944 109.688 35.8231C109.51 35.7519 109.348 35.6466 109.213 35.5122C109.077 35.3778 108.97 35.2191 108.897 35.0442C108.824 34.8693 108.788 34.6815 108.791 34.4937V22.7291C108.79 22.5396 108.824 22.3534 108.897 22.1785C108.97 22.0036 109.077 21.8449 109.213 21.7105C109.348 21.5761 109.51 21.4709 109.688 21.3996C109.867 21.3284 110.058 21.2927 110.25 21.2944H115.743C118.663 21.2944 121.124 22.4668 121.124 25.6375C121.117 27.3313 120.32 28.7417 118.719 29.4154H118.721ZM116.158 23.9647H111.736V27.4382H116.162C117.249 27.4382 118.179 26.873 118.179 25.7233C118.179 24.5735 117.266 23.9647 116.158 23.9647Z" fill="#423B3C"/>
<path d="M131.793 36.0336C130.275 36.0531 128.787 35.6304 127.516 34.8175C126.244 34.0062 125.248 32.8419 124.653 31.4736C124.059 30.1052 123.892 28.5944 124.176 27.1337C124.459 25.6731 125.179 24.3258 126.244 23.2667C127.309 22.2077 128.672 21.4822 130.158 21.1842C131.645 20.8863 133.187 21.0272 134.591 21.5907C135.995 22.1542 137.197 23.1145 138.043 24.3484C138.889 25.5824 139.343 27.0365 139.344 28.5231C139.358 29.5044 139.173 30.4777 138.799 31.3877C138.426 32.2978 137.873 33.1269 137.169 33.8248C136.467 34.5228 135.63 35.0782 134.707 35.4571C133.784 35.8361 132.794 36.032 131.793 36.0336ZM131.793 23.7039C129.027 23.7039 127.166 25.8528 127.166 28.5231C127.166 31.1934 129.027 33.3633 131.793 33.3633C134.56 33.3633 136.4 31.1934 136.4 28.5231C136.4 25.8528 134.563 23.7039 131.793 23.7039Z" fill="#423B3C"/>
<path d="M27.415 0H8.51734C6.25794 0 4.09268 0.879305 2.49558 2.44521C0.896822 4.01112 0 6.1357 0 8.35097V26.8763C0 28.7029 0.612746 30.4777 1.74079 31.9303C2.87049 33.3828 4.45438 34.4305 6.25133 34.9131C6.3273 35.9754 7.20431 37.0409 8.28281 37.0409H27.6462C28.7264 37.0409 29.6017 35.9754 29.6777 34.9131C31.4747 34.4305 33.0602 33.3828 34.1899 31.9303C35.3196 30.4777 35.9324 28.7029 35.9324 26.8763V8.35097C35.9324 6.1357 35.0355 4.01274 33.4384 2.44683C31.8413 0.880924 29.6744 0.00161935 27.4167 0.00161935L27.415 0ZM16.1345 27.2325C16.1345 28.1799 15.7514 29.0883 15.0676 29.7587C14.3838 30.4291 13.4573 30.8048 12.4911 30.8048H6.92188C5.95569 30.8048 5.02914 30.4291 4.34538 29.7587C3.66161 29.0883 3.27844 28.1799 3.27844 27.2325V7.99633C3.27844 7.04901 3.66161 6.14056 4.34538 5.47015C5.02914 4.79974 5.95569 4.42405 6.92188 4.42405H12.4911C13.4573 4.42405 14.3838 4.79974 15.0676 5.47015C15.7514 6.14056 16.1345 7.04901 16.1345 7.99633V27.2325ZM32.649 27.2325C32.649 28.1799 32.2658 29.0883 31.582 29.7587C30.8983 30.4291 29.9717 30.8048 29.0055 30.8048H23.4396C22.4734 30.8048 21.5469 30.4291 20.8631 29.7587C20.1793 29.0883 19.7962 28.1799 19.7962 27.2325V7.99633C19.7962 7.04901 20.1793 6.14056 20.8631 5.47015C21.5469 4.79974 22.4734 4.42405 23.4396 4.42405H29.0055C29.9717 4.42405 30.8983 4.79974 31.582 5.47015C32.2658 6.14056 32.649 7.04901 32.649 7.99633V27.2325Z" fill="#40393A"/>
<path d="M24.9739 14.6389C24.3727 14.6389 23.7864 14.8138 23.2876 15.1409C22.7888 15.468 22.399 15.9328 22.1695 16.4769C21.9399 17.021 21.8788 17.6201 21.996 18.1966C22.1133 18.7747 22.4023 19.3043 22.8268 19.7204C23.2513 20.1366 23.793 20.42 24.381 20.535C24.9706 20.6499 25.58 20.5916 26.135 20.3649C26.6899 20.1398 27.1639 19.7577 27.4975 19.2686C27.8312 18.7796 28.0095 18.2031 28.0095 17.6153C28.0095 16.825 27.6891 16.0688 27.121 15.5101C26.5512 14.9514 25.7799 14.6389 24.9739 14.6389ZM24.9739 18.9253C24.7096 18.9253 24.4536 18.8476 24.234 18.7035C24.016 18.5594 23.8442 18.3553 23.7451 18.1157C23.6443 17.876 23.6179 17.6137 23.6708 17.361C23.722 17.1084 23.8491 16.8752 24.0358 16.6922C24.2224 16.5093 24.4602 16.3862 24.7179 16.336C24.9772 16.2858 25.2448 16.3117 25.4875 16.4105C25.7303 16.5093 25.9384 16.6777 26.0854 16.8914C26.2324 17.1068 26.31 17.3594 26.31 17.6169C26.31 17.9634 26.168 18.2954 25.917 18.5415C25.6659 18.7861 25.3273 18.9237 24.9739 18.9237V18.9253Z" fill="#40393A"/>
<path d="M11.0014 14.6389C10.4002 14.6389 9.81385 14.8138 9.31506 15.1409C8.81628 15.468 8.4265 15.9328 8.19693 16.4769C7.96735 17.021 7.90624 17.6201 8.02351 18.1966C8.14077 18.7747 8.4298 19.3043 8.85426 19.7204C9.27873 20.1366 9.82045 20.42 10.4084 20.535C10.998 20.6499 11.6075 20.5916 12.1624 20.3649C12.7174 20.1398 13.1914 19.7577 13.525 19.2686C13.8586 18.7796 14.037 18.2031 14.037 17.6153C14.037 17.225 13.9594 16.838 13.8058 16.4769C13.6538 16.1158 13.4292 15.787 13.1468 15.5117C12.8644 15.2348 12.5307 15.0162 12.1624 14.8672C11.7941 14.7183 11.3994 14.6405 11.0014 14.6405V14.6389ZM11.0014 18.9253C10.7371 18.9253 10.4794 18.8492 10.2614 18.7051C10.0418 18.561 9.87165 18.3569 9.77091 18.1189C9.67016 17.8808 9.64373 17.6169 9.69493 17.3643C9.74613 17.11 9.87331 16.8785 10.0599 16.6955C10.2466 16.5125 10.4844 16.3878 10.7421 16.3376C11.0014 16.2874 11.2689 16.3133 11.5117 16.4121C11.7545 16.5109 11.9642 16.6777 12.1096 16.893C12.2549 17.1084 12.3342 17.361 12.3342 17.6185C12.3342 17.9651 12.1922 18.297 11.9428 18.5415C11.6934 18.7861 11.3548 18.9237 11.0014 18.9253Z" fill="#40393A"/>
</g>
<defs>
<clipPath id="clip0_1120_883">
<rect width="139.344" height="37.0409" fill="white"/>
</clipPath>
</defs>
</svg>
