<svg width="163" height="47" viewBox="0 0 163 47" fill="none" xmlns="http://www.w3.org/2000/svg">
<g clip-path="url(#clip0_1120_896)">
<path d="M22.8171 9.58908V9.45402C22.8171 6.75287 21.8902 4.4569 20.1789 2.90374C18.1824 1.14799 15.259 0.202586 11.6938 0.202586H0V28.3621H6.63123V19.1106H10.4103L16.1146 28.2945H23.7441L17.1129 17.8951C19.8224 16.8147 22.8171 14.4511 22.8171 9.58908ZM16.1859 9.65661C16.1859 12.2227 14.332 13.7759 11.266 13.7759H6.63123V5.60489H11.1234C14.4033 5.60489 16.1859 7.02299 16.1859 9.65661ZM116.795 0L105.601 28.2945H112.303L114.585 22.217H125.066L127.348 28.2945H134.265L123.07 0H116.795ZM123.07 16.8822H116.653L119.861 8.30604L123.07 16.8822ZM153.659 13.9109L162.572 0.135057H155.157L149.88 9.04885L144.746 0.135057H137.188L146.03 13.9784L136.832 28.2945H144.247L149.88 18.8405L155.442 28.2945H163L153.659 13.9109ZM36.5787 22.8247V16.8147H48.4864V11.3448H36.5787V5.60489H50.1264V0.135057H29.9475V28.2945H42.4256L45.4917 22.8247H36.5787ZM93.6216 0.135057L86.9191 9.25144L80.0739 0.135057H80.0026L73.1575 12.4253V28.2945H79.6461V10.8721L86.6339 19.5158L86.7052 19.5833H86.9904L94.0494 10.8046V28.2945H100.609V0.135057H93.6216Z" fill="#3F3F40"/>
<path d="M64.9575 0.13501L49.2708 28.2945H57.3281L73.0148 0.13501H64.9575Z" fill="#3F3F40"/>
<path d="M11.8364 46.7975H9.83992L8.77036 44.2989H3.5652L2.42434 46.7975H0.499146L5.27649 36.4656H7.05908L11.8364 46.7975ZM6.13213 38.6265L4.27824 42.7457H7.98602L6.13213 38.6265Z" fill="#3F3F40"/>
<path d="M20.6781 46.7975L18.0398 43.2184H15.6155V46.7975H13.6903V36.5331H18.539C19.1807 36.5331 19.7511 36.6006 20.2502 36.7357C20.7494 36.8707 21.1772 37.0733 21.5337 37.411C21.8902 37.6811 22.1754 38.0187 22.318 38.4239C22.4606 38.8291 22.6033 39.3018 22.6033 39.7745C22.6033 40.1796 22.532 40.5848 22.3893 40.9224C22.2467 41.2601 22.1041 41.5302 21.8189 41.8003C21.5337 42.0704 21.3198 42.273 21.0346 42.4756C20.7494 42.6782 20.3928 42.8133 19.965 42.8808L22.8885 46.7975H20.6781ZM20.1076 38.5589C19.6798 38.2888 19.1807 38.1538 18.4676 38.1538H15.6868V41.5977H18.4676C19.1807 41.5977 19.6798 41.4627 20.1076 41.125C20.5355 40.7874 20.7494 40.3822 20.7494 39.842C20.6781 39.3018 20.4641 38.8966 20.1076 38.5589Z" fill="#3F3F40"/>
<path d="M33.7266 45.987C33.3701 46.1896 33.0136 46.3247 32.6571 46.5273C32.3005 46.6623 31.8727 46.7974 31.4449 46.8649C31.0171 46.9324 30.5893 47 30.0901 47C29.2345 47 28.5215 46.8649 27.8084 46.5948C27.0954 46.3247 26.525 45.9195 26.0258 45.4468C25.5267 44.9741 25.1702 44.4339 24.885 43.7586C24.5998 43.0833 24.4572 42.408 24.4572 41.6652C24.4572 40.9224 24.5998 40.2471 24.885 39.6393C25.1702 38.964 25.5267 38.4238 26.0258 37.9511C26.525 37.4784 27.0954 37.0732 27.8084 36.8031C28.5215 36.533 29.2345 36.3979 30.0901 36.3979C30.5893 36.3979 31.0171 36.3979 31.3736 36.4655C31.7301 36.533 32.0866 36.6005 32.4432 36.7356C32.7997 36.8707 33.0849 37.0057 33.3701 37.1408C33.6553 37.3434 33.9405 37.4784 34.2257 37.7485L33.0136 39.0991C32.7997 38.964 32.5858 38.7615 32.3719 38.6264C32.1579 38.4913 31.944 38.3563 31.6588 38.2888C31.4449 38.2212 31.1597 38.1537 30.8745 38.0862C30.5893 38.0186 30.304 38.0186 29.9475 38.0186C29.4484 38.0186 29.0206 38.0862 28.5928 38.2888C28.1649 38.4913 27.8084 38.7615 27.4519 39.0991C27.1667 39.4367 26.8815 39.8419 26.7389 40.2471C26.525 40.7198 26.4537 41.1925 26.4537 41.6652C26.4537 42.2054 26.525 42.6781 26.7389 43.1508C26.8815 43.6235 27.1667 43.9612 27.5232 44.2988C27.8797 44.6365 28.2362 44.9066 28.6641 45.0416C29.0919 45.2442 29.591 45.3117 30.1614 45.3117C30.6606 45.3117 31.1597 45.2442 31.5875 45.1092C32.0153 44.9741 32.4432 44.7715 32.7284 44.5689V42.6106H29.9475V41.0574H34.5823V45.3793C34.3684 45.5819 34.0831 45.7844 33.7266 45.987Z" fill="#3F3F40"/>
<path d="M45.2065 38.1538H39.0744V40.7874H44.4934V42.4081H39.0744V45.1768H45.2778V46.7975H37.1492V36.5331H45.2065V38.1538Z" fill="#3F3F40"/>
<path d="M55.1177 36.5331H57.0429V46.7975H55.4742L49.4847 39.5043V46.7975H47.5595V36.5331H49.3421L55.189 43.6236V36.5331H55.1177Z" fill="#3F3F40"/>
<path d="M64.3871 46.7975H62.4619V38.1538H59.0394V36.4656H67.881V38.1538H64.4584V46.7975H64.3871Z" fill="#3F3F40"/>
<path d="M71.874 36.5331V46.7975H69.9488V36.5331H71.874Z" fill="#3F3F40"/>
<path d="M82.3557 36.5331H84.2809V46.7975H82.7122L76.7227 39.5043V46.7975H74.7975V36.5331H76.5801L82.427 43.6236V36.5331H82.3557Z" fill="#3F3F40"/>
<path d="M97.472 46.7974H95.4755L94.406 44.2988H89.2721L88.1312 46.7974H86.2061L90.9834 36.3979H92.766L97.472 46.7974ZM91.7677 38.6264L89.9138 42.7456H93.6929L91.7677 38.6264Z" fill="#3F3F40"/>
</g>
<defs>
<clipPath id="clip0_1120_896">
<rect width="163" height="47" fill="white"/>
</clipPath>
</defs>
</svg>
