<svg width="107" height="15" viewBox="0 0 107 15" fill="none" xmlns="http://www.w3.org/2000/svg">
<path d="M106.331 5.56105C105.301 4.29523 103.42 4.09631 102.136 5.12706C99.2066 7.51404 96.3675 8.59904 93.7093 8.59904C90.9968 8.59904 88.3205 7.42363 85.8612 5.32597C85.7888 5.27172 85.7346 5.19939 85.6623 5.12706C85.4633 4.96431 85.2644 4.81964 85.0655 4.67497C81.9371 2.12524 78.4832 0.606243 74.8304 0.353078C74.5953 0.316911 74.3602 0.298828 74.1071 0.298828C74.0528 0.298828 73.9986 0.298828 73.9624 0.298828C73.9081 0.298828 73.8539 0.298828 73.8177 0.298828C73.7635 0.298828 73.7092 0.298828 73.6731 0.298828C73.6188 0.298828 73.5646 0.298828 73.5284 0.298828C69.4958 0.298828 65.6983 1.87207 62.2625 4.65689C62.0636 4.81964 61.8466 4.96431 61.6477 5.12706C58.8448 7.40554 56.1323 8.49054 53.5826 8.58096C51.0328 8.49054 48.3203 7.40554 45.5174 5.12706C45.3185 4.96431 45.1015 4.81964 44.9026 4.65689C41.4668 1.87207 37.6874 0.298828 33.6367 0.298828C33.5825 0.298828 33.5282 0.298828 33.4921 0.298828C33.4378 0.298828 33.3836 0.298828 33.3474 0.298828C33.2932 0.298828 33.2389 0.298828 33.2027 0.298828C33.1485 0.298828 33.0942 0.298828 33.0581 0.298828C32.823 0.298828 32.5879 0.316911 32.3348 0.334995C28.6819 0.606243 25.2461 2.10715 22.1177 4.67497C21.9188 4.83772 21.7199 4.96431 21.521 5.12706C21.4486 5.1813 21.3944 5.25364 21.3221 5.32597C18.8447 7.44171 16.1864 8.61712 13.4739 8.61712C10.8338 8.61712 7.97662 7.51404 5.04714 5.12706C3.78131 4.09631 1.90065 4.27714 0.851823 5.56105C-0.178922 6.82688 0.00191024 8.70754 1.28582 9.75637C5.37263 13.0656 9.47753 14.5846 13.4739 14.5846C17.7597 14.5846 21.7922 12.8305 25.3908 9.70212C25.5174 9.57553 25.662 9.48512 25.8067 9.37662C28.4469 7.36938 30.9785 6.39288 33.3836 6.32055C35.7706 6.39288 38.3203 7.36938 40.9605 9.37662C41.087 9.48512 41.2317 9.59362 41.3764 9.70212C44.9749 12.8486 49.0075 14.6027 53.2932 14.6027C53.3475 14.6027 53.4017 14.6027 53.4741 14.6027C53.5464 14.6027 53.5826 14.6027 53.6368 14.6027C53.6368 14.6027 53.6368 14.6027 53.6549 14.6027C53.673 14.6027 53.6549 14.6027 53.673 14.6027C53.7272 14.6027 53.7815 14.6027 53.8357 14.6027C53.89 14.6027 53.9442 14.6027 54.0166 14.6027C58.3023 14.6027 62.3349 12.8486 65.9334 9.70212C66.06 9.59362 66.2047 9.48512 66.3493 9.37662C68.9895 7.36938 71.5212 6.39288 73.9262 6.32055C76.3132 6.39288 78.8629 7.36938 81.5031 9.37662C81.6297 9.48512 81.7744 9.59362 81.919 9.70212C85.5176 12.8305 89.5502 14.5846 93.8359 14.5846C97.8142 14.5846 101.937 13.0837 106.024 9.77445C107.29 8.7437 107.489 6.86305 106.458 5.57914L106.331 5.56105Z" fill="url(#paint0_linear_743_254)"/>
<defs>
<linearGradient id="paint0_linear_743_254" x1="3.72706" y1="-12.052" x2="109.514" y2="30.4436" gradientUnits="userSpaceOnUse">
<stop stop-color="#9CCDA0"/>
<stop offset="0.25" stop-color="#5AA495"/>
<stop offset="0.51" stop-color="#54A7B7"/>
<stop offset="0.76" stop-color="#6E658E"/>
<stop offset="1" stop-color="#CC658E"/>
</linearGradient>
</defs>
</svg>
