<svg width="43" height="15" viewBox="0 0 43 15" fill="none" xmlns="http://www.w3.org/2000/svg">
<path d="M42.8355 2.95995C42.5702 2.11505 42.0131 1.39201 41.2637 0.919988C40.9353 0.723493 40.5596 0.620165 40.1769 0.6211C39.4328 0.6211 38.7598 1.00359 38.2561 1.33801C37.6876 1.71424 37.1128 2.10509 36.5589 2.48131C34.7258 3.72284 32.828 5.00827 30.8696 6.03452C27.7636 7.669 24.5992 8.49669 21.464 8.49669C18.3288 8.49669 15.1602 7.66064 12.0584 6.02825C10.0916 4.98319 8.18754 3.70821 6.34405 2.46459C5.79435 2.09464 5.22374 1.71005 4.65941 1.33801C4.07401 0.920556 3.37784 0.686318 2.65916 0.664993C2.25408 0.665004 1.85477 0.761051 1.49399 0.945257C1.1332 1.12946 0.821233 1.39658 0.583667 1.72469C0.361625 2.00847 0.198911 2.33401 0.105196 2.68194C0.0114804 3.02987 -0.011323 3.3931 0.0381443 3.75002C0.105158 4.14644 0.250591 4.52551 0.465928 4.86502C0.681266 5.20454 0.962179 5.49768 1.29222 5.72727L1.91926 6.19337C3.40742 7.2886 4.94576 8.42144 6.5656 9.39753C11.4147 12.3237 16.3265 13.9185 20.7784 14.0313H20.8035C24.4027 14.0167 27.5797 13.3897 31.1037 12.0039C34.5231 10.6579 37.9028 8.65972 41.431 5.92166C41.9869 5.49945 43.2745 4.49828 42.8355 2.95995Z" fill="url(#paint0_linear_787_227)"/>
<defs>
<linearGradient id="paint0_linear_787_227" x1="1.4499" y1="-10.9818" x2="49.3886" y2="-2.7396" gradientUnits="userSpaceOnUse">
<stop stop-color="#9CCDA0"/>
<stop offset="0.25" stop-color="#5AA495"/>
<stop offset="0.51" stop-color="#54A7B7"/>
<stop offset="0.76" stop-color="#6E658E"/>
<stop offset="1" stop-color="#CC658E"/>
</linearGradient>
</defs>
</svg>
