<svg width="20" height="35" viewBox="0 0 20 35" fill="none" xmlns="http://www.w3.org/2000/svg">
<path d="M3.90383 34.3191L19.2018 19.0665C19.3834 18.885 19.5123 18.6883 19.5886 18.4764C19.6648 18.2646 19.7024 18.0376 19.7011 17.7955C19.7011 17.5534 19.663 17.3264 19.5867 17.1146C19.5105 16.9027 19.3822 16.706 19.2018 16.5244L3.90383 1.22647C3.48014 0.802784 2.95054 0.590942 2.31501 0.590942C1.67949 0.590942 1.13476 0.817915 0.680811 1.27186C0.226864 1.72581 -0.000108719 2.25541 -0.000108719 2.86067C-0.000108719 3.46593 0.226864 3.99554 0.680811 4.44948L14.0268 17.7955L0.680811 31.1415C0.257128 31.5652 0.0452843 32.0875 0.0452843 32.7085C0.0452843 33.3295 0.272259 33.8664 0.726204 34.3191C1.18015 34.7731 1.70975 35 2.31501 35C2.92028 35 3.44988 34.7731 3.90383 34.3191Z" fill="#FFF0D9"/>
</svg>
