<svg width="27" height="30" viewBox="0 0 27 30" fill="none" xmlns="http://www.w3.org/2000/svg">
<path d="M24.0366 2.88416H19.6707V0.701233H17.4878V2.88416H8.7561V0.701233H6.57318V2.88416H2.20734C1.00673 2.88416 0.0244141 3.86648 0.0244141 5.06709V26.8964C0.0244141 28.097 1.00673 29.0793 2.20734 29.0793H24.0366C25.2372 29.0793 26.2195 28.097 26.2195 26.8964V5.06709C26.2195 3.86648 25.2372 2.88416 24.0366 2.88416ZM24.0366 26.8964H2.20734V11.6159H24.0366V26.8964ZM24.0366 9.43294H2.20734V5.06709H6.57318V7.25001H8.7561V5.06709H17.4878V7.25001H19.6707V5.06709H24.0366V9.43294Z" fill="#FFF0D9"/>
</svg>
