<svg width="23" height="27" viewBox="0 0 23 27" fill="none" xmlns="http://www.w3.org/2000/svg">
<path d="M4.875 1.875C4.875 1.01172 5.58594 0.25 6.5 0.25C7.36328 0.25 8.125 1.01172 8.125 1.875V3.5H14.625V1.875C14.625 1.01172 15.3359 0.25 16.25 0.25C17.1133 0.25 17.875 1.01172 17.875 1.875V3.5H20.3125C21.6328 3.5 22.75 4.61719 22.75 5.9375V8.375H0V5.9375C0 4.61719 1.06641 3.5 2.4375 3.5H4.875V1.875ZM22.75 23.8125C22.75 25.1836 21.6328 26.25 20.3125 26.25H2.4375C1.06641 26.25 0 25.1836 0 23.8125V10H22.75V23.8125Z" fill="#FFF0D9"/>
</svg>
