<svg width="15" height="10" viewBox="0 0 15 10" fill="none" xmlns="http://www.w3.org/2000/svg">
<path d="M13.2501 0.156982H1.62689C1.37 0.156982 1.12364 0.259031 0.94199 0.440678C0.760343 0.622325 0.658295 0.868692 0.658295 1.12558V8.87436C0.658295 9.13125 0.760343 9.37761 0.94199 9.55926C1.12364 9.74091 1.37 9.84296 1.62689 9.84296H13.2501C13.5069 9.84296 13.7533 9.74091 13.935 9.55926C14.1166 9.37761 14.2187 9.13125 14.2187 8.87436V1.12558C14.2187 0.868692 14.1166 0.622325 13.935 0.440678C13.7533 0.259031 13.5069 0.156982 13.2501 0.156982ZM12.1846 1.12558L7.43848 4.40912L2.69235 1.12558H12.1846ZM1.62689 8.87436V1.56629L7.16243 5.39709C7.2435 5.45333 7.33981 5.48347 7.43848 5.48347C7.53714 5.48347 7.63346 5.45333 7.71453 5.39709L13.2501 1.56629V8.87436H1.62689Z" fill="#423B3C"/>
</svg>
