<svg width="14" height="14" viewBox="0 0 14 14" fill="none" xmlns="http://www.w3.org/2000/svg">
<path d="M12.4233 13.47H12.3386C2.55894 12.9076 1.17037 4.65586 0.976268 2.13752C0.960628 1.94172 0.983777 1.74475 1.04439 1.55791C1.105 1.37107 1.20189 1.19803 1.32949 1.04869C1.45709 0.899358 1.61291 0.77667 1.78801 0.687658C1.96311 0.598646 2.15406 0.545059 2.34991 0.529969H5.09221C5.29156 0.529776 5.48638 0.589448 5.65143 0.701256C5.81648 0.813064 5.94416 0.971857 6.01792 1.15706L6.77441 3.01844C6.84725 3.19938 6.86533 3.39773 6.8264 3.58885C6.78746 3.77997 6.69324 3.95544 6.55543 4.09346L5.49534 5.16351C5.66093 6.10452 6.11158 6.97197 6.78631 7.64848C7.46104 8.32499 8.32729 8.77792 9.26787 8.94599L10.3479 7.87595C10.488 7.73966 10.6651 7.64763 10.8571 7.61134C11.0492 7.57505 11.2477 7.59611 11.4279 7.67189L13.3042 8.42341C13.4866 8.4995 13.6422 8.62817 13.7512 8.79303C13.8603 8.9579 13.9177 9.15148 13.9163 9.34912V11.977C13.9163 12.3729 13.759 12.7527 13.479 13.0327C13.199 13.3127 12.8192 13.47 12.4233 13.47ZM2.46935 1.52536C2.33736 1.52536 2.21076 1.57779 2.11743 1.67113C2.02409 1.76447 1.97166 1.89106 1.97166 2.02305V2.06287C2.2006 5.00922 3.6688 11.977 12.3934 12.4746C12.4588 12.4787 12.5243 12.4698 12.5862 12.4484C12.6482 12.4271 12.7053 12.3937 12.7543 12.3503C12.8033 12.3068 12.8433 12.2541 12.8719 12.1952C12.9005 12.1362 12.9171 12.0722 12.9209 12.0068V9.34912L11.0446 8.5976L9.61625 10.016L9.37736 9.98617C5.04741 9.44369 4.46013 5.11374 4.46013 5.06895L4.43027 4.83005L5.84372 3.40167L5.09718 1.52536H2.46935Z" fill="#423B3C"/>
</svg>
