<svg width="304" height="244" viewBox="0 0 304 244" fill="none" xmlns="http://www.w3.org/2000/svg">
<path d="M302.687 174.524C296.686 183.854 287.441 187.853 277.159 190.282C265.412 193.046 253.436 193.046 241.578 192.317C233.627 191.831 225.715 189.691 217.941 187.761C208.86 185.489 199.944 182.587 190.949 180.006C189.819 179.759 188.674 179.588 187.521 179.494C196.352 182.738 205.249 185.607 214.166 188.424C217.6 189.514 221.152 190.269 224.507 191.556C228.164 192.961 231.578 194.34 231.907 199.573C232.11 202.783 231.762 205.009 229.576 207.189C229.057 206.027 228.591 204.99 227.921 203.479C227.829 204.011 227.764 204.399 227.731 204.596C223.791 204.865 220.121 205.068 216.464 205.383C211.06 205.843 205.656 206.388 200.253 206.9C200.253 207.058 200.253 207.222 200.22 207.386L208.9 207.951C201.5 212.632 193.142 208.384 185.512 210.518L196.412 203.296L182.794 204.438C182.748 204.182 182.709 203.932 182.663 203.683L192.544 199.934C189.918 200.341 189.202 198.588 188.795 196.46L180.135 197.261L179.957 196.474L187.338 192.324L182.846 190.945L186.221 188.384C186.143 188.082 186.07 187.78 185.992 187.478C183.733 187.478 181.474 187.564 179.222 187.478C177.397 187.393 175.283 187.616 173.812 186.769C166.307 182.409 158.98 177.748 151.586 173.184C151.731 172.915 151.875 172.646 152.013 172.377L154.226 172.974L138.888 157.492L139.689 156.652C151.179 168.982 165.46 177.091 180.627 183.815C182.781 184.767 185.381 184.714 187.777 185.128C187.83 184.793 187.889 184.471 187.942 184.13C186.865 183.637 185.781 183.158 184.711 182.652C177.489 179.245 169.931 176.441 163.169 172.318C145.217 161.359 130.484 146.75 117.864 130.001C103.793 111.288 93.0516 90.6711 83.9775 69.1481C83.4917 67.9991 82.9533 66.8829 82.4411 65.747C81.6532 72.7528 84.5619 78.8787 86.2231 85.3593C84.0813 82.7515 82.2482 79.9049 80.7603 76.8762C75.4222 65.1429 70.0316 53.4228 65.1597 41.4992C59.5787 27.8553 54.4968 14.0276 49.2441 0.239258H48.5875C46.5521 7.67839 47.8587 14.9731 49.6117 22.2284C53.8927 39.9562 58.9222 57.5068 65.6981 74.4927C65.8776 74.8854 65.9737 75.311 65.9805 75.7427C65.9873 76.1744 65.9046 76.6028 65.7375 77.0009C62.5925 73.1796 58.9681 69.6471 56.3746 65.4778C46.099 48.958 36.1583 32.2216 26.0731 15.5771C24.1559 12.419 22.1336 9.33956 20.1638 6.22734L19.087 6.45058C19.3759 9.59563 19.2183 12.8654 20.0456 15.8595C21.6437 21.7612 23.5794 27.5662 25.8433 33.2459C31.2207 46.5484 37.5962 59.3321 45.7641 71.2032C46.6027 72.3134 47.1572 73.6117 47.3794 74.9852C45.646 73.5013 43.7484 72.1684 42.1989 70.5138C34.2629 62.0613 26.3839 53.5673 18.5617 45.0317C15.2263 41.4139 12.0878 37.6057 8.65382 34.0798C7.16994 32.5565 5.18048 31.5191 3.23041 30.1403C2.87585 31.158 2.69857 31.4009 2.75767 31.5388C6.0406 39.2799 9.04778 47.1524 12.6984 54.7229C20.4067 70.7108 31.5819 83.5536 47.7076 91.6362C48.1184 91.8727 48.5132 92.1359 48.8895 92.4241C43.9257 92.3519 32.4354 88.9705 27.163 85.287C19.0213 79.5879 11.2079 73.4159 3.25011 67.4672C2.18644 66.6662 1.0768 65.9768 0 65.2414V67.8678C0.656587 70.4941 1.49702 73.0679 1.91067 75.7468C2.7314 80.9995 4.66834 85.5103 8.91646 89.0099C17.0713 95.6742 26.8216 98.3137 36.7689 100.645C39.734 101.3 42.6622 102.114 45.5409 103.081C31.8773 103.429 19.389 98.4844 6.14566 93.5338C9.50739 102.01 14.4449 107.736 22.3699 109.791C28.6797 111.419 35.2391 112.082 41.6933 113.153C42.7388 113.245 43.7725 113.44 44.7793 113.737C33.3678 115.05 21.7659 114.696 10.5973 117.676L10.1837 118.845C13.1777 120.572 16.0076 122.745 19.2052 123.901C22.4028 125.057 26.1125 125.254 29.7959 125.904L27.3731 128.93C34.7991 134.978 43.4792 133.362 51.8704 133.408L51.9295 134.282C48.6466 134.899 45.4096 135.424 42.1792 136.146C38.6796 136.928 35.1865 137.801 31.7591 138.858C30.9712 139.101 30.4854 140.289 29.8616 141.038C30.6561 141.406 31.5162 142.062 32.3172 142.062C38.0033 142.062 43.6893 141.951 49.3885 141.878C50.5847 141.803 51.7848 141.939 52.9341 142.279L36.7689 146.514C37.1235 150.217 39.474 149.265 41.2206 149.403C43.0918 149.56 44.9631 149.679 46.8344 149.816L47.0248 150.729L41.8903 154.728C44.1949 158.109 48.0359 158.011 51.4699 159.035L52.7305 163.158H58.1277C57.8191 165.64 57.7797 165.666 53.4528 166.796C53.3412 169.908 53.3412 169.908 60.2025 170.525C58.6398 173.152 59.0535 175.062 62.297 175.745C62.5616 175.823 62.8024 175.966 62.9975 176.161C63.1925 176.356 63.3354 176.597 63.4132 176.861C63.6956 181.306 66.9325 180.801 69.874 180.801C70.5306 180.801 71.1872 180.86 72.1524 180.906C71.2857 186.08 75.2712 186.493 78.587 187.596C78.6854 187.629 78.8562 187.629 78.889 187.695C80.78 191.49 85.6321 190.584 88.1534 193.506C88.705 194.162 90.1232 194.044 91.351 194.327L89.4732 196.986C92.1849 198.2 94.4173 200.006 97.4442 198.259C98.2205 197.876 99.0977 197.745 99.9523 197.885C100.237 197.993 100.491 198.169 100.691 198.398C100.892 198.627 101.032 198.902 101.101 199.198C101.051 199.48 100.928 199.743 100.745 199.963C100.562 200.183 100.325 200.351 100.057 200.452C97.6214 200.787 96.0259 201.766 95.6582 204.464C95.586 204.996 94.0956 205.423 93.2026 205.738C85.0872 208.627 76.9586 211.477 69.0008 214.963L76.5778 213.171L76.8076 213.61L67.6154 218.41L95.6188 209.395C95.7896 209.848 95.9668 210.295 96.1441 210.748C93.846 211.621 91.548 212.521 89.2565 213.374C86.7943 214.274 84.319 215.127 81.8502 216L82.9992 213.906L72.5726 218.285L72.7893 218.889L79.4799 216.821C78.5804 217.406 77.7203 218.062 76.7813 218.574C67.4315 223.709 58.0817 228.856 48.6925 233.925C46.1581 235.291 43.4858 236.394 40.8791 237.622L40.3145 236.67L55.416 225.212C50.6754 227.839 45.8561 230.143 40.3145 229.579L45.6788 230.787L34.2148 238.416L34.5102 239.073C36.7689 238.705 39.0604 238.482 41.2731 237.944C43.4858 237.405 45.5081 236.552 47.4647 235.889L44.6479 243.177H45.3045L57.957 235.376L55.3306 239.927C55.5342 240.143 55.7377 240.366 55.9478 240.583L66.5451 236.263L63.689 240.498C63.8334 240.774 63.9845 241.049 64.1355 241.325C66.6305 240.517 69.0861 239.546 71.6337 238.955C73.4524 238.535 75.4879 236.328 77.3263 239.191C77.4708 239.414 79.04 238.791 79.9001 238.443C81.7254 237.707 83.5179 236.893 85.3235 236.105L85.7635 236.887L82.3689 241.437C90.5106 238.777 98.7836 238.81 104.693 232.474C105.832 231.174 107.274 230.176 108.891 229.566C110.508 228.957 112.25 228.756 113.964 228.981C122.591 229.756 130.832 227.189 139.019 224.878C151.206 221.43 163.805 221.089 176.254 219.559C181.349 218.903 186.431 218.128 191.52 217.432C193.358 217.182 194.934 216.887 196.963 218.023C198.506 218.889 201.283 217.432 203.529 217.189C204.938 217.123 206.35 217.136 207.757 217.228C209.688 217.228 211.697 217.465 213.542 217.104C215.551 216.71 217.442 215.738 219.622 214.93C219.215 218.456 221.493 218.102 223.778 218.049C224.848 218.049 225.951 218.863 227.002 218.804C228.827 218.692 230.817 218.561 232.386 217.754C235.196 216.309 236.936 216.841 239.208 218.955C241.624 221.207 244.126 224.037 248.663 223.44L243.233 214.162C251.768 218.266 258.643 225.718 268.84 221.496L256.568 213.361L257.225 211.857C261.092 212.58 265.018 213.092 268.813 214.077C272.49 215.029 275.629 214.523 278.695 211.936L270.37 209.382C276.45 207.721 283.127 210.892 287.526 204.037H272.444C277.237 201.24 283.37 202.337 287.401 198.128C287.316 197.774 287.231 197.419 287.152 197.071L271.978 199.441L271.781 198.785L273.849 197.813C279.7 195.121 285.668 192.711 291.354 189.671C297.375 186.434 301.814 181.536 304 174.872V173.559C303.56 173.887 302.963 174.104 302.687 174.524ZM51.529 136.199L51.4174 135.293L65.5406 133.27C65.5734 133.5 65.6062 133.737 65.6456 133.973L51.529 136.199ZM52.133 236.703C61.8505 226.611 75.1727 223.223 86.768 216.644L87.3393 217.681L52.133 236.703ZM85.3564 231.916L87.5428 228.357C87.3393 227.963 87.1357 227.563 86.9256 227.169L81.2855 229.099C80.6946 226.171 80.6946 226.171 91.2394 223.558C91.0162 226.539 91.0162 226.539 98.0876 225.751C94.4632 228.574 90.9899 231.64 85.3564 231.916ZM97.9366 232.422L97.5098 231.713L105.967 225.488C106.236 225.908 106.512 226.329 106.787 226.749L97.9366 232.422ZM98.1467 218.889L97.9103 218.042L114.831 213.052L115.408 214.7C109.886 217.044 103.951 217.78 98.1204 218.883L98.1467 218.889ZM111.745 130.946L112.487 130.473L119.965 142.174L119.02 142.83L111.745 130.946ZM117.444 220.899C117.385 220.643 117.332 220.386 117.28 220.13L128.882 217.635C128.967 217.99 129.046 218.351 129.131 218.706L117.444 220.899ZM150.083 175.89L139.715 165.213C133.235 161.274 129.262 155.194 125.27 149.127L125.874 148.602L140.057 164.898L150.844 175.115L150.083 175.89ZM177.883 199.1H186.175C186.175 199.402 186.208 199.697 186.221 199.999L177.883 201.398V199.1ZM188.29 214.201C188.257 213.814 188.224 213.433 188.185 213.046L208.138 210.17C201.953 213.952 195.21 214.654 188.263 214.182L188.29 214.201ZM256.069 196.06C250.219 196.671 244.362 197.373 238.486 197.655C236.674 197.741 234.796 196.605 232.951 196.027L233.259 194.576H266.863L266.962 194.74C263.324 195.187 259.7 195.686 256.069 196.06Z" fill="#FFF0D9"/>
</svg>
