<svg width="98" height="80" viewBox="0 0 98 80" fill="none" xmlns="http://www.w3.org/2000/svg">
<path d="M97.1264 56.9042C95.2097 59.9455 92.2571 61.2489 88.9732 62.0408C85.2216 62.9418 81.3967 62.9418 77.6095 62.7042C75.07 62.5459 72.5431 61.8481 70.0603 61.2189C67.1601 60.4784 64.3124 59.5324 61.4395 58.6913C61.0787 58.6107 60.713 58.5549 60.3448 58.5244C63.1653 59.5816 66.0067 60.5169 68.8545 61.4351C69.9512 61.7903 71.0857 62.0365 72.1573 62.456C73.3253 62.914 74.4158 63.3634 74.5206 65.0692C74.5856 66.1158 74.4745 66.8413 73.7762 67.5519C73.6105 67.173 73.4616 66.8349 73.2477 66.3426C73.2184 66.516 73.1974 66.6423 73.1869 66.7065C71.9287 66.7942 70.7565 66.8606 69.5884 66.9633C67.8626 67.1131 66.1368 67.2907 64.4109 67.4577C64.4109 67.509 64.4109 67.5626 64.4004 67.6161L67.1727 67.8001C64.8094 69.3261 62.1399 67.9414 59.7031 68.637L63.1842 66.2827L58.835 66.6551C58.8203 66.5716 58.8077 66.4903 58.793 66.409L61.949 65.1869C61.1102 65.3196 60.8817 64.7482 60.7516 64.0547L57.9857 64.3158L57.9291 64.059L60.2861 62.7064L58.8518 62.2569L59.9296 61.4222C59.9044 61.3238 59.8814 61.2253 59.8562 61.1269C59.1348 61.1269 58.4135 61.1547 57.6942 61.1269C57.1112 61.0991 56.436 61.1718 55.9663 60.8957C53.5694 59.4746 51.2291 57.9551 48.8679 56.4676C48.914 56.3798 48.9602 56.2921 49.0042 56.2043L49.7109 56.3991L44.8123 51.3524L45.0681 51.0785C48.7379 55.0978 53.2989 57.741 58.143 59.9326C58.8308 60.243 59.6612 60.2258 60.4266 60.3607C60.4434 60.2515 60.4623 60.1467 60.479 60.0354C60.1351 59.8748 59.7891 59.7186 59.4473 59.5538C57.1406 58.443 54.7269 57.5291 52.567 56.1851C46.8338 52.613 42.1281 47.851 38.0976 42.3913C33.6038 36.2916 30.173 29.5713 27.275 22.5556C27.1198 22.1811 26.9478 21.8172 26.7843 21.447C26.5326 23.7306 27.4616 25.7274 27.9922 27.8398C27.3081 26.9898 26.7227 26.0619 26.2474 25.0747C24.5426 21.2501 22.8209 17.4298 21.2649 13.5431C19.4825 9.09569 17.8594 4.58836 16.1818 0.0938721H15.9721C15.322 2.51876 15.7393 4.89655 16.2992 7.26151C17.6665 13.0401 19.2728 18.761 21.4369 24.2978C21.4942 24.4258 21.5249 24.5645 21.5271 24.7052C21.5293 24.8459 21.5028 24.9856 21.4495 25.1153C20.445 23.8697 19.2875 22.7183 18.4591 21.3592C15.1773 15.9744 12.0025 10.5189 8.78145 5.09345C8.16912 4.064 7.52324 3.06023 6.89414 2.04576L6.55023 2.11853C6.6425 3.1437 6.59217 4.20954 6.85639 5.18548C7.36679 7.10922 7.98503 9.00145 8.70805 10.8528C10.4255 15.1889 12.4617 19.356 15.0704 23.2255C15.3382 23.5874 15.5153 24.0106 15.5862 24.4583C15.0326 23.9746 14.4266 23.5401 13.9317 23.0008C11.3971 20.2456 8.88071 17.4768 6.38247 14.6945C5.31719 13.5153 4.31482 12.2739 3.21808 11.1246C2.74416 10.6281 2.10876 10.2899 1.48595 9.84049C1.37271 10.1722 1.31609 10.2514 1.33497 10.2964C2.38347 12.8197 3.3439 15.3858 4.50984 17.8535C6.97173 23.065 10.5408 27.2513 15.6911 29.8859C15.8223 29.963 15.9484 30.0488 16.0686 30.1427C14.4832 30.1192 10.8135 29.017 9.12955 27.8163C6.52926 25.9586 4.03382 23.9468 1.49224 22.0077C1.15253 21.7466 0.798133 21.5219 0.454224 21.2822V22.1383C0.663925 22.9944 0.932342 23.8333 1.06445 24.7065C1.32658 26.4187 1.9452 27.8891 3.30196 29.0298C5.90645 31.2021 9.02051 32.0625 12.1975 32.8223C13.1445 33.0361 14.0797 33.3011 14.9991 33.6163C10.6352 33.7298 6.64669 32.1182 2.41702 30.5044C3.49069 33.2675 5.06765 35.1338 7.59874 35.8036C9.61396 36.3344 11.7089 36.5506 13.7702 36.8994C14.1041 36.9295 14.4343 36.9933 14.7558 37.0899C11.1112 37.518 7.40581 37.4024 3.8388 38.3741L3.70669 38.755C4.66292 39.3179 5.56673 40.0263 6.58798 40.403C7.60922 40.7797 8.79403 40.8439 9.97045 41.0558L9.19666 42.0424C11.5684 44.0136 14.3406 43.4871 17.0206 43.5021L17.0395 43.7867C15.991 43.9879 14.9571 44.1591 13.9254 44.3945C12.8077 44.6492 11.6921 44.9339 10.5975 45.2785C10.3458 45.3576 10.1906 45.745 9.99142 45.989C10.2452 46.1089 10.5199 46.3229 10.7757 46.3229C12.5917 46.3229 14.4077 46.2865 16.2279 46.263C16.61 46.2384 16.9933 46.2826 17.3603 46.3935L12.1975 47.774C12.3107 48.9811 13.0614 48.6707 13.6193 48.7157C14.2169 48.767 14.8145 48.8056 15.4122 48.8505L15.473 49.148L13.8331 50.4514C14.5692 51.5536 15.7959 51.5215 16.8927 51.8554L17.2953 53.1995H19.0191C18.9205 54.0085 18.9079 54.017 17.526 54.3851C17.4903 55.3996 17.4903 55.3996 19.6817 55.6008C19.1826 56.4569 19.3147 57.0797 20.3507 57.3023C20.4352 57.3276 20.5121 57.3742 20.5744 57.4378C20.6366 57.5014 20.6823 57.5799 20.7071 57.6661C20.7973 59.1151 21.8311 58.9503 22.7706 58.9503C22.9803 58.9503 23.19 58.9695 23.4983 58.9845C23.2215 60.671 24.4943 60.8058 25.5533 61.1654C25.5848 61.1761 25.6393 61.1761 25.6498 61.1975C26.2537 62.4346 27.8034 62.1392 28.6087 63.0916C28.7848 63.3056 29.2378 63.2671 29.6299 63.3591L29.0302 64.2259C29.8962 64.6219 30.6092 65.2104 31.5759 64.6411C31.8239 64.516 32.1041 64.4734 32.377 64.5191C32.4679 64.5542 32.549 64.6116 32.613 64.6863C32.677 64.7609 32.722 64.8506 32.744 64.9472C32.7278 65.0389 32.6885 65.1248 32.6301 65.1964C32.5716 65.2681 32.496 65.3231 32.4106 65.356C31.6326 65.4651 31.123 65.784 31.0056 66.6637C30.9825 66.837 30.5065 66.9761 30.2213 67.0789C27.6294 68.0206 25.0333 68.9494 22.4917 70.0859L24.9116 69.5016L24.985 69.645L22.0492 71.2095L30.993 68.271C31.0475 68.4186 31.1041 68.5642 31.1607 68.7119C30.4268 68.9965 29.6928 69.2897 28.961 69.5679C28.1746 69.8612 27.384 70.1394 26.5955 70.424L26.9625 69.7413L23.6325 71.1688L23.7017 71.3658L25.8385 70.6916C25.5512 70.882 25.2765 71.0961 24.9767 71.263C21.9905 72.9367 19.0044 74.6146 16.0056 76.2669C15.1962 76.7121 14.3427 77.0716 13.5102 77.4718L13.3299 77.1615L18.153 73.4268C16.6389 74.2829 15.0997 75.0341 13.3299 74.8501L15.0431 75.2439L11.3817 77.7308L11.4761 77.9448C12.1975 77.825 12.9293 77.7522 13.636 77.5767C14.3427 77.4012 14.9886 77.123 15.6135 76.9068L14.7139 79.2825H14.9236L18.9645 76.7399L18.1257 78.2231C18.1907 78.2937 18.2557 78.3664 18.3228 78.4371L21.7074 77.0288L20.7952 78.4093C20.8414 78.4991 20.8896 78.589 20.9378 78.6789C21.7347 78.4157 22.519 78.0989 23.3326 77.9063C23.9135 77.7693 24.5635 77.0502 25.1507 77.9833C25.1968 78.0561 25.698 77.8528 25.9727 77.7394C26.5557 77.4997 27.1282 77.2343 27.7049 76.9774L27.8454 77.2321L26.7612 78.7153C29.3615 77.8485 32.0037 77.8592 33.891 75.7939C34.2548 75.3702 34.7153 75.0446 35.2318 74.846C35.7483 74.6474 36.3048 74.5819 36.852 74.6553C39.6075 74.9078 42.2392 74.071 44.8542 73.3176C48.7463 72.194 52.7704 72.0827 56.7464 71.5841C58.3736 71.37 59.9967 71.1175 61.6219 70.8906C62.2091 70.8093 62.7123 70.713 63.3603 71.0832C63.8531 71.3657 64.7402 70.8906 65.4573 70.8114C65.9074 70.7901 66.3582 70.7943 66.8078 70.8243C67.4243 70.8243 68.066 70.9013 68.6553 70.7836C69.297 70.6552 69.9009 70.3384 70.5971 70.0752C70.4671 71.2245 71.1947 71.1089 71.9245 71.0918C72.2663 71.0918 72.6186 71.3572 72.9541 71.3379C73.5371 71.3015 74.1725 71.2587 74.6737 70.9955C75.5712 70.5246 76.1269 70.698 76.8525 71.3871C77.6242 72.1212 78.4231 73.0437 79.8722 72.8489L78.138 69.8248C80.8641 71.1624 83.0596 73.5916 86.3163 72.2154L82.397 69.5637L82.6067 69.0736C83.8418 69.309 85.0958 69.4759 86.3079 69.797C87.4822 70.1073 88.4846 69.9425 89.4639 69.0992L86.8049 68.2667C88.7467 67.7252 90.8794 68.7589 92.2844 66.5245H87.4675C88.9984 65.6128 90.957 65.9702 92.2445 64.5983C92.2173 64.4828 92.19 64.3672 92.1648 64.2538L87.3187 65.0264L87.2557 64.8124L87.9163 64.4956C89.7847 63.6181 91.6909 62.8326 93.5069 61.8417C95.4299 60.7866 96.8475 59.19 97.5458 57.0176V56.5896C97.4053 56.6966 97.2144 56.7672 97.1264 56.9042ZM16.9116 44.4117L16.8759 44.1163L21.3866 43.4571C21.3971 43.532 21.4075 43.6091 21.4201 43.6861L16.9116 44.4117ZM17.1045 77.1722C20.2081 73.8827 24.4629 72.7783 28.1662 70.6338L28.3486 70.9719L17.1045 77.1722ZM27.7153 75.612L28.4137 74.452C28.3486 74.3235 28.2836 74.193 28.2165 74.0646L26.4152 74.6938C26.2265 73.7393 26.2265 73.7393 29.5943 72.8875C29.523 73.8591 29.523 73.8591 31.7815 73.6023C30.6239 74.5226 29.5146 75.5221 27.7153 75.612ZM31.7332 75.7768L31.5969 75.5456L34.2979 73.5167C34.3838 73.6537 34.4719 73.7906 34.56 73.9276L31.7332 75.7768ZM31.8003 71.3658L31.7248 71.0897L37.1288 69.4631L37.3134 70.0003C35.5498 70.7643 33.6541 71.0041 31.7919 71.3636L31.8003 71.3658ZM36.1432 42.6995L36.3802 42.5454L38.7687 46.3593L38.4667 46.5733L36.1432 42.6995ZM37.9634 72.0207C37.9446 71.9372 37.9278 71.8537 37.911 71.7702L41.6164 70.957C41.6437 71.0725 41.6689 71.1903 41.6961 71.3058L37.9634 72.0207ZM48.3877 57.3494L45.0765 53.8693C43.0067 52.5852 41.7381 50.6034 40.4631 48.6258L40.656 48.4546L45.1855 53.7666L48.6309 57.0968L48.3877 57.3494ZM57.2664 64.9151H59.9149C59.9149 65.0135 59.9254 65.1098 59.9296 65.2083L57.2664 65.6642V64.9151ZM60.5902 69.8376C60.5797 69.7113 60.5692 69.5872 60.5566 69.4609L66.9294 68.5235C64.954 69.7563 62.8004 69.9853 60.5818 69.8312L60.5902 69.8376ZM82.2376 63.9242C80.3692 64.1232 78.4986 64.3522 76.6218 64.4442C76.043 64.4721 75.4433 64.1018 74.854 63.9135L74.9526 63.4405H85.6851L85.7165 63.494C84.5548 63.6395 83.3972 63.8022 82.2376 63.9242Z" fill="#272932"/>
</svg>
