<svg width="298" height="244" viewBox="0 0 298 244" fill="none" xmlns="http://www.w3.org/2000/svg">
<path d="M1.28659 174.847C7.16663 184.177 16.2247 188.176 26.2992 190.605C37.8083 193.37 49.5426 193.37 61.1611 192.641C68.9518 192.155 76.7039 190.014 84.3209 188.084C93.2181 185.812 101.954 182.91 110.768 180.33C111.875 180.082 112.997 179.911 114.126 179.818C105.473 183.061 96.7564 185.93 88.02 188.747C84.6554 189.837 81.175 190.592 77.8876 191.879C74.3043 193.284 70.959 194.663 70.6373 199.896C70.4379 203.107 70.7788 205.333 72.9211 207.512C73.4294 206.35 73.8861 205.313 74.5423 203.803C74.6324 204.335 74.6967 204.722 74.7289 204.919C78.5888 205.188 82.185 205.392 85.7684 205.707C91.063 206.166 96.3576 206.711 101.652 207.224C101.652 207.381 101.652 207.545 101.684 207.709L93.1795 208.274C100.43 212.956 108.619 208.707 116.095 210.841L105.416 203.619L118.758 204.761C118.803 204.505 118.842 204.256 118.887 204.006L109.205 200.257C111.778 200.664 112.479 198.911 112.878 196.784L121.364 197.585L121.537 196.797L114.306 192.647L118.707 191.268L115.4 188.708C115.477 188.406 115.548 188.104 115.625 187.802C117.838 187.802 120.051 187.887 122.258 187.802C124.046 187.716 126.118 187.94 127.559 187.093C134.912 182.733 142.092 178.071 149.336 173.508C149.194 173.239 149.053 172.969 148.917 172.7L146.749 173.298L161.778 157.815L160.993 156.975C149.734 169.306 135.742 177.414 120.881 184.138C118.771 185.09 116.224 185.037 113.875 185.451C113.824 185.116 113.766 184.795 113.715 184.453C114.77 183.961 115.831 183.481 116.88 182.976C123.956 179.568 131.361 176.764 137.987 172.641C155.576 161.683 170.012 147.074 182.377 130.324C196.163 111.611 206.688 90.9944 215.579 69.4715C216.055 68.3224 216.583 67.2063 217.084 66.0704C217.856 73.0761 215.006 79.2021 213.379 85.6826C215.477 83.0749 217.273 80.2283 218.731 77.1995C223.962 65.4663 229.243 53.7462 234.017 41.8226C239.485 28.1787 244.464 14.351 249.611 0.562622H250.254C252.249 8.00176 250.968 15.2964 249.251 22.5517C245.056 40.2796 240.128 57.8302 233.489 74.8161C233.313 75.2088 233.219 75.6344 233.213 76.0661C233.206 76.4977 233.287 76.9261 233.451 77.3243C236.532 73.5029 240.083 69.9705 242.624 65.8012C252.693 49.2814 262.433 32.545 272.314 15.9005C274.193 12.7423 276.174 9.66292 278.104 6.5507L279.159 6.77394C278.876 9.91899 279.03 13.1888 278.22 16.1828C276.654 22.0845 274.757 27.8896 272.539 33.5693C267.27 46.8717 261.024 59.6555 253.021 71.5266C252.199 72.6368 251.656 73.9351 251.438 75.3085C253.136 73.8247 254.996 72.4918 256.514 70.8372C264.29 62.3847 272.01 53.8907 279.674 45.355C282.942 41.7372 286.017 37.929 289.382 34.4031C290.835 32.8799 292.785 31.8425 294.695 30.4636C295.043 31.4813 295.217 31.7243 295.159 31.8621C291.942 39.6033 288.996 47.4758 285.419 55.0463C277.866 71.0342 266.917 83.877 251.116 91.9596C250.714 92.196 250.327 92.4593 249.958 92.7475C254.822 92.6753 266.08 89.2939 271.246 85.6104C279.223 79.9112 286.879 73.7393 294.676 67.7906C295.718 66.9896 296.806 66.3002 297.861 65.5648V68.1911C297.217 70.8175 296.394 73.3913 295.989 76.0702C295.184 81.3229 293.287 85.8336 289.124 89.3332C281.134 95.9976 271.581 98.6371 261.834 100.968C258.929 101.624 256.06 102.437 253.239 103.404C266.627 103.752 278.863 98.8078 291.839 93.8571C288.545 102.334 283.707 108.059 275.942 110.114C269.76 111.743 263.333 112.406 257.009 113.476C255.985 113.568 254.972 113.764 253.986 114.06C265.167 115.374 276.534 115.019 287.477 118L287.883 119.169C284.949 120.895 282.176 123.069 279.043 124.224C275.91 125.38 272.275 125.577 268.666 126.227L271.04 129.254C263.764 135.301 255.259 133.686 247.038 133.732L246.98 134.605C250.196 135.222 253.368 135.747 256.533 136.47C259.962 137.251 263.385 138.124 266.743 139.181C267.515 139.424 267.991 140.613 268.602 141.361C267.824 141.729 266.981 142.386 266.196 142.386C260.625 142.386 255.054 142.274 249.469 142.202C248.297 142.126 247.122 142.262 245.996 142.602L261.834 146.837C261.487 150.54 259.184 149.588 257.472 149.726C255.639 149.884 253.806 150.002 251.972 150.14L251.785 151.052L256.816 155.051C254.558 158.433 250.795 158.334 247.43 159.358L246.195 163.482H240.907C241.209 165.964 241.248 165.99 245.487 167.119C245.597 170.231 245.597 170.231 238.874 170.849C240.405 173.475 240 175.386 236.822 176.068C236.562 176.146 236.326 176.289 236.135 176.484C235.944 176.679 235.804 176.92 235.728 177.185C235.451 181.63 232.28 181.124 229.398 181.124C228.754 181.124 228.111 181.183 227.165 181.229C228.015 186.403 224.11 186.817 220.861 187.92C220.764 187.953 220.597 187.953 220.565 188.018C218.712 191.813 213.958 190.907 211.487 193.829C210.947 194.486 209.557 194.368 208.354 194.65L210.194 197.309C207.537 198.524 205.35 200.329 202.384 198.583C201.624 198.199 200.764 198.068 199.927 198.209C199.648 198.316 199.399 198.492 199.203 198.721C199.007 198.95 198.868 199.225 198.801 199.522C198.851 199.803 198.971 200.067 199.15 200.286C199.33 200.506 199.562 200.675 199.824 200.776C202.211 201.111 203.774 202.089 204.134 204.788C204.205 205.319 205.665 205.746 206.54 206.061C214.492 208.95 222.456 211.8 230.253 215.286L222.829 213.494L222.604 213.934L231.611 218.734L204.173 209.719C204.006 210.172 203.832 210.618 203.658 211.071C205.91 211.944 208.161 212.844 210.407 213.697C212.819 214.597 215.244 215.451 217.663 216.324L216.538 214.229L226.754 218.609L226.541 219.213L219.986 217.145C220.867 217.729 221.71 218.386 222.63 218.898C231.791 224.032 240.952 229.18 250.151 234.249C252.635 235.614 255.253 236.717 257.807 237.945L258.36 236.993L243.564 225.536C248.209 228.162 252.931 230.467 258.36 229.902L253.104 231.11L264.337 238.74L264.047 239.396C261.834 239.029 259.589 238.805 257.421 238.267C255.253 237.729 253.272 236.875 251.354 236.212L254.114 243.5H253.471L241.074 235.7L243.647 240.25C243.448 240.467 243.249 240.69 243.043 240.906L232.659 236.586L235.458 240.821C235.316 241.097 235.168 241.373 235.02 241.648C232.576 240.841 230.17 239.869 227.674 239.278C225.892 238.858 223.897 236.652 222.096 239.514C221.954 239.738 220.417 239.114 219.574 238.766C217.786 238.031 216.029 237.216 214.26 236.429L213.829 237.21L217.155 241.76C209.178 239.101 201.072 239.134 195.282 232.798C194.166 231.498 192.753 230.499 191.169 229.89C189.584 229.28 187.877 229.079 186.198 229.305C177.745 230.079 169.671 227.512 161.649 225.201C149.709 221.754 137.363 221.412 125.166 219.883C120.174 219.226 115.194 218.451 110.208 217.755C108.407 217.506 106.863 217.21 104.875 218.346C103.363 219.213 100.642 217.755 98.4419 217.512C97.0613 217.447 95.6781 217.46 94.2989 217.552C92.4075 217.552 90.4389 217.788 88.6312 217.427C86.6626 217.033 84.8098 216.061 82.674 215.254C83.0728 218.779 80.8405 218.425 78.6017 218.372C77.5531 218.372 76.4723 219.187 75.443 219.127C73.6545 219.016 71.7052 218.885 70.1677 218.077C67.4142 216.632 65.7094 217.164 63.4835 219.278C61.1161 221.531 58.665 224.36 54.2196 223.763L59.5399 214.485C51.1767 218.589 44.441 226.041 34.4501 221.819L46.4739 213.684L45.8306 212.181C42.0414 212.903 38.1943 213.415 34.4759 214.4C30.8732 215.352 27.7981 214.847 24.7938 212.26L32.9512 209.705C26.994 208.044 20.4513 211.216 16.141 204.361H30.9183C26.222 201.564 20.2133 202.66 16.2633 198.452C16.3469 198.097 16.4305 197.742 16.5077 197.394L31.375 199.765L31.568 199.108L29.5416 198.136C23.8095 195.444 17.9617 193.035 12.3904 189.995C6.49112 186.758 2.14224 181.86 -6.10352e-05 175.195V173.882C0.430969 174.21 1.01642 174.427 1.28659 174.847ZM247.372 136.522L247.482 135.616L233.644 133.594C233.611 133.824 233.579 134.06 233.541 134.296L247.372 136.522ZM246.78 237.026C237.259 226.934 224.206 223.546 212.845 216.967L212.285 218.005L246.78 237.026ZM214.228 232.24L212.086 228.681C212.285 228.287 212.485 227.886 212.69 227.492L218.217 229.423C218.796 226.494 218.796 226.494 208.464 223.881C208.683 226.862 208.683 226.862 201.754 226.074C205.305 228.897 208.708 231.964 214.228 232.24ZM201.902 232.745L202.32 232.036L194.034 225.812C193.77 226.232 193.5 226.652 193.23 227.072L201.902 232.745ZM201.696 219.213L201.928 218.366L185.349 213.376L184.783 215.024C190.193 217.368 196.009 218.103 201.722 219.206L201.696 219.213ZM188.373 131.27L187.646 130.797L180.318 142.497L181.245 143.154L188.373 131.27ZM182.789 221.222C182.847 220.966 182.898 220.71 182.949 220.454L171.582 217.959C171.498 218.313 171.421 218.674 171.337 219.029L182.789 221.222ZM150.809 176.213L160.967 165.537C167.317 161.597 171.209 155.517 175.12 149.45L174.528 148.925L160.632 165.222L150.063 175.438L150.809 176.213ZM123.57 199.423H115.445C115.445 199.725 115.413 200.021 115.4 200.323L123.57 201.721V199.423ZM113.374 214.525C113.406 214.137 113.438 213.757 113.477 213.369L93.9258 210.493C99.9859 214.275 106.593 214.978 113.399 214.505L113.374 214.525ZM46.9629 196.383C52.6949 196.994 58.4334 197.696 64.1912 197.979C65.9668 198.064 67.8067 196.928 69.6144 196.35L69.312 194.899H36.3866L36.2901 195.064C39.8541 195.51 43.4053 196.009 46.9629 196.383Z" fill="#FFF0D9"/>
</svg>
