<svg width="32" height="22" viewBox="0 0 32 22" fill="none" xmlns="http://www.w3.org/2000/svg">
<path d="M28.9489 0.121948H2.75373C2.17478 0.121948 1.61954 0.351934 1.21017 0.761313C0.800787 1.17069 0.570801 1.72593 0.570801 2.30487V19.7683C0.570801 20.3472 0.800787 20.9025 1.21017 21.3118C1.61954 21.7212 2.17478 21.9512 2.75373 21.9512H28.9489C29.5278 21.9512 30.083 21.7212 30.4924 21.3118C30.9018 20.9025 31.1318 20.3472 31.1318 19.7683V2.30487C31.1318 1.72593 30.9018 1.17069 30.4924 0.761313C30.083 0.351934 29.5278 0.121948 28.9489 0.121948ZM26.5476 2.30487L15.8513 9.705L5.15495 2.30487H26.5476ZM2.75373 19.7683V3.29811L15.2292 11.9316C15.4119 12.0583 15.6289 12.1263 15.8513 12.1263C16.0737 12.1263 16.2907 12.0583 16.4734 11.9316L28.9489 3.29811V19.7683H2.75373Z" fill="#FFF0D9"/>
</svg>
