<svg width="42" height="42" viewBox="0 0 42 42" fill="none" xmlns="http://www.w3.org/2000/svg">
<path d="M18.0648 28.4927L10.7266 21.1531L12.8003 19.0793L18.0648 24.3422L29.1968 13.2087L31.2735 15.2854L18.0648 28.4927Z" fill="#91E7D7"/>
<path d="M21.0001 0C16.9363 0 12.9637 1.20506 9.5848 3.46278C6.20588 5.72051 3.57232 8.9295 2.01718 12.684C0.462028 16.4384 0.0551299 20.5697 0.847938 24.5554C1.64075 28.5412 3.59765 32.2023 6.47119 35.0758C9.34473 37.9493 13.0058 39.9063 16.9916 40.6991C20.9773 41.4919 25.1086 41.085 28.863 39.5298C32.6175 37.9747 35.8265 35.3411 38.0842 31.9622C40.3419 28.5833 41.547 24.6107 41.547 20.5469C41.547 15.0975 39.3822 9.87135 35.5289 6.01806C31.6756 2.16476 26.4495 0 21.0001 0ZM21.0001 38.1586C17.5168 38.1586 14.1118 37.1257 11.2156 35.1905C8.31933 33.2553 6.062 30.5047 4.72902 27.2866C3.39603 24.0685 3.04726 20.5274 3.72681 17.1111C4.40636 13.6947 6.08371 10.5566 8.54674 8.09361C11.0098 5.63058 14.1479 3.95323 17.5642 3.27368C20.9805 2.59413 24.5216 2.9429 27.7398 4.27588C30.9579 5.60887 33.7084 7.8662 35.6436 10.7624C37.5788 13.6586 38.6117 17.0637 38.6117 20.5469C38.6117 25.2178 36.7562 29.6974 33.4534 33.0003C30.1506 36.3031 25.671 38.1586 21.0001 38.1586Z" fill="#91E7D7"/>
</svg>
