<svg width="43" height="42" viewBox="0 0 43 42" fill="none" xmlns="http://www.w3.org/2000/svg">
<path d="M21.5001 0C10.0525 0 0.953125 9.09936 0.953125 20.5469C0.953125 31.9945 10.0525 41.0939 21.5001 41.0939C32.9476 41.0939 42.047 31.9945 42.047 20.5469C42.047 9.09936 32.9476 0 21.5001 0ZM21.5001 38.1586C11.8136 38.1586 3.8884 30.2333 3.8884 20.5469C3.8884 10.8605 11.8136 2.93528 21.5001 2.93528C31.1865 2.93528 39.1117 10.8605 39.1117 20.5469C39.1117 30.2333 31.1865 38.1586 21.5001 38.1586Z" fill="#E9696A"/>
<path d="M29.4253 30.8204L21.5 22.8951L13.5748 30.8204L11.2266 28.4722L19.1518 20.5469L11.2266 12.6217L13.5748 10.2734L21.5 18.1987L29.4253 10.2734L31.7735 12.6217L23.8483 20.5469L31.7735 28.4722L29.4253 30.8204Z" fill="#E9696A"/>
</svg>
