<svg width="28" height="28" viewBox="0 0 28 28" fill="none" xmlns="http://www.w3.org/2000/svg">
<path d="M25.0571 0.939087H2.79129C1.69983 0.939087 0.82666 1.81226 0.82666 2.79457V25.1696C0.82666 26.1519 1.69983 27.0251 2.79129 27.0251H25.0571C26.1486 27.0251 27.0218 26.1519 27.0218 25.1696V2.79457C27.0218 1.81226 26.1486 0.939087 25.0571 0.939087ZM8.57605 23.2049H4.75593V10.7623H8.57605V23.2049ZM6.72056 9.01592C5.51995 9.01592 4.42849 8.0336 4.42849 6.72384C4.42849 5.41409 5.41081 4.43177 6.72056 4.43177C7.92117 4.43177 9.01264 5.41409 9.01264 6.72384C9.01264 8.0336 7.92117 9.01592 6.72056 9.01592ZM23.2017 23.0958H19.3815V16.9836C19.3815 15.5647 19.3815 13.6001 17.3078 13.6001C15.234 13.6001 15.0157 15.2373 15.0157 16.7653V22.9866H11.1956V10.7623H14.7974V12.3995H14.9065C15.4523 11.4171 16.762 10.3257 18.6175 10.3257C22.5468 10.3257 23.3108 12.9452 23.3108 16.3287V23.0958H23.2017Z" fill="#FFF0D9"/>
</svg>
