<svg width="19" height="19" viewBox="0 0 19 19" fill="none" xmlns="http://www.w3.org/2000/svg">
<path d="M17.0625 0.109863H1.27148C0.574219 0.109863 0 0.725098 0 1.46338V17.1724C0 17.9106 0.574219 18.4849 1.27148 18.4849H17.0625C17.7598 18.4849 18.375 17.9106 18.375 17.1724V1.46338C18.375 0.725098 17.7598 0.109863 17.0625 0.109863ZM5.53711 15.8599H2.83008V7.12354H5.53711V15.8599ZM4.18359 5.89307C3.28125 5.89307 2.58398 5.1958 2.58398 4.33447C2.58398 3.47314 3.28125 2.73486 4.18359 2.73486C5.04492 2.73486 5.74219 3.47314 5.74219 4.33447C5.74219 5.1958 5.04492 5.89307 4.18359 5.89307ZM15.75 15.8599H13.002V11.5942C13.002 10.6099 13.002 9.29736 11.6074 9.29736C10.1719 9.29736 9.9668 10.4048 9.9668 11.5532V15.8599H7.25977V7.12354H9.84375V8.31299H9.88477C10.2539 7.61572 11.1562 6.87744 12.4688 6.87744C15.2168 6.87744 15.75 8.72314 15.75 11.061V15.8599Z" fill="#0E76A8"/>
</svg>
