<svg width="13" height="122" viewBox="0 0 13 122" fill="none" xmlns="http://www.w3.org/2000/svg">
<path d="M0.0335588 27.9664C0.0335588 27.6288 0.12633 27.3699 0.311877 27.1898C0.497423 27.0096 0.764819 26.9198 1.11406 26.9204L7.49521 26.9204C7.84386 26.9204 8.10841 27.0102 8.28887 27.1898C8.46933 27.3693 8.55911 27.6225 8.55821 27.9493C8.55821 28.2755 8.46843 28.5288 8.28887 28.7093C8.10931 28.8897 7.84475 28.9795 7.49521 28.9786L6.26297 28.9786L6.76933 28.7932C7.30902 28.9999 7.77382 29.3646 8.10302 29.8396C8.42922 30.3122 8.59247 30.8749 8.59277 31.5279C8.59277 32.1917 8.43521 32.7376 8.12008 33.1655C7.80495 33.5935 7.32103 33.8917 6.66833 34.0602L6.66833 33.8241C7.24584 34.0341 7.74018 34.4248 8.07788 34.9383C8.42084 35.456 8.59247 36.0524 8.59277 36.7276C8.59277 37.3578 8.46903 37.8784 8.22153 38.2893C7.97404 38.7002 7.59995 39.007 7.09928 39.2096C6.5983 39.4119 5.9652 39.5132 5.19997 39.5135L1.11496 39.5135C0.765717 39.5135 0.49832 39.4205 0.312774 39.2347C0.127227 39.0488 0.0344557 38.7871 0.0344557 38.4496C0.0344558 38.112 0.127227 37.8531 0.312774 37.673C0.49832 37.4928 0.765717 37.403 1.11496 37.4036L5.11513 37.4036C5.74539 37.4036 6.20686 37.2989 6.49954 37.0894C6.79223 36.8799 6.93842 36.5281 6.93812 36.034C6.93812 35.4828 6.7436 35.0488 6.35455 34.7322C5.9655 34.4156 5.42801 34.258 4.74209 34.2595L1.11272 34.2595C0.763472 34.2595 0.496076 34.1697 0.31053 33.9902C0.124983 33.8106 0.0322101 33.5517 0.0322101 33.2136C0.0322101 32.876 0.124984 32.6143 0.31053 32.4284C0.496076 32.2426 0.763472 32.1498 1.11272 32.1501L5.11513 32.1501C5.74539 32.1501 6.20686 32.0454 6.49954 31.8359C6.79223 31.6264 6.93842 31.2803 6.93812 30.7976C6.93812 30.246 6.7436 29.8121 6.35455 29.4958C5.9655 29.1794 5.42801 29.0219 4.74209 29.0231L1.11272 29.0231C0.393278 29.0267 0.0335588 28.6744 0.0335588 27.9664Z" fill="#FFF0D9"/>
<path d="M-0.000346319 44.408C-0.000346293 43.8116 0.115022 43.2798 0.345756 42.8126C0.554939 42.37 0.878327 41.9912 1.28262 41.7151C1.67662 41.4506 2.14181 41.3123 2.6163 41.3187C3.22412 41.3187 3.70519 41.4763 4.05952 41.7914C4.41386 42.1065 4.66988 42.6186 4.8276 43.3275C4.98501 44.0362 5.06387 44.9873 5.06417 46.1807L5.06417 47.0247L3.84854 47.0247L3.84854 46.1974C3.84854 45.4992 3.81472 44.9421 3.74709 44.5261C3.67945 44.1101 3.56424 43.8147 3.40143 43.64C3.23803 43.4655 3.00999 43.3783 2.71731 43.3783C2.34621 43.3783 2.04246 43.5077 1.80604 43.7666C1.56961 44.0254 1.4514 44.3856 1.4514 44.8471C1.4449 45.1942 1.53555 45.5363 1.71311 45.8346C1.88791 46.122 2.13574 46.3579 2.43136 46.5183C2.75268 46.6914 3.11327 46.7786 3.4782 46.7715L5.4188 46.7715C5.98112 46.7715 6.38618 46.6476 6.63398 46.3998C6.88177 46.152 7.00567 45.7356 7.00567 45.1505C7.00247 44.7958 6.96291 44.4423 6.88761 44.0956C6.79774 43.6851 6.66223 43.2859 6.4836 42.9056C6.38214 42.6916 6.35401 42.503 6.3992 42.3399C6.4399 42.1824 6.53952 42.0464 6.67752 41.9602C6.81594 41.8709 6.97744 41.8241 7.14213 41.8255C7.31689 41.8269 7.48833 41.8733 7.63997 41.9602C7.80277 42.05 7.92382 42.2018 8.00313 42.4158C8.20447 42.897 8.35595 43.3976 8.45517 43.9098C8.54018 44.3409 8.58527 44.7789 8.58984 45.2183C8.58984 46.0284 8.4661 46.6952 8.2186 47.2186C7.98716 47.7249 7.59177 48.1383 7.09635 48.392C6.59537 48.6509 5.95105 48.7803 5.16337 48.7803L1.11158 48.7803C0.762338 48.7803 0.494941 48.6959 0.309395 48.5272C0.12385 48.3584 0.0310761 48.1164 0.0310761 47.8013C0.0310762 47.4862 0.12385 47.2414 0.309396 47.0669C0.494941 46.8924 0.762338 46.8052 1.11158 46.8052L1.9241 46.8052L1.9241 46.9398C1.55504 46.8733 1.20802 46.717 0.913604 46.4847C0.619185 46.2525 0.386406 45.9514 0.235775 45.6079C0.0780609 45.2578 -0.000645792 44.8578 -0.000346319 44.408Z" fill="#FFF0D9"/>
<path d="M0.0334014 51.9714C0.0334015 51.6338 0.126174 51.3749 0.31172 51.1948C0.497266 51.0146 0.764662 50.9248 1.11391 50.9254L7.49505 50.9254C7.8437 50.9254 8.10825 51.0152 8.28871 51.1948C8.46917 51.3743 8.55895 51.6275 8.55805 51.9543C8.55805 52.2808 8.46827 52.5341 8.28871 52.7143C8.10915 52.8945 7.8446 52.9842 7.49505 52.9836L6.34541 52.9836L6.76738 52.7982C7.36412 53.0457 7.81721 53.4312 8.12665 53.9546C8.4361 54.478 8.59082 55.0716 8.59082 55.7354C8.59082 56.3995 8.46707 56.9453 8.21958 57.373C7.97208 57.8007 7.598 58.1215 7.09732 58.3354C6.59635 58.5491 5.96325 58.6561 5.19802 58.6564L1.11301 58.6564C0.763764 58.6564 0.496368 58.5666 0.310822 58.3871C0.125276 58.2075 0.0325028 57.9486 0.0325028 57.6105C0.0325029 57.2729 0.125276 57.0112 0.310822 56.8253C0.496368 56.6395 0.763764 56.5467 1.11301 56.547L5.09791 56.547C5.73924 56.547 6.2064 56.426 6.49939 56.1839C6.79237 55.9417 6.93856 55.5677 6.93796 55.0616C6.93796 54.4427 6.74344 53.9503 6.35439 53.5843C5.96534 53.2183 5.45045 53.0354 4.80972 53.0357L1.11256 53.0357C0.393121 53.0351 0.0334014 52.6803 0.0334014 51.9714Z" fill="#FFF0D9"/>
<path d="M-0.000340613 63.8228C0.00258814 63.3072 0.0533809 62.7929 0.151387 62.2867C0.24172 61.7764 0.418752 61.2854 0.674808 60.8349C0.767848 60.6727 0.905609 60.5407 1.07164 60.4547C1.21237 60.3837 1.37046 60.3544 1.52727 60.3703C1.67364 60.3849 1.81208 60.4437 1.9241 60.5391C2.03674 60.635 2.11402 60.7658 2.14362 60.9108C2.17713 61.0625 2.149 61.2284 2.05922 61.4086C1.86109 61.8119 1.71044 62.2369 1.61032 62.675C1.52695 63.0584 1.48452 63.4497 1.48373 63.8421C1.48373 64.3808 1.57665 64.7831 1.7625 65.0492C1.94834 65.3152 2.19314 65.4474 2.4969 65.4456C2.75547 65.4456 2.95523 65.3585 3.09619 65.1843C3.23714 65.0101 3.34114 64.7484 3.40817 64.3992L3.72914 62.7109C3.86411 62.0127 4.12013 61.4809 4.49721 61.1155C4.87429 60.7501 5.36105 60.5672 5.95749 60.5669C6.49797 60.5669 6.96512 60.7165 7.35896 61.0158C7.7528 61.3151 8.05655 61.7287 8.27023 62.2566C8.48391 62.7854 8.5909 63.393 8.5912 64.0796C8.59412 64.5482 8.54031 65.0155 8.43094 65.4712C8.3211 65.9103 8.15354 66.333 7.93266 66.7281C7.86363 66.8748 7.74638 66.9934 7.60046 67.064C7.45455 67.1347 7.28881 67.1532 7.13092 67.1164C6.98152 67.0833 6.84269 67.0135 6.72691 66.9135C6.61129 66.8167 6.53355 66.6822 6.50739 66.5337C6.47956 66.382 6.51009 66.2101 6.60031 66.0188C6.76882 65.7004 6.89916 65.3632 6.98862 65.0142C7.06475 64.7134 7.10438 64.4046 7.10668 64.0944C7.10668 63.5428 7.01106 63.1348 6.81983 62.8702C6.6286 62.6057 6.37541 62.4735 6.06029 62.4738C5.95091 62.4707 5.84205 62.4901 5.74044 62.5307C5.63883 62.5713 5.54663 62.6323 5.46953 62.71C5.31152 62.8677 5.20453 63.1096 5.14857 63.4358L4.8276 65.1242C4.69293 65.8553 4.44544 66.4089 4.08512 66.7851C3.7248 67.1613 3.24073 67.3498 2.63292 67.3507C1.81143 67.3507 1.1671 67.0301 0.699946 66.3887C0.232788 65.7474 -0.000640113 64.8921 -0.000340613 63.8228Z" fill="#FFF0D9"/>
<path d="M-0.000346319 71.7568C-0.000346293 71.1603 0.115022 70.6285 0.345756 70.1614C0.555078 69.719 0.878446 69.3403 1.28262 69.0643C1.67658 68.7997 2.14176 68.6613 2.6163 68.6674C3.22412 68.6674 3.70519 68.825 4.05952 69.1401C4.41386 69.4553 4.66988 69.9673 4.8276 70.6763C4.98501 71.3855 5.06387 72.3366 5.06417 73.5295L5.06417 74.3739L3.84854 74.3739L3.84854 73.5465C3.84854 72.8487 3.81472 72.2916 3.74709 71.8753C3.67945 71.459 3.56424 71.1635 3.40143 70.9887C3.23803 70.8139 3.00999 70.7267 2.71731 70.727C2.34621 70.727 2.04246 70.8564 1.80604 71.1153C1.56961 71.3742 1.4514 71.7343 1.4514 72.1958C1.44478 72.543 1.53544 72.8851 1.71311 73.1834C1.8878 73.4708 2.13565 73.7068 2.43136 73.8671C2.75268 74.0402 3.11327 74.1274 3.4782 74.1202L5.4188 74.1202C5.98112 74.1202 6.38618 73.9965 6.63398 73.749C6.88177 73.5015 7.00567 73.0851 7.00567 72.4997C7.00249 72.145 6.96293 71.7915 6.88761 71.4448C6.79775 71.0341 6.66224 70.6348 6.4836 70.2543C6.38214 70.0406 6.35401 69.8521 6.3992 69.6887C6.44015 69.5312 6.53971 69.3954 6.67752 69.3089C6.81594 69.2197 6.97744 69.1729 7.14213 69.1742C7.31689 69.1757 7.48833 69.222 7.63997 69.3089C7.80277 69.3987 7.92382 69.5507 8.00313 69.765C8.20447 70.2462 8.35595 70.7468 8.45517 71.2589C8.54021 71.6901 8.58529 72.1281 8.58984 72.5675C8.58984 73.3776 8.4661 74.0444 8.2186 74.5678C7.98716 75.074 7.59177 75.4875 7.09635 75.7412C6.59537 75.9998 5.95105 76.1292 5.16337 76.1295L1.11158 76.1295C0.762338 76.1295 0.494941 76.0451 0.309395 75.8764C0.12385 75.7076 0.0310761 75.4655 0.0310761 75.15C0.0310762 74.8349 0.12385 74.5902 0.309396 74.4161C0.494941 74.2419 0.762338 74.1547 1.11158 74.1544L1.9241 74.1544L1.9241 74.289C1.55494 74.2221 1.2079 74.0654 0.913504 73.8329C0.619105 73.6003 0.38637 73.299 0.235775 72.9553C0.0780609 72.6064 -0.000645792 72.2069 -0.000346319 71.7568Z" fill="#FFF0D9"/>
<path d="M0.0334023 81.1933C0.0338353 80.6829 0.101912 80.1749 0.235856 79.6823C0.377265 79.1684 0.611896 78.6849 0.928064 78.2557C0.974567 78.1725 1.04945 78.1088 1.13905 78.0762C1.2234 78.0482 1.31355 78.0425 1.40076 78.0596C1.48714 78.0744 1.56681 78.1157 1.6288 78.1776C1.69027 78.2389 1.72892 78.3194 1.73833 78.4057C1.74616 78.5084 1.71614 78.6104 1.65394 78.6925C1.36125 79.1315 1.15865 79.5592 1.04613 79.9755C0.934778 80.3826 0.878018 80.8027 0.877338 81.2248C0.877338 81.911 1.00677 82.4347 1.26564 82.7959C1.5245 83.1571 1.87345 83.3367 2.31248 83.3346C2.6716 83.3346 2.95007 83.2192 3.14788 82.9885C3.3457 82.7578 3.50611 82.3837 3.62911 81.8663L3.96623 80.3997C4.12395 79.691 4.38012 79.1673 4.73475 78.8285C5.08939 78.4898 5.54801 78.321 6.11064 78.3222C6.59396 78.3222 7.01592 78.4488 7.37654 78.7019C7.73716 78.9551 8.01578 79.3153 8.2124 79.7825C8.40902 80.2493 8.50748 80.7866 8.50778 81.3945C8.5097 81.8758 8.43562 82.3543 8.28826 82.8125C8.14996 83.2497 7.92045 83.6526 7.61491 83.9945C7.55688 84.0772 7.47402 84.1393 7.37834 84.1718C7.29332 84.1996 7.20164 84.1996 7.11663 84.1718C7.03406 84.145 6.96087 84.0952 6.90564 84.0282C6.84981 83.9623 6.81981 83.8784 6.82125 83.792C6.82575 83.6883 6.86107 83.5883 6.9227 83.5047C7.39277 82.8959 7.64759 82.1484 7.64723 81.3792C7.64723 80.7262 7.51256 80.2225 7.24322 79.8682C6.97388 79.5139 6.60817 79.3365 6.1461 79.3362C5.79686 79.3362 5.51539 79.4459 5.30172 79.6653C5.08804 79.8846 4.92494 80.2308 4.81241 80.7036L4.47484 82.1724C4.30605 82.9041 4.05556 83.45 3.72338 83.81C3.39119 84.17 2.94378 84.3496 2.38116 84.3487C1.66112 84.3487 1.08997 84.0644 0.6677 83.4958C0.245433 82.9272 0.0340012 82.1597 0.0334023 81.1933Z" fill="#FFF0D9"/>
<path d="M0.0333097 89.601C0.0333098 88.9932 0.145834 88.4867 0.370884 88.0815C0.589621 87.6824 0.929473 87.3632 1.34141 87.1698C1.76398 86.9672 2.28455 86.8659 2.90314 86.8659L7.52683 86.8659L7.52683 85.6166C7.52067 85.4893 7.55944 85.3639 7.63636 85.2624C7.67452 85.2169 7.72284 85.181 7.77743 85.1576C7.83201 85.1342 7.89133 85.124 7.95059 85.1277C8.00695 85.1254 8.06305 85.1364 8.11437 85.1598C8.16569 85.1832 8.21077 85.2183 8.24597 85.2624C8.32289 85.3639 8.36166 85.4893 8.3555 85.6166L8.3555 86.8659L10.4653 86.8659C10.6449 86.8659 10.7772 86.9107 10.8622 87.0005C10.9472 87.0903 10.9894 87.2197 10.9888 87.3888C10.9888 87.5462 10.9466 87.6701 10.8622 87.7605C10.7778 87.8503 10.6454 87.8952 10.4653 87.8952L8.3555 87.8952L8.3555 90.1743C8.3555 90.3314 8.31914 90.4499 8.24597 90.5285C8.20802 90.5681 8.16204 90.5992 8.1111 90.6196C8.06015 90.6401 8.00543 90.6494 7.95059 90.647C7.8928 90.6508 7.83486 90.6421 7.78066 90.6217C7.72646 90.6013 7.67726 90.5695 7.63636 90.5285C7.56319 90.4499 7.52683 90.3314 7.52683 90.1743L7.52683 87.8952L3.03781 87.8952C2.35099 87.8952 1.82727 88.0358 1.46665 88.3172C1.10604 88.5985 0.926474 89.0655 0.927972 89.7182C0.923144 89.9095 0.948752 90.1005 1.00384 90.2838C1.04882 90.4057 1.07457 90.5338 1.08015 90.6636C1.07937 90.704 1.0699 90.7437 1.0524 90.7801C1.03489 90.8165 1.00976 90.8487 0.978698 90.8746C0.911063 90.9365 0.804073 90.9675 0.657731 90.9675C0.564856 90.9667 0.473154 90.9466 0.38839 90.9087C0.344853 90.8903 0.306604 90.8613 0.277123 90.8244C0.247643 90.7875 0.22787 90.7438 0.219604 90.6972C0.104857 90.3425 0.0422552 89.9729 0.033758 89.6001L0.0333097 89.601Z" fill="#FFF0D9"/>
<path d="M0.0334967 95.0547C0.0334968 94.402 0.151708 93.859 0.388129 93.4256C0.624297 92.992 0.99906 92.6502 1.45248 92.4547C1.92502 92.241 2.51024 92.1342 3.20813 92.1342L7.93417 92.1342C8.11373 92.1342 8.2484 92.179 8.33818 92.2688C8.42797 92.3586 8.47286 92.4883 8.47286 92.6571C8.47658 92.7249 8.46656 92.7927 8.44342 92.8565C8.42028 92.9203 8.38448 92.9788 8.33818 93.0284C8.2484 93.1182 8.11373 93.163 7.93417 93.163L3.25796 93.163C2.47029 93.163 1.88223 93.3261 1.49378 93.6523C1.10533 93.9785 0.910801 94.4907 0.910203 95.1889C0.910203 95.9539 1.16638 96.5729 1.67872 97.046C2.19107 97.5192 2.86382 97.7558 3.69699 97.7558L7.93417 97.7558C8.11373 97.7558 8.2484 97.8006 8.33818 97.8904C8.42797 97.9802 8.47286 98.1099 8.47286 98.2787C8.47663 98.3465 8.46664 98.4143 8.4435 98.4781C8.42035 98.5419 8.38453 98.6004 8.33818 98.65C8.2484 98.7398 8.11373 98.7846 7.93417 98.7846L0.590583 98.7846C0.241337 98.7846 0.0668656 98.6215 0.0671651 98.2953C0.0633571 98.2275 0.0733249 98.1596 0.0964706 98.0957C0.119615 98.0318 0.155458 97.9733 0.201835 97.9236C0.291615 97.8339 0.421348 97.789 0.590135 97.789L2.2605 97.789L2.14244 97.9919C1.45562 97.7776 0.931899 97.4061 0.571281 96.8773C0.210663 96.3485 0.0314024 95.7409 0.0334967 95.0547Z" fill="#FFF0D9"/>
<path d="M0.0335596 104.627C0.0335597 103.895 0.205189 103.256 0.548449 102.711C0.891709 102.165 1.38131 101.743 2.01726 101.444C2.6529 101.145 3.40406 100.995 4.27074 100.995C5.13742 100.995 5.88559 101.142 6.51525 101.434C7.14551 101.727 7.63512 102.146 7.98406 102.691C8.33301 103.236 8.50748 103.881 8.50748 104.624C8.50748 105.389 8.31056 106.042 7.91673 106.583C7.53042 107.117 6.96891 107.5 6.32986 107.663L6.32986 107.477L11.6484 107.477C11.828 107.477 11.9603 107.522 12.0453 107.612C12.1303 107.702 12.1725 107.825 12.1719 107.983C12.1719 108.152 12.1297 108.281 12.0453 108.371C11.9609 108.461 11.8285 108.506 11.6484 108.506L0.590645 108.506C0.421858 108.506 0.292126 108.461 0.202346 108.371C0.156047 108.322 0.12025 108.263 0.0971085 108.2C0.0739667 108.136 0.063955 108.068 0.0676753 108C0.0676753 107.831 0.112566 107.702 0.202346 107.612C0.292126 107.522 0.421859 107.477 0.590646 107.477L2.32969 107.477L2.21118 107.663C1.57207 107.5 1.01051 107.117 0.624314 106.583C0.230178 106.044 0.0332602 105.392 0.0335596 104.627ZM0.894553 104.761C0.894553 105.324 1.02683 105.811 1.29138 106.222C1.55593 106.632 1.94139 106.948 2.44775 107.167C2.95412 107.386 3.56178 107.496 4.27074 107.496C5.34003 107.496 6.16736 107.251 6.75272 106.762C7.33809 106.273 7.63063 105.606 7.63033 104.761C7.63033 104.21 7.4982 103.729 7.23395 103.318C6.96969 102.908 6.58693 102.592 6.08566 102.372C5.58468 102.153 4.97971 102.044 4.27074 102.043C3.19039 102.043 2.35752 102.291 1.77216 102.786C1.18679 103.281 0.894254 103.94 0.894553 104.762L0.894553 104.761Z" fill="#FFF0D9"/>
<path d="M10.4664 111.734C10.4664 111.497 10.5283 111.315 10.6522 111.185C10.7761 111.056 10.9506 110.991 11.1757 110.991C11.4007 110.991 11.5723 111.056 11.6906 111.185C11.8088 111.315 11.8686 111.498 11.8701 111.734C11.8701 111.97 11.8103 112.153 11.6906 112.282C11.5708 112.412 11.3992 112.477 11.1757 112.477C10.9503 112.477 10.7758 112.412 10.6522 112.282C10.5286 112.153 10.4667 111.97 10.4664 111.734ZM0.100804 111.734C0.100804 111.565 0.151529 111.436 0.252981 111.346C0.354433 111.256 0.489103 111.211 0.656993 111.211L7.88432 111.211C8.06388 111.211 8.19855 111.256 8.28833 111.346C8.37811 111.435 8.423 111.565 8.423 111.734C8.42677 111.802 8.41678 111.869 8.39364 111.933C8.37049 111.997 8.33467 112.056 8.28833 112.105C8.19855 112.195 8.06388 112.24 7.88432 112.24L0.656993 112.24C0.488206 112.24 0.353536 112.198 0.252981 112.113C0.152428 112.029 0.101702 111.902 0.100804 111.734Z" fill="#FFF0D9"/>
<path d="M0.0336474 118.216C0.0336474 117.451 0.208119 116.787 0.557066 116.224C0.906012 115.662 1.39562 115.226 2.02587 114.916C2.65434 114.606 3.40251 114.451 4.27038 114.452C4.91172 114.452 5.4914 114.539 6.00943 114.713C6.50312 114.874 6.95952 115.132 7.35165 115.473C7.7261 115.802 8.02057 116.212 8.21264 116.672C8.41388 117.162 8.51434 117.687 8.50802 118.216C8.50802 118.995 8.33355 119.664 7.9846 120.225C7.63565 120.786 7.14321 121.222 6.50726 121.533C5.87162 121.843 5.12599 121.998 4.27038 121.998C3.61768 121.998 3.03246 121.911 2.51473 121.736C2.02381 121.576 1.57074 121.318 1.18328 120.976C0.814079 120.648 0.52271 120.241 0.330371 119.786C0.132854 119.325 0.0339468 118.801 0.0336474 118.216ZM0.894641 118.216C0.894641 118.779 1.02692 119.266 1.29147 119.677C1.55602 120.088 1.94148 120.403 2.44784 120.622C2.9542 120.842 3.56187 120.951 4.27083 120.951C5.34012 120.951 6.16744 120.706 6.75281 120.217C7.33818 119.727 7.63072 119.06 7.63042 118.216C7.63042 117.665 7.49829 117.184 7.23404 116.773C6.96978 116.362 6.58702 116.047 6.08574 115.827C5.58477 115.608 4.9798 115.498 4.27083 115.498C3.19048 115.498 2.35761 115.746 1.77224 116.241C1.18688 116.737 0.894342 117.395 0.894641 118.216Z" fill="#FFF0D9"/>
<path d="M4.10936 11.6439C4.09364 10.4768 4.49317 9.63777 5.11759 8.88272C5.60016 8.29914 5.96601 7.65991 5.85693 6.86266C5.77613 6.2728 5.46549 5.78843 5.0938 5.34088C4.4815 4.60513 4.09679 3.7796 4.1125 2.80548C4.12866 1.80173 4.54838 0.954657 5.18358 0.205888C5.40309 -0.0531284 5.79319 -0.0634532 6.05624 0.150673C6.18056 0.255219 6.26051 0.403084 6.27993 0.564348C6.29935 0.725612 6.25678 0.888232 6.16084 1.0193C6.07106 1.14724 5.97275 1.27068 5.88611 1.40131C5.16787 2.48496 5.25091 3.57086 6.10562 4.54632C6.59493 5.10431 6.96662 5.73187 7.10667 6.47256C7.31541 7.57327 7.03934 8.55726 6.37541 9.44564C6.16982 9.72081 5.95434 9.99105 5.77478 10.2828C5.29266 11.0662 5.28099 11.8661 5.76401 12.6539C5.94716 12.952 6.16802 13.2285 6.37451 13.5109C6.7884 14.0747 7.08109 14.6884 7.15426 15.3927C7.25795 16.3861 6.9747 17.2687 6.38304 18.0614C6.20348 18.3007 6.00731 18.5269 5.83853 18.7725C5.29221 19.5679 5.25495 20.3993 5.707 21.2473C5.84018 21.4802 5.98708 21.7051 6.14692 21.9206C6.35387 22.2165 6.3193 22.594 6.05714 22.8068C5.99239 22.8613 5.91742 22.9023 5.83662 22.9274C5.75582 22.9526 5.67081 22.9614 5.58657 22.9533C5.50234 22.9452 5.42056 22.9203 5.34605 22.8802C5.27153 22.8401 5.20576 22.7855 5.1526 22.7197C3.8445 21.1292 3.71612 19.2914 5.06641 17.6502C5.17999 17.5115 5.29087 17.3715 5.39321 17.2233C6.03694 16.277 6.04233 15.3981 5.40174 14.4495C5.22622 14.1896 5.01704 13.9531 4.83388 13.6985C4.3356 13.0086 4.10891 12.2993 4.10936 11.6439Z" fill="#FFF0D9"/>
<path d="M3.83166 16.142C4.01312 16.085 4.16841 15.9654 4.26979 15.8045C4.31199 15.7339 4.33418 15.6532 4.33398 15.571C4.33398 15.4112 4.25183 15.2667 4.18001 15.1585C4.09921 15.0364 4.01526 14.9129 3.93446 14.794C3.66781 14.4003 3.39174 13.9927 3.17133 13.5721C2.82028 12.905 2.64207 12.2254 2.64207 11.552C2.64207 10.8787 2.82163 10.1981 3.17222 9.53195C3.39668 9.10953 3.67095 8.70058 3.9376 8.30465C4.01706 8.18659 4.09966 8.06404 4.17956 7.94283C4.26922 7.81711 4.31953 7.66759 4.32411 7.51324C4.3241 7.42623 4.30348 7.34047 4.26391 7.26299C4.22435 7.1855 4.16698 7.1185 4.09651 7.06748C4.03558 7.01976 3.96566 6.9848 3.89093 6.96468C3.8162 6.94455 3.73818 6.93966 3.66153 6.95031C3.57639 6.9647 3.49497 6.99594 3.42205 7.04219C3.34914 7.08844 3.28618 7.14877 3.23687 7.21965L3.13676 7.35432C2.90154 7.67394 2.65823 8.00433 2.44859 8.35223C1.82013 9.39369 1.47762 10.4486 1.45338 11.4048L1.45338 11.4102C1.45652 12.1832 1.59119 12.8655 1.88881 13.6223C2.17791 14.3567 2.60706 15.0826 3.19512 15.8404C3.2858 15.9598 3.50082 16.2363 3.83166 16.142Z" fill="#FFF0D9"/>
</svg>
