<svg width="249" height="26" viewBox="0 0 249 26" fill="none" xmlns="http://www.w3.org/2000/svg">
<path d="M56.9685 25.3272C56.2808 25.3272 55.7535 25.1382 55.3865 24.7603C55.0196 24.3823 54.8367 23.8376 54.8379 23.1262V10.128C54.8379 9.41786 55.0208 8.87897 55.3865 8.51138C55.7523 8.14379 56.268 7.96091 56.9337 7.96274C57.5982 7.96274 58.1142 8.14562 58.4818 8.51138C58.8494 8.87714 59.0323 9.41603 59.0304 10.128V12.6381L58.6528 11.6066C59.0739 10.5073 59.8167 9.56051 60.7842 8.88994C61.7468 8.22548 62.8932 7.89294 64.2233 7.89233C65.5754 7.89233 66.6873 8.21329 67.559 8.8552C68.4308 9.4971 69.0382 10.4828 69.3814 11.8124H68.9005C69.3282 10.636 70.1242 9.62903 71.17 8.94115C72.2246 8.24255 73.4395 7.89294 74.8148 7.89233C76.0986 7.89233 77.159 8.1444 77.996 8.64854C78.833 9.15268 79.4578 9.91468 79.8705 10.9345C80.2826 11.955 80.4889 13.2446 80.4895 14.8034V23.1244C80.4895 23.8358 80.3003 24.3805 79.9217 24.7584C79.5431 25.1364 79.0101 25.3254 78.3224 25.3254C77.6348 25.3254 77.1075 25.1364 76.7405 24.7584C76.3735 24.3805 76.1907 23.8358 76.1919 23.1244V14.9762C76.1919 13.6924 75.9785 12.7524 75.5518 12.1562C75.1251 11.56 74.4085 11.2622 73.402 11.2628C72.2792 11.2628 71.3952 11.659 70.7503 12.4515C70.1053 13.244 69.7844 14.3388 69.7874 15.7361V23.129C69.7874 23.8404 69.6045 24.385 69.2388 24.763C68.873 25.141 68.3457 25.3299 67.6569 25.3299C66.9692 25.3299 66.4361 25.141 66.0576 24.763C65.679 24.385 65.4901 23.8404 65.4907 23.129V14.9762C65.4907 13.6924 65.2773 12.7524 64.8506 12.1562C64.4239 11.56 63.7189 11.2622 62.7356 11.2628C61.6121 11.2628 60.7282 11.659 60.0838 12.4515C59.4395 13.244 59.1185 14.3388 59.121 15.7361V23.129C59.1283 24.5944 58.4108 25.3272 56.9685 25.3272Z" fill="#FFF0D9"/>
<path d="M90.46 25.3958C89.2451 25.3958 88.1618 25.1608 87.2102 24.6908C86.3086 24.2647 85.5369 23.6059 84.9745 22.7824C84.4358 21.9798 84.1542 21.0323 84.1671 20.0657C84.1671 18.8276 84.4881 17.8477 85.13 17.1259C85.7719 16.4042 86.8149 15.8827 88.259 15.5614C89.7026 15.2408 91.6399 15.0801 94.071 15.0795H95.79V17.5557H94.1048C92.6826 17.5557 91.5478 17.6246 90.7005 17.7624C89.8532 17.9001 89.2515 18.1348 88.8955 18.4665C88.5401 18.7993 88.3624 19.2638 88.3624 19.86C88.3624 20.6159 88.626 21.2346 89.1533 21.7162C89.6806 22.1978 90.4143 22.4386 91.3543 22.4386C92.0614 22.4518 92.7582 22.2672 93.366 21.9055C93.9513 21.5494 94.4318 21.0446 94.7586 20.4425C95.1112 19.7879 95.2889 19.0534 95.2743 18.3101V14.3571C95.2743 13.2117 95.0219 12.3866 94.5172 11.8819C94.0124 11.3771 93.1642 11.1247 91.9724 11.1247C91.2498 11.1313 90.5298 11.2118 89.8236 11.3652C88.9874 11.5483 88.1743 11.8243 87.3995 12.1882C86.9636 12.3948 86.5796 12.4521 86.2474 12.3601C85.9264 12.2772 85.6495 12.0743 85.4738 11.7932C85.292 11.5112 85.1967 11.1822 85.1995 10.8468C85.2024 10.4908 85.2968 10.1416 85.4738 9.8327C85.6567 9.50107 85.966 9.25449 86.4019 9.09295C87.3821 8.68281 88.4018 8.37427 89.445 8.17215C90.3232 7.99898 91.2155 7.90715 92.1105 7.89783C93.7607 7.89783 95.1189 8.1499 96.1851 8.65404C97.2163 9.12548 98.0584 9.93087 98.5753 10.94C99.1026 11.9605 99.3663 13.273 99.3663 14.8774V23.1308C99.3663 23.8422 99.1943 24.3869 98.8505 24.7648C98.5067 25.1428 98.0139 25.3318 97.3719 25.3318C96.73 25.3318 96.2314 25.1428 95.876 24.7648C95.5206 24.3869 95.3429 23.8422 95.3429 23.1308V21.4757H95.6172C95.4817 22.2275 95.1633 22.9344 94.6902 23.5341C94.2171 24.1338 93.6037 24.608 92.9042 24.9148C92.191 25.2361 91.3762 25.3964 90.46 25.3958Z" fill="#FFF0D9"/>
<path d="M105.866 25.3272C105.178 25.3272 104.651 25.1382 104.284 24.7603C103.917 24.3823 103.734 23.8376 103.735 23.1262V10.128C103.735 9.41786 103.918 8.87898 104.284 8.51139C104.65 8.1438 105.166 7.96092 105.831 7.96275C106.496 7.96275 107.012 8.14563 107.379 8.51139C107.746 8.87715 107.929 9.41603 107.928 10.128V12.4698L107.55 11.6103C108.054 10.3947 108.84 9.47181 109.906 8.84149C110.972 8.21116 112.181 7.896 113.533 7.896C114.886 7.896 115.998 8.14807 116.869 8.6522C117.74 9.15634 118.394 9.91834 118.829 10.9382C119.265 11.9587 119.483 13.2483 119.483 14.807V23.1281C119.483 23.8395 119.3 24.3841 118.935 24.7621C118.569 25.14 118.042 25.329 117.353 25.329C116.665 25.329 116.132 25.14 115.753 24.7621C115.375 24.3841 115.186 23.8395 115.186 23.1281V15.0109C115.186 13.7046 114.94 12.753 114.447 12.1562C113.954 11.5594 113.192 11.2616 112.161 11.2628C110.9 11.2628 109.897 11.6591 109.151 12.4515C108.406 13.244 108.033 14.2928 108.034 15.598V23.129C108.033 24.5944 107.31 25.3272 105.866 25.3272Z" fill="#FFF0D9"/>
<path d="M130.007 25.3959C128.957 25.39 127.909 25.2865 126.878 25.0869C125.839 24.9029 124.839 24.5423 123.921 24.0207C123.591 23.8312 123.322 23.5505 123.146 23.2124C123.002 22.9257 122.942 22.6037 122.975 22.2842C123.004 21.9861 123.124 21.7041 123.318 21.4759C123.514 21.2465 123.78 21.0891 124.076 21.0288C124.385 20.9605 124.723 21.0178 125.09 21.2007C125.911 21.6043 126.777 21.9111 127.669 22.1151C128.45 22.2849 129.247 22.3713 130.047 22.3729C131.144 22.3729 131.963 22.1837 132.505 21.8051C133.047 21.4265 133.316 20.9279 133.313 20.3091C133.313 19.7824 133.135 19.3755 132.781 19.0884C132.426 18.8013 131.893 18.5895 131.181 18.4529L127.742 17.7991C126.32 17.5242 125.237 17.0027 124.492 16.2346C123.748 15.4665 123.376 14.475 123.375 13.26C123.375 12.1591 123.68 11.2075 124.289 10.4053C124.899 9.60304 125.742 8.9843 126.817 8.54904C127.894 8.11379 129.132 7.89586 130.53 7.89525C131.485 7.8893 132.437 7.99891 133.365 8.22169C134.259 8.44543 135.12 8.78673 135.925 9.23667C136.224 9.37727 136.466 9.61612 136.61 9.91334C136.753 10.2106 136.791 10.5482 136.716 10.8698C136.649 11.1741 136.507 11.4569 136.303 11.6927C136.106 11.9283 135.832 12.0866 135.529 12.1399C135.22 12.1966 134.87 12.1344 134.48 11.9506C133.832 11.6074 133.145 11.3419 132.434 11.1597C131.821 11.0046 131.192 10.9238 130.56 10.9192C129.437 10.9192 128.606 11.1139 128.067 11.5035C127.528 11.893 127.259 12.4087 127.259 13.0506C127.253 13.2734 127.293 13.4952 127.375 13.7021C127.458 13.9091 127.582 14.0969 127.74 14.254C128.062 14.5758 128.555 14.7938 129.219 14.9078L132.658 15.5616C134.147 15.8359 135.275 16.34 136.041 17.074C136.808 17.8079 137.192 18.794 137.193 20.0321C137.193 21.7054 136.54 23.0179 135.234 23.9695C133.928 24.9211 132.185 25.3965 130.007 25.3959Z" fill="#FFF0D9"/>
<path d="M146.169 25.3958C144.954 25.3958 143.87 25.1608 142.919 24.6908C142.018 24.2644 141.246 23.6057 140.684 22.7824C140.145 21.9799 139.863 21.0324 139.876 20.0657C139.876 18.8276 140.197 17.8477 140.838 17.1259C141.48 16.4042 142.523 15.8827 143.968 15.5614C145.412 15.2408 147.35 15.0801 149.779 15.0795H151.499V17.5557H149.814C148.393 17.5557 147.258 17.6246 146.41 17.7624C145.562 17.9001 144.96 18.1348 144.604 18.4665C144.248 18.7993 144.07 19.2638 144.071 19.86C144.071 20.6159 144.335 21.2346 144.862 21.7162C145.389 22.1978 146.123 22.4386 147.063 22.4386C147.77 22.4521 148.467 22.2674 149.074 21.9055C149.66 21.5497 150.141 21.0448 150.467 20.4425C150.82 19.7879 150.997 19.0534 150.983 18.3101V14.3571C150.983 13.2117 150.731 12.3866 150.227 11.8819C149.722 11.3771 148.874 11.1247 147.682 11.1247C146.959 11.1312 146.239 11.2118 145.533 11.3652C144.697 11.5483 143.883 11.8243 143.108 12.1882C142.673 12.3948 142.289 12.4521 141.956 12.3601C141.635 12.2767 141.358 12.0739 141.182 11.7932C141.001 11.5112 140.905 11.1822 140.908 10.8468C140.911 10.4908 141.005 10.1416 141.182 9.8327C141.365 9.50107 141.675 9.25449 142.111 9.09295C143.092 8.68281 144.111 8.37427 145.154 8.17215C146.033 7.99893 146.925 7.90711 147.82 7.89783C149.47 7.89783 150.828 8.1499 151.894 8.65404C152.926 9.12548 153.768 9.93087 154.285 10.94C154.811 11.9605 155.075 13.273 155.076 14.8774V23.1308C155.076 23.8422 154.904 24.3869 154.56 24.7648C154.216 25.1428 153.723 25.3318 153.08 25.3318C152.439 25.3318 151.94 25.1428 151.585 24.7648C151.231 24.3869 151.053 23.8422 151.052 23.1308V21.4757H151.327C151.19 22.2277 150.871 22.9346 150.397 23.5343C149.924 24.134 149.31 24.608 148.61 24.9148C147.899 25.2361 147.085 25.3964 146.169 25.3958Z" fill="#FFF0D9"/>
<path d="M165.391 25.3273C164.351 25.3264 163.316 25.1877 162.313 24.9149C161.266 24.6269 160.281 24.1489 159.407 23.5049C159.237 23.4102 159.107 23.2576 159.041 23.0751C158.984 22.9033 158.972 22.7197 159.007 22.542C159.037 22.3661 159.121 22.2038 159.248 22.0775C159.372 21.9523 159.536 21.8736 159.712 21.8544C159.921 21.8385 160.129 21.8996 160.296 22.0263C161.191 22.6225 162.062 23.0352 162.91 23.2644C163.739 23.4912 164.595 23.6068 165.455 23.6082C166.852 23.6082 167.919 23.3446 168.655 22.8173C169.391 22.29 169.757 21.5792 169.752 20.6849C169.752 19.9534 169.517 19.3861 169.047 18.9832C168.577 18.5802 167.815 18.2535 166.761 18.003L163.774 17.3162C162.33 16.995 161.264 16.4732 160.574 15.7508C159.883 15.0284 159.54 14.0942 159.542 12.9482C159.542 11.9636 159.8 11.1041 160.316 10.3695C160.831 9.63498 161.565 9.06744 162.517 8.66694C163.468 8.26643 164.562 8.06587 165.8 8.06526C166.781 8.06134 167.755 8.21224 168.689 8.5124C169.579 8.79412 170.4 9.26161 171.096 9.884C171.265 10.0022 171.391 10.171 171.458 10.3659C171.514 10.5391 171.514 10.7258 171.458 10.899C171.403 11.0672 171.301 11.2163 171.165 11.3288C171.031 11.4425 170.86 11.5036 170.684 11.5007C170.473 11.4915 170.269 11.4195 170.099 11.294C168.859 10.3365 167.336 9.81744 165.769 9.81816C164.439 9.81816 163.413 10.0925 162.691 10.6411C161.969 11.1898 161.608 11.9347 161.608 12.8759C161.608 13.5873 161.831 14.1606 162.278 14.5959C162.725 15.0312 163.43 15.3634 164.393 15.5926L167.385 16.2802C168.875 16.624 169.987 17.1343 170.721 17.8109C171.454 18.4876 171.82 19.3989 171.818 20.545C171.818 22.0117 171.239 23.1751 170.081 24.0352C168.922 24.8954 167.359 25.3261 165.391 25.3273Z" fill="#FFF0D9"/>
<path d="M182.516 25.3273C181.278 25.3273 180.246 25.0981 179.421 24.6396C178.608 24.1941 177.958 23.5018 177.564 22.6627C177.151 21.802 176.945 20.7416 176.945 19.4815V10.0632H174.4C174.141 10.0758 173.886 9.99678 173.679 9.8401C173.586 9.76237 173.513 9.66394 173.465 9.55276C173.418 9.44157 173.397 9.32074 173.404 9.20002C173.4 9.08523 173.422 8.97095 173.47 8.86642C173.517 8.76189 173.589 8.67005 173.679 8.59834C173.886 8.44167 174.141 8.36269 174.4 8.37523H176.945V4.07756C176.945 3.7118 177.036 3.44235 177.219 3.26923C177.402 3.0961 177.666 3.01015 178.01 3.01137C178.331 3.01137 178.583 3.09732 178.767 3.26923C178.95 3.44113 179.042 3.71088 179.042 4.07756V8.37523H183.684C184.004 8.37523 184.245 8.4493 184.405 8.59834C184.486 8.67564 184.55 8.76931 184.591 8.87308C184.633 8.97685 184.652 9.08832 184.647 9.20002C184.655 9.31775 184.637 9.43577 184.595 9.54617C184.554 9.65657 184.489 9.75678 184.405 9.8401C184.245 9.98915 184.004 10.0632 183.684 10.0632H179.042V19.2072C179.042 20.6062 179.328 21.673 179.901 22.4076C180.474 23.1422 181.425 23.5079 182.755 23.5049C183.145 23.5147 183.534 23.4625 183.907 23.3503C184.155 23.2587 184.416 23.2063 184.681 23.1949C184.763 23.1965 184.844 23.2158 184.918 23.2514C184.992 23.2871 185.058 23.3383 185.11 23.4016C185.237 23.5393 185.3 23.7573 185.3 24.0553C185.298 24.2445 185.257 24.4313 185.18 24.604C185.143 24.6927 185.084 24.7706 185.008 24.8306C184.933 24.8907 184.844 24.931 184.749 24.9478C184.027 25.1815 183.274 25.3091 182.514 25.3264L182.516 25.3273Z" fill="#FFF0D9"/>
<path d="M193.625 25.3271C192.296 25.3271 191.19 25.0863 190.307 24.6047C189.424 24.1236 188.727 23.3602 188.329 22.4366C187.894 21.4741 187.676 20.282 187.676 18.8604V9.23363C187.676 8.86787 187.768 8.59355 187.95 8.41067C188.133 8.22779 188.398 8.13635 188.741 8.13635C188.879 8.12877 189.018 8.14916 189.148 8.1963C189.277 8.24344 189.397 8.31636 189.498 8.41067C189.68 8.59355 189.772 8.86787 189.772 9.23363V18.7589C189.772 20.3634 190.104 21.5613 190.769 22.3525C191.433 23.1438 192.476 23.54 193.899 23.5412C195.457 23.5412 196.718 23.0194 197.681 21.9758C198.645 20.9321 199.127 19.5618 199.127 17.8646V9.23363C199.127 8.86787 199.219 8.59355 199.401 8.41067C199.584 8.22779 199.849 8.13635 200.192 8.13635C200.33 8.12866 200.469 8.14901 200.599 8.19615C200.729 8.2433 200.848 8.31627 200.949 8.41067C201.132 8.59355 201.223 8.86787 201.223 9.23363V24.1923C201.223 24.9037 200.891 25.2591 200.226 25.2585C200.088 25.2662 199.95 25.2459 199.82 25.1988C199.69 25.1516 199.57 25.0786 199.469 24.9842C199.286 24.8013 199.195 24.537 199.195 24.1932V20.7907L199.608 21.0312C199.172 22.4302 198.415 23.497 197.338 24.2316C196.261 24.9662 195.023 25.3313 193.625 25.3271Z" fill="#FFF0D9"/>
<path d="M213.123 25.3273C211.633 25.3273 210.332 24.9777 209.22 24.2785C208.109 23.5793 207.249 22.582 206.641 21.2866C206.031 19.9918 205.727 18.4617 205.727 16.6963C205.727 14.9309 206.024 13.4069 206.62 12.1243C207.216 10.8405 208.07 9.84316 209.18 9.13237C210.291 8.42158 211.603 8.06618 213.118 8.06618C214.677 8.06618 216.007 8.4673 217.107 9.26953C218.196 10.0564 218.975 11.2002 219.308 12.5019H218.93V1.66813C218.93 1.30237 219.021 1.03293 219.204 0.859802C219.387 0.686676 219.639 0.600722 219.96 0.601941C220.304 0.601941 220.568 0.687895 220.751 0.859802C220.934 1.03171 221.025 1.30146 221.025 1.66813V24.1925C221.025 24.5363 220.934 24.8006 220.751 24.9835C220.65 25.0778 220.531 25.1507 220.401 25.1978C220.271 25.245 220.133 25.2654 219.995 25.2578C219.651 25.2578 219.387 25.1664 219.204 24.9835C219.021 24.8006 218.93 24.5363 218.93 24.1925V20.6501L219.308 20.8915C218.975 22.1934 218.196 23.3373 217.107 24.1239C216.01 24.9268 214.682 25.3279 213.123 25.3273ZM213.397 23.5735C214.543 23.5735 215.535 23.304 216.372 22.7651C217.209 22.2263 217.851 21.4411 218.298 20.4097C218.745 19.3782 218.968 18.1404 218.968 16.6963C218.968 14.5182 218.47 12.8329 217.473 11.6406C216.476 10.4482 215.118 9.85231 213.397 9.85292C212.274 9.85292 211.294 10.1221 210.458 10.6603C209.621 11.1986 208.979 11.9783 208.531 12.9994C208.085 14.0198 207.861 15.2521 207.861 16.6963C207.861 18.8969 208.365 20.5935 209.374 21.7858C210.383 22.9782 211.724 23.5741 213.398 23.5735H213.397Z" fill="#FFF0D9"/>
<path d="M227.6 4.07563C227.119 4.07563 226.746 3.94945 226.483 3.69707C226.22 3.4447 226.088 3.0893 226.087 2.63088C226.087 2.17247 226.219 1.82286 226.483 1.58207C226.747 1.34128 227.12 1.21936 227.6 1.21631C228.081 1.21631 228.454 1.33823 228.718 1.58207C228.982 1.82591 229.114 2.17551 229.114 2.63088C229.114 3.08991 228.982 3.44531 228.718 3.69707C228.454 3.94884 228.081 4.07502 227.6 4.07563ZM227.6 25.19C227.257 25.19 226.993 25.0867 226.81 24.88C226.626 24.6734 226.535 24.3991 226.535 24.0571V9.33526C226.535 8.9695 226.627 8.69518 226.81 8.5123C226.992 8.32942 227.257 8.23798 227.6 8.23798C227.739 8.2303 227.877 8.25064 228.007 8.29778C228.137 8.34493 228.256 8.4179 228.357 8.5123C228.54 8.69518 228.631 8.9695 228.631 9.33526V24.0571C228.631 24.4009 228.545 24.6752 228.373 24.88C228.201 25.0849 227.944 25.1882 227.6 25.19Z" fill="#FFF0D9"/>
<path d="M240.805 25.3272C239.245 25.3272 237.893 24.9718 236.747 24.261C235.602 23.5502 234.713 22.5529 234.082 21.2691C233.451 19.9889 233.136 18.4649 233.136 16.6971C233.136 15.3907 233.314 14.2099 233.669 13.1547C233.997 12.1491 234.523 11.2194 235.216 10.4206C235.887 9.65789 236.722 9.05807 237.659 8.66682C238.656 8.2569 239.727 8.05227 240.805 8.06515C242.39 8.06515 243.754 8.42054 244.897 9.13134C246.04 9.84213 246.928 10.8452 247.562 12.1406C248.193 13.4354 248.508 14.9542 248.508 16.6971C248.508 18.0266 248.33 19.2187 247.975 20.2733C247.649 21.2733 247.122 22.1962 246.427 22.9854C245.758 23.7375 244.93 24.331 244.003 24.7228C243.062 25.1251 241.996 25.3266 240.805 25.3272ZM240.805 23.5734C241.951 23.5734 242.942 23.3039 243.78 22.765C244.617 22.2261 245.259 21.441 245.705 20.4095C246.153 19.3781 246.376 18.1403 246.376 16.6962C246.376 14.5181 245.877 12.8328 244.88 11.6404C243.882 10.4481 242.524 9.85219 240.805 9.8528C239.682 9.8528 238.701 10.1219 237.864 10.6602C237.028 11.1985 236.386 11.9782 235.939 12.9992C235.491 14.0197 235.268 15.252 235.269 16.6962C235.269 18.8968 235.773 20.5933 236.782 21.7857C237.791 22.9781 239.132 23.574 240.805 23.5734Z" fill="#FFF0D9"/>
<path d="M23.7202 17.0246C21.3428 17.0566 19.6338 16.2428 18.0958 14.9709C16.907 13.9879 15.6049 13.2427 13.981 13.4649C12.7794 13.6295 11.7928 14.2622 10.8812 15.0194C9.38245 16.2666 7.70087 17.0502 5.71663 17.0182C3.67203 16.9853 1.94656 16.1304 0.421341 14.8365C-0.106268 14.3893 -0.127299 13.5947 0.30887 13.0589C0.521826 12.8057 0.823023 12.6428 1.15151 12.6032C1.48 12.5637 1.81125 12.6504 2.07823 12.8458C2.33884 13.0287 2.5903 13.229 2.85639 13.4054C5.06375 14.8685 7.27568 14.6993 9.26267 12.9583C10.3993 11.9616 11.6776 11.2045 13.1864 10.9192C15.4285 10.494 17.4328 11.0564 19.2424 12.4087C19.8029 12.8275 20.3534 13.2665 20.9478 13.6322C22.5434 14.6143 24.1729 14.6381 25.7776 13.6542C26.3848 13.2811 26.9481 12.8312 27.5232 12.4106C28.6717 11.5675 29.9217 10.9713 31.3564 10.8223C33.3799 10.611 35.1777 11.188 36.7925 12.3932C37.2799 12.759 37.7407 13.1586 38.2409 13.5024C39.8612 14.6152 41.5547 14.6911 43.282 13.7703C43.7565 13.499 44.2145 13.1998 44.6536 12.8742C45.2562 12.4526 46.0252 12.523 46.4586 13.0571C46.5696 13.1889 46.6532 13.3417 46.7044 13.5062C46.7557 13.6708 46.7735 13.844 46.757 14.0156C46.7405 14.1872 46.6899 14.3537 46.6082 14.5055C46.5265 14.6573 46.4153 14.7913 46.2812 14.8996C43.0415 17.5641 39.2979 17.8257 35.9549 15.0751C35.6723 14.8438 35.3871 14.6179 35.0853 14.4095C33.1577 13.0982 31.3674 13.0872 29.4352 14.3921C28.9058 14.7496 28.4239 15.1757 27.9054 15.5488C26.5 16.5638 25.0553 17.0255 23.7202 17.0246Z" fill="#FFF0D9"/>
<path d="M32.883 17.5906C32.767 17.221 32.5232 16.9046 32.1954 16.6981C32.0517 16.6122 31.8874 16.567 31.7199 16.5674C31.3944 16.5674 31.1 16.7347 30.8796 16.881C30.6309 17.0456 30.3794 17.2166 30.1371 17.3812C29.3352 17.9244 28.5049 18.4867 27.6481 18.9357C26.2893 19.6507 24.9049 20.0138 23.5333 20.0138C22.1617 20.0138 20.7755 19.648 19.4185 18.9339C18.5581 18.4767 17.725 17.918 16.9185 17.3748C16.6781 17.213 16.4284 17.0447 16.1815 16.8819C15.9254 16.6993 15.6209 16.5968 15.3065 16.5875C15.1292 16.5875 14.9546 16.6295 14.7967 16.7101C14.6389 16.7907 14.5024 16.9076 14.3985 17.0511C14.3013 17.1752 14.2301 17.3176 14.1891 17.4699C14.1481 17.6221 14.1381 17.781 14.1598 17.9372C14.1891 18.1106 14.2527 18.2764 14.347 18.425C14.4412 18.5735 14.5641 18.7017 14.7084 18.8022L14.9828 19.0061C15.6338 19.4852 16.3068 19.9808 17.0155 20.4079C19.1369 21.688 21.2857 22.3857 23.2334 22.4351H23.2444C24.819 22.4287 26.2088 22.1544 27.7505 21.5481C29.2465 20.9592 30.7251 20.0851 32.2686 18.8872C32.5118 18.7025 33.0751 18.2645 32.883 17.5906Z" fill="#FFF0D9"/>
</svg>
