<svg width="61" height="16" viewBox="0 0 61 16" fill="none" xmlns="http://www.w3.org/2000/svg">
<path d="M30.9342 8.14739C27.8837 8.18846 25.6908 7.14424 23.7174 5.5122C22.1921 4.25092 20.5214 3.29469 18.4376 3.5798C16.8959 3.79099 15.6299 4.6029 14.4602 5.57438C12.5372 7.17474 10.3795 8.18025 7.83346 8.13918C5.21 8.09694 2.99602 6.99992 1.03898 5.33973C0.361994 4.76599 0.335009 3.74641 0.894665 3.05886C1.16791 2.73395 1.55439 2.52498 1.97588 2.47422C2.39737 2.42347 2.8224 2.53473 3.16497 2.78549C3.49935 3.02014 3.82201 3.27709 4.16343 3.50354C6.99574 5.38079 9.83391 5.16373 12.3835 2.9298C13.8418 1.65092 15.4821 0.679443 17.418 0.313378C20.2949 -0.232199 22.8667 0.489372 25.1887 2.22466C25.9079 2.76202 26.6142 3.3252 27.3768 3.79451C29.4242 5.05462 31.515 5.08512 33.5741 3.82267C34.3532 3.34397 35.0759 2.76672 35.8139 2.22701C37.2876 1.14524 38.8915 0.380256 40.7323 0.18901C43.3288 -0.0820181 45.6355 0.658325 47.7075 2.20471C48.3329 2.67403 48.9242 3.18675 49.566 3.6279C51.645 5.05579 53.818 5.15317 56.0343 3.97168C56.6432 3.62358 57.2309 3.23963 57.7942 2.82186C58.5674 2.28098 59.5541 2.37132 60.1103 3.05652C60.2527 3.22574 60.3599 3.42169 60.4257 3.63288C60.4915 3.84407 60.5144 4.06625 60.4932 4.28642C60.472 4.50659 60.4071 4.72032 60.3022 4.91509C60.1974 5.10985 60.0548 5.28174 59.8827 5.42068C55.7257 8.83963 50.9223 9.17519 46.6328 5.64595C46.2702 5.34911 45.9042 5.05931 45.517 4.7918C43.0437 3.10931 40.7464 3.09523 38.2673 4.76951C37.5879 5.22826 36.9696 5.77501 36.3044 6.25371C34.501 7.55606 32.6472 8.14857 30.9342 8.14739Z" fill="url(#paint0_linear_829_2058)"/>
<path d="M42.6906 8.8737C42.5416 8.39942 42.2289 7.99354 41.8083 7.72858C41.6239 7.61827 41.413 7.56027 41.1982 7.56079C40.7805 7.56079 40.4027 7.77551 40.1199 7.96323C39.8008 8.17442 39.4781 8.39383 39.1672 8.60502C38.1383 9.30195 37.0729 10.0235 35.9736 10.5996C34.2301 11.5171 32.4537 11.9829 30.6938 11.9829C28.9338 11.9829 27.1552 11.5136 25.414 10.5973C24.3099 10.0106 23.2411 9.29373 22.2062 8.5968C21.8977 8.38913 21.5774 8.17325 21.2606 7.9644C20.932 7.73007 20.5412 7.59858 20.1377 7.58661C19.9103 7.58661 19.6862 7.64053 19.4837 7.74393C19.2812 7.84734 19.106 7.99728 18.9727 8.18146C18.848 8.34073 18.7566 8.52347 18.704 8.71879C18.6514 8.91411 18.6386 9.11802 18.6664 9.31837C18.7041 9.5409 18.7857 9.75369 18.9066 9.94428C19.0275 10.1349 19.1851 10.2994 19.3704 10.4283L19.7224 10.6899C20.5578 11.3047 21.4213 11.9407 22.3306 12.4886C25.0526 14.1312 27.8098 15.0264 30.3089 15.0898H30.323C32.3434 15.0815 34.1268 14.7296 36.105 13.9517C38.0245 13.1961 39.9216 12.0744 41.9022 10.5374C42.2142 10.3004 42.937 9.73841 42.6906 8.8737Z" fill="url(#paint1_linear_829_2058)"/>
<defs>
<linearGradient id="paint0_linear_829_2058" x1="-46.9555" y1="-12.4241" x2="55.9562" y2="75.9269" gradientUnits="userSpaceOnUse">
<stop stop-color="#9CCDA0"/>
<stop offset="0.25" stop-color="#5AA495"/>
<stop offset="0.51" stop-color="#54A7B7"/>
<stop offset="0.76" stop-color="#6E658E"/>
<stop offset="1" stop-color="#CC658E"/>
</linearGradient>
<linearGradient id="paint1_linear_829_2058" x1="-0.400676" y1="-4.23652" x2="62.8535" y2="18.9717" gradientUnits="userSpaceOnUse">
<stop stop-color="#9CCDA0"/>
<stop offset="0.25" stop-color="#5AA495"/>
<stop offset="0.51" stop-color="#54A7B7"/>
<stop offset="0.76" stop-color="#6E658E"/>
<stop offset="1" stop-color="#CC658E"/>
</linearGradient>
</defs>
</svg>
