<svg width="64" height="17" viewBox="0 0 64 17" fill="none" xmlns="http://www.w3.org/2000/svg">
<path d="M32.5775 9.28174C29.4026 9.32448 27.1203 8.23768 25.0664 6.5391C23.4789 5.22639 21.74 4.23118 19.5713 4.52791C17.9668 4.74771 16.6492 5.59273 15.4317 6.60382C13.4303 8.26943 11.1846 9.31593 8.53481 9.27319C5.80438 9.22923 3.50012 8.08748 1.46329 6.35959C0.758707 5.76247 0.730621 4.70131 1.3131 3.98573C1.59749 3.64758 1.99972 3.43008 2.43839 3.37726C2.87707 3.32444 3.31943 3.44023 3.67597 3.70121C4.02399 3.94544 4.35979 4.21286 4.71514 4.44854C7.66293 6.40233 10.6168 6.17642 13.2703 3.85141C14.7882 2.52039 16.4953 1.5093 18.5102 1.12831C21.5043 0.560486 24.181 1.31148 26.5976 3.11752C27.3462 3.67679 28.0813 4.26293 28.875 4.75138C31.0059 6.06286 33.1819 6.09461 35.325 4.78068C36.1358 4.28247 36.888 3.68167 37.6561 3.11996C39.1898 1.99408 40.8591 1.19791 42.7751 0.998869C45.4774 0.71679 47.8781 1.48732 50.0346 3.09676C50.6855 3.58521 51.3009 4.11883 51.9689 4.57798C54.1327 6.06408 56.3942 6.16543 58.7009 4.93577C59.3346 4.57347 59.9463 4.17387 60.5326 3.73907C61.3373 3.17613 62.3643 3.27016 62.9431 3.98329C63.0913 4.15942 63.2029 4.36335 63.2714 4.58315C63.3398 4.80295 63.3637 5.0342 63.3416 5.26334C63.3196 5.49249 63.252 5.71493 63.1429 5.91764C63.0338 6.12035 62.8853 6.29924 62.7062 6.44385C58.3798 10.0022 53.3805 10.3514 48.9161 6.67831C48.5388 6.36936 48.1578 6.06775 47.7548 5.78933C45.1807 4.03824 42.7897 4.02359 40.2095 5.76613C39.5025 6.24359 38.8589 6.81263 38.1665 7.31085C36.2897 8.66629 34.3603 9.28296 32.5775 9.28174Z" fill="url(#paint0_linear_1002_1110)"/>
<path d="M44.8134 10.0376C44.6584 9.54396 44.3329 9.12154 43.8952 8.84577C43.7033 8.73097 43.4838 8.6706 43.2602 8.67115C42.8255 8.67115 42.4323 8.89461 42.138 9.08999C41.8058 9.30979 41.47 9.53814 41.1464 9.75795C40.0755 10.4833 38.9667 11.2343 37.8225 11.8339C36.0079 12.7888 34.1592 13.2736 32.3275 13.2736C30.4958 13.2736 28.6446 12.7851 26.8324 11.8314C25.6834 11.2208 24.5709 10.4747 23.4939 9.7494C23.1727 9.53326 22.8394 9.30857 22.5097 9.09121C22.1676 8.84732 21.7609 8.71047 21.341 8.69801C21.1044 8.69802 20.8711 8.75413 20.6603 8.86175C20.4495 8.96937 20.2673 9.12543 20.1285 9.31712C19.9987 9.48289 19.9036 9.67307 19.8488 9.87635C19.7941 10.0796 19.7808 10.2919 19.8098 10.5004C19.8489 10.732 19.9339 10.9535 20.0597 11.1518C20.1855 11.3502 20.3496 11.5214 20.5424 11.6556L20.9088 11.9279C21.7782 12.5677 22.677 13.2296 23.6233 13.7999C26.4563 15.5094 29.326 16.4411 31.9269 16.5071H31.9416C34.0444 16.4985 35.9005 16.1322 37.9593 15.3226C39.957 14.5362 41.9316 13.3688 43.9928 11.7691C44.3177 11.5225 45.0699 10.9375 44.8134 10.0376Z" fill="url(#paint1_linear_1002_1110)"/>
<defs>
<linearGradient id="paint0_linear_1002_1110" x1="2.99466" y1="-6.27549" x2="64.8151" y2="18.5912" gradientUnits="userSpaceOnUse">
<stop stop-color="#9CCDA0"/>
<stop offset="0.25" stop-color="#5AA495"/>
<stop offset="0.51" stop-color="#54A7B7"/>
<stop offset="0.76" stop-color="#6E658E"/>
<stop offset="1" stop-color="#CC658E"/>
</linearGradient>
<linearGradient id="paint1_linear_1002_1110" x1="20.6345" y1="1.89126" x2="48.6422" y2="6.70597" gradientUnits="userSpaceOnUse">
<stop stop-color="#9CCDA0"/>
<stop offset="0.25" stop-color="#5AA495"/>
<stop offset="0.51" stop-color="#54A7B7"/>
<stop offset="0.76" stop-color="#6E658E"/>
<stop offset="1" stop-color="#CC658E"/>
</linearGradient>
</defs>
</svg>
