<svg width="177" height="17" viewBox="0 0 177 17" fill="none" xmlns="http://www.w3.org/2000/svg">
<g clip-path="url(#clip0_466_9)">
<path d="M40.246 16.9509C39.2651 16.9509 38.7729 16.4485 38.7729 15.4436V6.53181C38.7729 5.54085 39.2546 5.04536 40.2213 5.04536C41.1881 5.04536 41.6697 5.54085 41.6697 6.53181V7.00287C42.0178 6.37479 42.4994 5.8828 43.1181 5.53038C43.7369 5.17796 44.447 5 45.2556 5C46.9993 5 48.1383 5.75369 48.6762 7.26457C49.0418 6.55624 49.5621 6.00144 50.2441 5.60365C50.9261 5.20238 51.6996 5.00349 52.5714 5.00349C55.1834 5.00349 56.4912 6.58415 56.4912 9.74199V15.447C56.4912 16.452 55.992 16.9544 54.9936 16.9544C54.0128 16.9544 53.5206 16.452 53.5206 15.447V9.85365C53.5206 8.97434 53.373 8.32882 53.0812 7.92057C52.7894 7.51232 52.2937 7.30645 51.5976 7.30645C50.8207 7.30645 50.2125 7.57861 49.7695 8.11946C49.3266 8.6603 49.1051 9.414 49.1051 10.3701V15.4401C49.1051 16.445 48.6129 16.9475 47.6321 16.9475C46.6337 16.9475 46.1345 16.445 46.1345 15.4401V9.85365C46.1345 8.97434 45.9868 8.32882 45.695 7.92057C45.4032 7.51232 44.9146 7.30645 44.2326 7.30645C43.4556 7.30645 42.8475 7.57861 42.4045 8.11946C41.9615 8.6603 41.7401 9.414 41.7401 10.3701V15.4401C41.7436 16.4485 41.2444 16.9509 40.246 16.9509Z" fill="white"/>
<path d="M63.3853 16.9999C62.5451 16.9999 61.7963 16.8394 61.1389 16.5149C60.4815 16.1939 59.9682 15.7577 59.5956 15.2064C59.2229 14.6551 59.0366 14.0375 59.0366 13.3431C59.0366 12.4952 59.2581 11.8218 59.7011 11.3263C60.144 10.8308 60.8647 10.4749 61.8631 10.2516C62.8615 10.0318 64.1974 9.92009 65.8778 9.92009H66.711V9.42461C66.711 8.63951 66.5353 8.07424 66.1872 7.7288C65.8392 7.38335 65.2521 7.20889 64.4295 7.20889C63.9689 7.20889 63.4767 7.26471 62.9459 7.37288C62.4151 7.48105 61.8561 7.67297 61.2725 7.93816C60.8928 8.11262 60.5764 8.13007 60.3233 7.99747C60.0702 7.86488 59.8979 7.65203 59.8136 7.35893C59.7257 7.06931 59.7432 6.77272 59.8593 6.47613C59.9788 6.17953 60.2178 5.95622 60.5835 5.81664C61.3112 5.52005 62.0143 5.3072 62.6857 5.18159C63.3572 5.05597 63.9724 4.99316 64.5279 4.99316C66.2224 4.99316 67.4809 5.38397 68.3036 6.16209C69.1262 6.94021 69.5375 8.14752 69.5375 9.78052V15.4402C69.5375 16.4451 69.077 16.9476 68.1594 16.9476C67.2243 16.9476 66.7567 16.4451 66.7567 15.4402V14.9203C66.486 15.5658 66.0607 16.0718 65.4736 16.4416C64.89 16.815 64.1939 16.9999 63.3853 16.9999ZM64.0006 14.9726C64.7775 14.9726 65.4208 14.704 65.9376 14.1701C66.4509 13.6362 66.711 12.9593 66.711 12.1428V11.6229H65.9025C64.4119 11.6229 63.3818 11.738 62.8018 11.9648C62.2217 12.1916 61.9334 12.6069 61.9334 13.2035C61.9334 13.7235 62.1162 14.1457 62.4783 14.4772C62.8475 14.8051 63.3537 14.9726 64.0006 14.9726Z" fill="white"/>
<path d="M74.0267 16.951C73.0459 16.951 72.5537 16.4486 72.5537 15.4436V6.53189C72.5537 5.54092 73.0353 5.04543 74.0021 5.04543C74.9689 5.04543 75.4505 5.54092 75.4505 6.53189V7.02737C75.8442 6.36789 76.3821 5.86542 77.0536 5.51649C77.7251 5.17105 78.4844 4.99658 79.3211 4.99658C82.0597 4.99658 83.4308 6.57725 83.4308 9.73509V15.4401C83.4308 16.4451 82.9386 16.9475 81.9578 16.9475C80.9594 16.9475 80.4601 16.4451 80.4601 15.4401V9.87815C80.4601 8.98139 80.2914 8.32889 79.9504 7.92064C79.6094 7.51239 79.0821 7.30652 78.3719 7.30652C77.5001 7.30652 76.8075 7.57868 76.2942 8.11953C75.781 8.66038 75.5208 9.38267 75.5208 10.2759V15.4401C75.5243 16.4486 75.0251 16.951 74.0267 16.951Z" fill="white"/>
<path d="M90.7041 16.9999C90.0221 16.9999 89.3014 16.9301 88.5421 16.787C87.7827 16.6474 87.1007 16.4032 86.4996 16.0543C86.1656 15.8658 85.9617 15.6355 85.8808 15.3599C85.8 15.0842 85.814 14.826 85.916 14.5818C86.0179 14.3375 86.1937 14.1596 86.4398 14.0514C86.6859 13.9432 86.9742 13.9642 87.3081 14.1212C87.9409 14.4213 88.5351 14.6271 89.0905 14.7458C89.646 14.8644 90.1909 14.9237 90.7287 14.9237C91.4881 14.9237 92.0541 14.7946 92.4268 14.5329C92.7994 14.2747 92.9857 13.9327 92.9857 13.507C92.9857 12.8476 92.4936 12.4219 91.5127 12.2334L89.1362 11.7868C87.1253 11.41 86.1199 10.3736 86.1199 8.67433C86.1199 7.92064 86.3308 7.26813 86.7492 6.71682C87.1675 6.16551 87.7511 5.7433 88.4964 5.44322C89.2417 5.14662 90.096 4.99658 91.0627 4.99658C92.4549 4.99658 93.6994 5.30364 94.7927 5.91428C95.0915 6.0713 95.2708 6.28763 95.3271 6.56329C95.3833 6.83895 95.3517 7.09716 95.2322 7.34141C95.1126 7.58566 94.9263 7.75664 94.6732 7.86132C94.4201 7.96251 94.1283 7.9346 93.7943 7.77758C93.3021 7.52634 92.831 7.3449 92.3811 7.23673C91.9311 7.12856 91.4987 7.07273 91.0873 7.07273C90.3104 7.07273 89.7374 7.20533 89.3647 7.474C88.9921 7.74268 88.8058 8.0951 88.8058 8.53476C88.8058 9.22565 89.2557 9.65134 90.1592 9.80836L92.5357 10.255C93.5658 10.4434 94.3462 10.7889 94.8771 11.2913C95.4079 11.7938 95.6716 12.4707 95.6716 13.3186C95.6716 14.4666 95.2181 15.3669 94.3181 16.0194C93.4111 16.6719 92.2053 16.9999 90.7041 16.9999Z" fill="white"/>
<path d="M101.866 16.9999C101.026 16.9999 100.277 16.8394 99.6199 16.5149C98.9625 16.1939 98.4492 15.7577 98.0765 15.2064C97.7039 14.6551 97.5176 14.0375 97.5176 13.3431C97.5176 12.4952 97.7391 11.8218 98.182 11.3263C98.625 10.8308 99.3456 10.4749 100.344 10.2516C101.342 10.0318 102.678 9.92009 104.359 9.92009H105.188V9.42461C105.188 8.63951 105.013 8.07424 104.665 7.7288C104.317 7.38335 103.73 7.20889 102.907 7.20889C102.446 7.20889 101.954 7.26471 101.423 7.37288C100.892 7.48105 100.334 7.67297 99.7499 7.93816C99.3703 8.11262 99.0539 8.13007 98.8007 7.99747C98.5476 7.86488 98.3754 7.65203 98.291 7.35893C98.2031 7.06931 98.2207 6.77272 98.3402 6.47613C98.4597 6.17953 98.6988 5.95622 99.0644 5.81664C99.7921 5.52005 100.492 5.3072 101.167 5.18159C101.838 5.05597 102.453 4.99316 103.009 4.99316C104.703 4.99316 105.962 5.38397 106.785 6.16209C107.607 6.94021 108.018 8.14752 108.018 9.78052V15.4402C108.018 16.4451 107.558 16.9476 106.64 16.9476C105.705 16.9476 105.238 16.4451 105.238 15.4402V14.9203C104.967 15.5658 104.542 16.0718 103.955 16.4416C103.371 16.815 102.675 16.9999 101.866 16.9999ZM102.485 14.9726C103.262 14.9726 103.905 14.704 104.422 14.1701C104.935 13.6362 105.196 12.9593 105.196 12.1428V11.6229H104.387C102.9 11.6229 101.866 11.738 101.286 11.9648C100.706 12.1916 100.418 12.6069 100.418 13.2035C100.418 13.7235 100.601 14.1457 100.963 14.4772C101.325 14.8086 101.835 14.9726 102.485 14.9726Z" fill="white"/>
<path d="M115.548 16.9056C115.088 16.9056 114.75 16.6544 114.529 16.152L110.254 6.24924C110.127 5.96661 110.12 5.71538 110.229 5.49555C110.338 5.27572 110.563 5.16406 110.894 5.16406C111.228 5.16406 111.47 5.35946 111.632 5.75376L115.552 15.1854L119.521 5.75376C119.602 5.55138 119.693 5.40134 119.806 5.30712C119.915 5.21291 120.076 5.16406 120.28 5.16406C120.583 5.16406 120.776 5.27572 120.86 5.49555C120.948 5.71538 120.934 5.95963 120.825 6.22831L116.55 16.1554C116.343 16.6544 116.009 16.9056 115.548 16.9056Z" fill="white"/>
<path d="M124.221 2.37988C123.525 2.37988 123.177 2.04839 123.177 1.38891C123.177 0.743381 123.525 0.422363 124.221 0.422363C124.917 0.422363 125.265 0.743381 125.265 1.38891C125.265 2.05188 124.917 2.37988 124.221 2.37988ZM124.221 16.8571C123.729 16.8571 123.483 16.5989 123.483 16.079V5.98784C123.483 5.48538 123.729 5.23414 124.221 5.23414C124.696 5.23414 124.935 5.48538 124.935 5.98784V16.079C124.932 16.5989 124.696 16.8571 124.221 16.8571Z" fill="white"/>
<path d="M132.511 16.951C131.797 16.951 131.091 16.8568 130.384 16.6684C129.677 16.48 129.009 16.159 128.377 15.7019C128.169 15.5762 128.074 15.3983 128.092 15.1715C128.106 14.9447 128.197 14.7667 128.366 14.6411C128.531 14.5155 128.742 14.5294 128.995 14.6865C129.614 15.0947 130.215 15.3773 130.802 15.5344C131.389 15.6914 131.973 15.7716 132.56 15.7716C133.541 15.7716 134.283 15.5937 134.782 15.2413C135.281 14.8888 135.531 14.3968 135.531 13.7688C135.531 13.2803 135.366 12.8964 135.032 12.6138C134.698 12.3312 134.177 12.1044 133.464 11.9299L131.397 11.4588C129.449 11.0192 128.475 10.0212 128.475 8.46499C128.475 7.46006 128.872 6.65054 129.663 6.03642C130.454 5.42229 131.502 5.11523 132.799 5.11523C133.481 5.11523 134.142 5.21642 134.782 5.4223C135.422 5.62817 135.981 5.9422 136.455 6.36441C136.659 6.52143 136.747 6.70986 136.716 6.92968C136.684 7.14951 136.578 7.31351 136.396 7.42517C136.213 7.53683 136.005 7.50542 135.766 7.33096C135.306 6.98551 134.824 6.73079 134.318 6.5633C133.812 6.39931 133.298 6.31556 132.775 6.31556C131.857 6.31556 131.147 6.50399 130.648 6.88083C130.148 7.25768 129.899 7.77061 129.899 8.41265C129.899 8.90115 130.05 9.29196 130.349 9.59204C130.651 9.89212 131.14 10.1189 131.822 10.2759L133.889 10.747C134.919 10.9843 135.685 11.3332 136.192 11.7973C136.698 12.2614 136.951 12.886 136.951 13.6711C136.951 14.6934 136.547 15.496 135.738 16.0752C134.933 16.6614 133.857 16.951 132.511 16.951Z" fill="white"/>
<path d="M144.176 16.951C141.437 16.951 140.066 15.475 140.066 12.5196V5.91776C140.066 5.41529 140.312 5.16406 140.804 5.16406C141.279 5.16406 141.518 5.41529 141.518 5.91776V12.4498C141.518 13.5664 141.746 14.3898 142.207 14.9272C142.667 15.4611 143.385 15.7297 144.369 15.7297C145.431 15.7297 146.295 15.3773 146.97 14.669C147.642 13.9607 147.979 13.0185 147.979 11.8391V5.91776C147.979 5.41529 148.225 5.16406 148.718 5.16406C149.192 5.16406 149.431 5.41529 149.431 5.91776V16.1729C149.431 16.6614 149.203 16.9056 148.742 16.9056C148.268 16.9056 148.029 16.6614 148.029 16.1729V14.7353C147.649 15.4576 147.122 16.0089 146.45 16.3857C145.772 16.7626 145.012 16.951 144.176 16.951Z" fill="white"/>
<path d="M156.814 16.951C156.037 16.951 155.345 16.801 154.737 16.5044C154.128 16.2043 153.643 15.7961 153.288 15.2796C152.933 14.7632 152.754 14.1805 152.754 13.535C152.754 12.6871 152.968 12.0241 153.397 11.5426C153.826 11.0645 154.547 10.7226 155.559 10.5167C156.572 10.3143 157.967 10.2097 159.739 10.2097H160.478V9.36175C160.478 8.30797 160.263 7.54381 159.838 7.06228C159.409 6.58424 158.73 6.34348 157.795 6.34348C157.194 6.34348 156.607 6.42373 156.037 6.58075C155.468 6.73777 154.874 6.989 154.255 7.33445C153.97 7.49147 153.745 7.49496 153.577 7.34491C153.411 7.19487 153.33 6.99947 153.337 6.75522C153.345 6.51097 153.475 6.32603 153.728 6.20042C154.378 5.83753 155.05 5.56885 155.746 5.3874C156.442 5.20596 157.117 5.11523 157.764 5.11523C159.156 5.11523 160.189 5.46766 160.864 6.17599C161.536 6.88432 161.873 7.96601 161.873 9.43153V16.1764C161.873 16.6649 161.652 16.9092 161.209 16.9092C160.734 16.9092 160.495 16.6649 160.495 16.1764V14.7144C160.179 15.4227 159.701 15.9705 159.057 16.3648C158.417 16.7556 157.669 16.951 156.814 16.951ZM157.004 15.7961C157.686 15.7961 158.284 15.6356 158.797 15.3145C159.31 14.9935 159.718 14.5469 160.02 13.9816C160.319 13.4163 160.47 12.7708 160.47 12.0485V11.2704H159.757C158.333 11.2704 157.219 11.3332 156.421 11.4588C155.623 11.5844 155.064 11.8043 154.747 12.1183C154.431 12.4324 154.273 12.865 154.273 13.4163C154.273 14.1247 154.519 14.6969 155.011 15.1366C155.5 15.5762 156.164 15.7961 157.004 15.7961Z" fill="white"/>
<path d="M168.974 16.9512C167.912 16.9512 167.093 16.6266 166.517 15.9706C165.94 15.3181 165.648 14.3795 165.648 13.1548V0.729269C165.648 0.240764 165.895 0 166.387 0C166.861 0 167.1 0.244253 167.1 0.729269V12.9908C167.1 14.7982 167.814 15.702 169.238 15.702C169.378 15.702 169.512 15.695 169.628 15.6775C169.748 15.6636 169.864 15.6531 169.973 15.6531C170.113 15.6392 170.222 15.6636 170.292 15.7369C170.363 15.8067 170.398 15.9532 170.398 16.173C170.398 16.5813 170.159 16.8255 169.684 16.9058C169.572 16.9372 169.456 16.9546 169.329 16.9546C169.203 16.9511 169.087 16.9512 168.974 16.9512Z" fill="white"/>
<path d="M174.736 9.26051C174.412 9.26051 174.114 9.20468 173.839 9.09302C173.565 8.98136 173.323 8.82085 173.115 8.61498C172.908 8.40911 172.746 8.16835 172.634 7.89618C172.521 7.62401 172.465 7.32742 172.465 7.0064C172.465 6.68539 172.521 6.38879 172.634 6.11663C172.746 5.84446 172.908 5.60369 173.112 5.40131C173.316 5.19893 173.558 5.03842 173.836 4.92676C174.114 4.81511 174.412 4.75928 174.736 4.75928C175.059 4.75928 175.358 4.81511 175.632 4.92676C175.907 5.03842 176.146 5.19893 176.353 5.40131C176.557 5.60369 176.719 5.84446 176.831 6.11663C176.944 6.38879 177 6.68539 177 7.0064C177 7.32742 176.944 7.62401 176.831 7.89618C176.719 8.16835 176.557 8.40911 176.353 8.61498C176.149 8.82085 175.907 8.98136 175.632 9.09302C175.358 9.20468 175.059 9.26051 174.736 9.26051ZM174.736 9.01626C175.021 9.01626 175.284 8.96392 175.53 8.86272C175.773 8.76153 175.987 8.61847 176.17 8.43354C176.353 8.2486 176.494 8.03575 176.596 7.79499C176.698 7.55074 176.747 7.28904 176.747 7.0064C176.747 6.72377 176.698 6.45858 176.596 6.21782C176.494 5.97356 176.353 5.76071 176.17 5.57927C175.987 5.39782 175.776 5.25825 175.53 5.15357C175.288 5.05238 175.024 5.00004 174.736 5.00004C174.448 5.00004 174.184 5.05238 173.941 5.15357C173.695 5.25476 173.481 5.39782 173.298 5.57927C173.115 5.76071 172.975 5.97356 172.873 6.21782C172.771 6.46207 172.721 6.72377 172.721 7.0064C172.721 7.28904 172.771 7.55423 172.873 7.79499C172.975 8.03575 173.115 8.25209 173.298 8.43354C173.481 8.61847 173.695 8.75804 173.941 8.86272C174.184 8.9674 174.451 9.01626 174.736 9.01626ZM174.029 8.36026C173.913 8.36026 173.853 8.30094 173.853 8.1858V5.89331C173.853 5.76071 173.924 5.69442 174.061 5.69442H174.905C175.186 5.69442 175.4 5.76071 175.548 5.88982C175.696 6.01892 175.773 6.20735 175.773 6.44811C175.773 6.8424 175.576 7.07968 175.182 7.15993C175.312 7.2053 175.407 7.31346 175.471 7.47746L175.734 8.12648C175.759 8.19626 175.755 8.25209 175.724 8.29396C175.692 8.33584 175.646 8.35677 175.587 8.35677C175.506 8.35677 175.453 8.3149 175.425 8.22418L175.13 7.49491C175.087 7.38674 175.024 7.31346 174.936 7.27159C174.852 7.23321 174.746 7.21227 174.623 7.21227H174.191V8.17882C174.194 8.30094 174.142 8.36026 174.029 8.36026ZM174.194 6.93662H174.862C175.249 6.93662 175.442 6.77611 175.442 6.45509C175.442 6.13407 175.249 5.97356 174.862 5.97356H174.194V6.93662Z" fill="#FF6F48"/>
<path d="M32.2373 8.61519C31.9244 8.23136 31.3514 8.17553 30.9647 8.48608C30.0753 9.2014 29.2105 9.53288 28.4089 9.53288V9.53637C27.5828 9.53637 26.7777 9.18046 26.0254 8.5454C26.0043 8.52796 25.9902 8.50702 25.9691 8.48957C25.9094 8.44072 25.8461 8.39885 25.7863 8.35349C24.8336 7.58584 23.7895 7.12874 22.6821 7.05546V7.05197C22.6083 7.04848 22.538 7.0415 22.4642 7.0415C22.4501 7.0415 22.4325 7.04499 22.4185 7.04499C22.4044 7.04499 22.3868 7.0415 22.3728 7.0415C22.3692 7.0415 22.3692 7.0415 22.3692 7.0415H22.3657C22.3517 7.0415 22.3341 7.04499 22.32 7.04499C22.306 7.04499 22.2884 7.0415 22.2743 7.0415C21.0509 7.0415 19.8978 7.51256 18.8572 8.35349C18.7939 8.40234 18.7307 8.44421 18.6709 8.49306C17.8166 9.18046 16.994 9.50497 16.2241 9.53288C15.4542 9.50497 14.628 9.18046 13.7773 8.49306C13.714 8.44421 13.6507 8.39885 13.591 8.35349C12.5504 7.51256 11.3973 7.0415 10.1739 7.0415C10.1598 7.0415 10.1422 7.04499 10.1282 7.04499C10.1141 7.04499 10.0965 7.0415 10.0825 7.0415H10.0789H10.0754C10.0614 7.0415 10.0438 7.0415 10.0297 7.04499C10.0157 7.04499 9.99808 7.0415 9.98402 7.0415C9.91019 7.0415 9.83988 7.04848 9.76605 7.05197V7.05546C8.65866 7.12874 7.61455 7.58584 6.66184 8.35349C6.60207 8.39885 6.53879 8.44072 6.47903 8.48957C6.45794 8.50702 6.44036 8.52796 6.41927 8.5454C5.67046 9.18046 4.86189 9.53637 4.03574 9.53637V9.53288C3.23419 9.53288 2.36937 9.20489 1.47994 8.48608C1.09324 8.17205 0.523719 8.23136 0.207321 8.61519C-0.105561 8.99902 -0.0493126 9.56429 0.337396 9.87833C1.57838 10.8763 2.82639 11.3334 4.03574 11.3334V11.3299C5.34 11.3299 6.5634 10.803 7.65322 9.86088C7.6954 9.82599 7.73759 9.79458 7.77626 9.75969C8.57429 9.15604 9.3477 8.86293 10.0754 8.842C10.8031 8.86642 11.5766 9.15604 12.3746 9.76318C12.4168 9.79807 12.459 9.82948 12.4976 9.86437C13.591 10.81 14.8108 11.3369 16.1151 11.3369C16.1327 11.3369 16.1503 11.3334 16.1678 11.3334C16.1854 11.3334 16.1995 11.3369 16.2171 11.3369C16.2206 11.3369 16.2206 11.3369 16.2241 11.3369C16.2276 11.3369 16.2276 11.3369 16.2311 11.3369C16.2487 11.3369 16.2628 11.3334 16.2803 11.3334C16.2979 11.3334 16.3155 11.3369 16.3331 11.3369C17.6373 11.3369 18.8607 10.81 19.9505 9.86437C19.9927 9.82948 20.0349 9.79807 20.0736 9.76318C20.8716 9.15952 21.645 8.86642 22.3728 8.842C23.1005 8.86642 23.8739 9.15604 24.6719 9.75969C24.7141 9.79458 24.7563 9.82599 24.795 9.86088C25.8848 10.8065 27.1082 11.3299 28.4124 11.3299V11.3334C29.6218 11.3334 30.8698 10.8763 32.1108 9.87833C32.4905 9.56429 32.5502 8.99902 32.2373 8.61519Z" fill="white"/>
<path d="M16.3256 14.6902H16.3081C14.4308 14.6309 12.5078 13.8668 10.5918 12.4187L10.5742 12.4047C10.5426 12.3768 10.5074 12.3524 10.4723 12.3245C10.409 12.2721 10.3387 12.2198 10.2684 12.1605C10.0258 11.9511 10.0012 11.5882 10.2121 11.3475C10.4231 11.1067 10.7922 11.0823 11.0313 11.2916C11.0805 11.337 11.1367 11.3789 11.193 11.4242C11.2281 11.4521 11.2633 11.4801 11.2984 11.508C13.007 12.7955 14.6944 13.4794 16.3186 13.5353C17.9428 13.4794 19.6338 12.7955 21.3423 11.508C21.3775 11.4801 21.4126 11.4521 21.4478 11.4242C21.504 11.3789 21.5603 11.337 21.6095 11.2916C21.8521 11.0823 22.2177 11.1067 22.4286 11.3475C22.6395 11.5882 22.6149 11.9511 22.3724 12.1605C22.3021 12.2198 22.2353 12.2756 22.172 12.3245C22.1368 12.3524 22.1052 12.3768 22.07 12.4047L22.0525 12.4187C20.1365 13.8633 18.2135 14.6274 16.3362 14.6902H16.3256Z" fill="white"/>
</g>
<defs>
<clipPath id="clip0_466_9">
<rect width="177" height="17" fill="white"/>
</clipPath>
</defs>
</svg>
