<svg width="60" height="15" viewBox="0 0 60 15" fill="none" xmlns="http://www.w3.org/2000/svg">
<g clip-path="url(#clip0_479_37)">
<path d="M58.74 2.90023C58.17 2.20023 57.13 2.09023 56.42 2.66023C54.8 3.98023 53.23 4.58023 51.76 4.58023C50.26 4.58023 48.78 3.93023 47.42 2.77023C47.38 2.74023 47.35 2.70023 47.31 2.66023C47.2 2.57023 47.09 2.49023 46.98 2.41023C45.25 1.00023 43.34 0.160234 41.32 0.0202344C41.19 0.000234375 41.06 -0.00976562 40.92 -0.00976562C40.89 -0.00976562 40.86 -0.00976562 40.84 -0.00976562C40.81 -0.00976562 40.78 -0.00976562 40.76 -0.00976562C40.73 -0.00976562 40.7 -0.00976562 40.68 -0.00976562C40.65 -0.00976562 40.62 -0.00976562 40.6 -0.00976562C38.37 -0.00976562 36.27 0.860234 34.37 2.40023C34.26 2.49023 34.14 2.57023 34.03 2.66023C32.48 3.92023 30.98 4.52023 29.57 4.57023C28.16 4.52023 26.66 3.92023 25.11 2.66023C25 2.57023 24.88 2.49023 24.77 2.40023C22.87 0.860234 20.78 -0.00976562 18.54 -0.00976562C18.51 -0.00976562 18.48 -0.00976562 18.46 -0.00976562C18.43 -0.00976562 18.4 -0.00976562 18.38 -0.00976562C18.35 -0.00976562 18.32 -0.00976562 18.3 -0.00976562C18.27 -0.00976562 18.24 -0.00976562 18.22 -0.00976562C18.09 -0.00976562 17.96 0.000234375 17.82 0.0102344C15.8 0.160234 13.9 0.990234 12.17 2.41023C12.06 2.50023 11.95 2.57023 11.84 2.66023C11.8 2.69023 11.77 2.73023 11.73 2.77023C10.36 3.94023 8.88995 4.59023 7.38995 4.59023C5.92995 4.59023 4.34995 3.98023 2.72995 2.66023C2.02995 2.09023 0.989953 2.19023 0.409953 2.90023C-0.160047 3.60023 -0.0600468 4.64023 0.649953 5.22023C2.90995 7.05023 5.17995 7.89023 7.38995 7.89023C9.75995 7.89023 11.99 6.92023 13.98 5.19023C14.05 5.12023 14.13 5.07023 14.21 5.01023C15.67 3.90023 17.07 3.36023 18.4 3.32023C19.72 3.36023 21.13 3.90023 22.59 5.01023C22.66 5.07023 22.74 5.13023 22.82 5.19023C24.81 6.93023 27.04 7.90023 29.41 7.90023C29.44 7.90023 29.47 7.90023 29.51 7.90023C29.55 7.90023 29.57 7.90023 29.6 7.90023C29.6 7.90023 29.6 7.90023 29.61 7.90023C29.62 7.90023 29.61 7.90023 29.62 7.90023C29.65 7.90023 29.68 7.90023 29.71 7.90023C29.74 7.90023 29.77 7.90023 29.81 7.90023C32.18 7.90023 34.41 6.93023 36.4 5.19023C36.47 5.13023 36.55 5.07023 36.63 5.01023C38.09 3.90023 39.49 3.36023 40.82 3.32023C42.14 3.36023 43.55 3.90023 45.01 5.01023C45.08 5.07023 45.16 5.13023 45.24 5.19023C47.23 6.92023 49.46 7.89023 51.83 7.89023C54.03 7.89023 56.31 7.06023 58.57 5.23023C59.27 4.66023 59.38 3.62023 58.81 2.91023L58.74 2.90023Z" fill="url(#paint0_linear_479_37)"/>
<path d="M29.7502 14.06H29.7202C26.3002 13.95 22.7902 12.54 19.3002 9.89003L19.2702 9.87003C19.2102 9.82003 19.1502 9.77003 19.0902 9.72003C18.9702 9.63003 18.8502 9.53003 18.7202 9.42003C18.2802 9.04003 18.2302 8.37003 18.6202 7.92003C19.0102 7.47003 19.6702 7.43003 20.1202 7.82003C20.2102 7.90003 20.3102 7.98003 20.4202 8.06003C20.4802 8.11003 20.5502 8.16003 20.6102 8.22003C23.7202 10.59 26.8002 11.84 29.7602 11.94C32.7202 11.83 35.8002 10.58 38.9102 8.21003C38.9702 8.16003 39.0402 8.11003 39.1002 8.05003C39.2102 7.97003 39.3002 7.89003 39.4002 7.81003C39.8402 7.43003 40.5102 7.47003 40.9002 7.91003C41.2802 8.35003 41.2402 9.02003 40.8002 9.41003C40.6702 9.52003 40.5502 9.62003 40.4302 9.71003C40.3702 9.76003 40.3102 9.81003 40.2502 9.86003L40.2202 9.88003C36.7302 12.54 33.2302 13.94 29.8002 14.05H29.7602L29.7502 14.06Z" fill="url(#paint1_linear_479_37)"/>
</g>
<defs>
<linearGradient id="paint0_linear_479_37" x1="1.99995" y1="-6.83977" x2="60.5" y2="16.6602" gradientUnits="userSpaceOnUse">
<stop stop-color="#9CCDA0"/>
<stop offset="0.25" stop-color="#5AA495"/>
<stop offset="0.51" stop-color="#54A7B7"/>
<stop offset="0.76" stop-color="#6E658E"/>
<stop offset="1" stop-color="#CC658E"/>
</linearGradient>
<linearGradient id="paint1_linear_479_37" x1="0.320233" y1="-2.64997" x2="58.8202" y2="20.85" gradientUnits="userSpaceOnUse">
<stop stop-color="#9CCDA0"/>
<stop offset="0.25" stop-color="#5AA495"/>
<stop offset="0.51" stop-color="#54A7B7"/>
<stop offset="0.76" stop-color="#6E658E"/>
<stop offset="1" stop-color="#CC658E"/>
</linearGradient>
<clipPath id="clip0_479_37">
<rect width="59.11" height="14.06" fill="white"/>
</clipPath>
</defs>
</svg>
