<svg width="177" height="18" viewBox="0 0 177 18" fill="none" xmlns="http://www.w3.org/2000/svg">
<path fill-rule="evenodd" clip-rule="evenodd" d="M168.973 17.4511C167.911 17.4511 167.092 17.1266 166.516 16.4706C165.939 15.8181 165.647 14.8795 165.647 13.6548V1.22927C165.647 0.740764 165.894 0.5 166.386 0.5C166.86 0.5 167.099 0.744253 167.099 1.22927V13.4908C167.099 15.2982 167.813 16.202 169.237 16.202C169.377 16.202 169.511 16.195 169.627 16.1775C169.747 16.1636 169.863 16.1531 169.972 16.1531C170.112 16.1392 170.221 16.1636 170.291 16.2369C170.362 16.3067 170.397 16.4532 170.397 16.673C170.397 17.0813 170.158 17.3255 169.683 17.4058C169.571 17.4372 169.455 17.4546 169.328 17.4546C169.202 17.4511 169.086 17.4511 168.973 17.4511ZM124.221 2.87972C123.525 2.87972 123.177 2.54823 123.177 1.88875C123.177 1.24322 123.525 0.922204 124.221 0.922204C124.917 0.922204 125.265 1.24322 125.265 1.88875C125.265 2.55172 124.917 2.87972 124.221 2.87972ZM124.221 17.3569C123.729 17.3569 123.483 17.0987 123.483 16.5788V6.48768C123.483 5.98522 123.729 5.73399 124.221 5.73399C124.696 5.73399 124.935 5.98522 124.935 6.48768V16.5788C124.931 17.0987 124.696 17.3569 124.221 17.3569ZM101.866 17.4999C101.026 17.4999 100.277 17.3394 99.6199 17.0149C98.9625 16.6939 98.4492 16.2577 98.0765 15.7064C97.7039 15.1551 97.5176 14.5375 97.5176 13.8431C97.5176 12.9952 97.7391 12.3218 98.182 11.8263C98.625 11.3308 99.3456 10.9749 100.344 10.7516C101.342 10.5317 102.678 10.4201 104.359 10.4201H105.188V9.92461C105.188 9.13951 105.013 8.57424 104.665 8.2288C104.317 7.88335 103.73 7.70889 102.907 7.70889C102.446 7.70889 101.954 7.76472 101.423 7.87288C100.892 7.98105 100.334 8.17297 99.7499 8.43816C99.3703 8.61262 99.0539 8.63007 98.8007 8.49747C98.5476 8.36488 98.3754 8.15203 98.291 7.85893C98.2031 7.56931 98.2207 7.27272 98.3402 6.97613C98.4597 6.67953 98.6988 6.45622 99.0644 6.31664C99.7921 6.02005 100.492 5.8072 101.167 5.68159C101.838 5.55597 102.453 5.49316 103.009 5.49316C104.703 5.49316 105.962 5.88397 106.785 6.66209C107.607 7.44021 108.018 8.64751 108.018 10.2805V15.9402C108.018 16.9451 107.558 17.4476 106.64 17.4476C105.705 17.4476 105.238 16.9451 105.238 15.9402V15.4203C104.967 16.0658 104.542 16.5718 103.955 16.9416C103.371 17.315 102.675 17.4999 101.866 17.4999ZM102.485 15.4726C103.262 15.4726 103.905 15.204 104.422 14.6701C104.935 14.1362 105.196 13.4593 105.196 12.6428V12.1229H104.387C102.9 12.1229 101.866 12.238 101.286 12.4648C100.706 12.6916 100.418 13.1069 100.418 13.7035C100.418 14.2235 100.601 14.6457 100.963 14.9772C101.325 15.3086 101.835 15.4726 102.485 15.4726ZM61.1385 17.015C61.7959 17.3395 62.5447 17.5 63.3849 17.5C64.1935 17.5 64.8896 17.3151 65.4731 16.9417C66.0602 16.5718 66.4856 16.0659 66.7563 15.4204V15.9403C66.7563 16.9452 67.2239 17.4477 68.159 17.4477C69.0766 17.4477 69.5371 16.9452 69.5371 15.9403V10.2806C69.5371 8.64758 69.1258 7.44027 68.3031 6.66215C67.4805 5.88403 66.222 5.49323 64.5275 5.49323C63.972 5.49323 63.3568 5.55604 62.6853 5.68165C62.0139 5.80727 61.3108 6.02012 60.583 6.31671C60.2174 6.45628 59.9784 6.6796 59.8588 6.97619C59.7428 7.27279 59.7253 7.56938 59.8131 7.85899C59.8975 8.1521 60.0698 8.36494 60.3229 8.49754C60.576 8.63013 60.8924 8.61269 61.2721 8.43822C61.8557 8.17303 62.4146 7.98112 62.9455 7.87295C63.4763 7.76478 63.9685 7.70895 64.429 7.70895C65.2517 7.70895 65.8388 7.88342 66.1868 8.22886C66.5348 8.5743 66.7106 9.13958 66.7106 9.92467V10.4202H65.8774C64.197 10.4202 62.8611 10.5318 61.8627 10.7516C60.8643 10.975 60.1436 11.3309 59.7006 11.8264C59.2577 12.3218 59.0362 12.9953 59.0362 13.8432C59.0362 14.5376 59.2225 15.1552 59.5952 15.7065C59.9678 16.2578 60.4811 16.694 61.1385 17.015ZM65.9372 14.6702C65.4204 15.204 64.7771 15.4727 64.0001 15.4727C63.3533 15.4727 62.847 15.3052 62.4779 14.9772C62.1158 14.6457 61.933 14.2235 61.933 13.7036C61.933 13.1069 62.2213 12.6917 62.8013 12.4649C63.3814 12.2381 64.4115 12.1229 65.902 12.1229H66.7106V12.6429C66.7106 13.4594 66.4505 14.1363 65.9372 14.6702ZM38.7725 15.9438C38.7725 16.9487 39.2646 17.4511 40.2455 17.4511C41.2439 17.4511 41.7431 16.9487 41.7396 15.9403V10.8703C41.7396 9.9142 41.961 9.16051 42.404 8.61966C42.847 8.07882 43.4551 7.80665 44.2321 7.80665C44.9141 7.80665 45.4028 8.01252 45.6945 8.42077C45.9863 8.82902 46.134 9.47455 46.134 10.3539V15.9403C46.134 16.9452 46.6332 17.4477 47.6316 17.4477C48.6124 17.4477 49.1046 16.9452 49.1046 15.9403V10.8703C49.1046 9.9142 49.3261 9.16051 49.769 8.61966C50.212 8.07882 50.8202 7.80665 51.5971 7.80665C52.2932 7.80665 52.7889 8.01252 53.0807 8.42077C53.3725 8.82902 53.5201 9.47455 53.5201 10.3539V15.9472C53.5201 16.9522 54.0123 17.4546 54.9931 17.4546C55.9915 17.4546 56.4907 16.9522 56.4907 15.9472V10.2422C56.4907 7.08436 55.183 5.50369 52.5709 5.50369C51.6991 5.50369 50.9257 5.70259 50.2436 6.10386C49.5616 6.50164 49.0413 7.05644 48.6757 7.76478C48.1378 6.2539 46.9988 5.5002 45.2551 5.5002C44.4465 5.5002 43.7364 5.67816 43.1177 6.03058C42.4989 6.383 42.0173 6.875 41.6693 7.50308V7.03202C41.6693 6.04105 41.1876 5.54556 40.2209 5.54556C39.2541 5.54556 38.7725 6.04105 38.7725 7.03202V15.9438ZM74.0267 17.451C73.0459 17.451 72.5537 16.9486 72.5537 15.9436V7.03189C72.5537 6.04092 73.0353 5.54543 74.0021 5.54543C74.9689 5.54543 75.4505 6.04092 75.4505 7.03189V7.52737C75.8442 6.86789 76.3821 6.36543 77.0536 6.01649C77.7251 5.67105 78.4844 5.49658 79.3211 5.49658C82.0597 5.49658 83.4308 7.07725 83.4308 10.2351V15.9401C83.4308 16.9451 82.9386 17.4475 81.9578 17.4475C80.9594 17.4475 80.4601 16.9451 80.4601 15.9401V10.3782C80.4601 9.48139 80.2914 8.82889 79.9504 8.42064C79.6094 8.01239 79.0821 7.80652 78.3719 7.80652C77.5001 7.80652 76.8075 8.07868 76.2942 8.61953C75.781 9.16038 75.5208 9.88267 75.5208 10.7759V15.9401C75.5243 16.9486 75.0251 17.451 74.0267 17.451ZM88.5418 17.2871C89.3011 17.4302 90.0218 17.5 90.7038 17.5C92.205 17.5 93.4108 17.172 94.3178 16.5195C95.2178 15.867 95.6713 14.9667 95.6713 13.8188C95.6713 12.9708 95.4076 12.2939 94.8768 11.7915C94.3459 11.289 93.5655 10.9436 92.5354 10.7551L90.1589 10.3085C89.2554 10.1515 88.8055 9.72577 88.8055 9.03489C88.8055 8.59523 88.9918 8.24281 89.3644 7.97413C89.7371 7.70545 90.3101 7.57286 91.087 7.57286C91.4984 7.57286 91.9308 7.62869 92.3808 7.73686C92.8307 7.84503 93.3018 8.02647 93.794 8.2777C94.128 8.43472 94.4198 8.46264 94.6729 8.36145C94.926 8.25677 95.1123 8.08579 95.2319 7.84154C95.3514 7.59729 95.383 7.33908 95.3268 7.06342C95.2705 6.78776 95.0912 6.57142 94.7924 6.4144C93.6991 5.80377 92.4546 5.49671 91.0624 5.49671C90.0957 5.49671 89.2414 5.64675 88.4961 5.94334C87.7508 6.24343 87.1672 6.66564 86.7489 7.21695C86.3305 7.76826 86.1196 8.42077 86.1196 9.17446C86.1196 10.8738 87.125 11.9101 89.1359 12.2869L91.5124 12.7336C92.4933 12.922 92.9854 13.3477 92.9854 14.0072C92.9854 14.4329 92.7991 14.7748 92.4265 15.033C92.0538 15.2947 91.4878 15.4238 90.7285 15.4238C90.1906 15.4238 89.6457 15.3645 89.0902 15.2459C88.5348 15.1273 87.9406 14.9214 87.3078 14.6213C86.9739 14.4643 86.6856 14.4433 86.4395 14.5515C86.1934 14.6597 86.0176 14.8376 85.9157 15.0819C85.8137 15.3261 85.7997 15.5844 85.8805 15.86C85.9614 16.1357 86.1653 16.366 86.4993 16.5544C87.1004 16.9033 87.7824 17.1476 88.5418 17.2871ZM114.528 16.6521C114.75 17.1546 115.087 17.4058 115.548 17.4058C116.008 17.4058 116.342 17.1546 116.55 16.6556L120.825 6.72845C120.934 6.45977 120.948 6.21552 120.86 5.99569C120.776 5.77586 120.582 5.6642 120.28 5.6642C120.076 5.6642 119.914 5.71305 119.805 5.80726C119.693 5.90148 119.601 6.05152 119.52 6.2539L115.551 15.6855L111.632 6.2539C111.47 5.8596 111.227 5.6642 110.893 5.6642C110.563 5.6642 110.338 5.77586 110.229 5.99569C110.12 6.21552 110.127 6.46675 110.254 6.74938L114.528 16.6521ZM130.383 17.1684C131.09 17.3568 131.796 17.451 132.51 17.451C133.856 17.451 134.932 17.1614 135.737 16.5752C136.546 15.996 136.95 15.1934 136.95 14.1711C136.95 13.386 136.697 12.7614 136.191 12.2973C135.684 11.8332 134.918 11.4843 133.888 11.247L131.821 10.7759C131.139 10.6189 130.65 10.3921 130.348 10.092C130.049 9.79196 129.898 9.40115 129.898 8.91265C129.898 8.27061 130.148 7.75768 130.647 7.38083C131.146 7.00399 131.856 6.81556 132.774 6.81556C133.297 6.81556 133.811 6.89931 134.317 7.0633C134.823 7.23079 135.305 7.48551 135.765 7.83096C136.004 8.00542 136.212 8.03683 136.395 7.92517C136.577 7.81351 136.683 7.64951 136.715 7.42968C136.746 7.20986 136.658 7.02143 136.454 6.86441C135.98 6.44221 135.421 6.12817 134.781 5.92229C134.141 5.71642 133.48 5.61523 132.798 5.61523C131.501 5.61523 130.453 5.92229 129.662 6.53642C128.871 7.15054 128.474 7.96006 128.474 8.96499C128.474 10.5212 129.448 11.5192 131.396 11.9588L133.463 12.4299C134.176 12.6044 134.697 12.8312 135.031 13.1138C135.365 13.3964 135.53 13.7803 135.53 14.2688C135.53 14.8968 135.28 15.3888 134.781 15.7413C134.282 16.0937 133.54 16.2716 132.559 16.2716C131.972 16.2716 131.389 16.1914 130.801 16.0344C130.214 15.8773 129.613 15.5947 128.994 15.1865C128.741 15.0294 128.53 15.0155 128.365 15.1411C128.196 15.2667 128.105 15.4447 128.091 15.6715C128.073 15.8983 128.168 16.0762 128.376 16.2019C129.008 16.659 129.676 16.98 130.383 17.1684ZM144.175 17.4511C141.437 17.4511 140.066 15.9752 140.066 13.0197V6.4179C140.066 5.91543 140.312 5.6642 140.804 5.6642C141.278 5.6642 141.517 5.91543 141.517 6.4179V12.9499C141.517 14.0665 141.746 14.89 142.207 15.4273C142.667 15.9612 143.384 16.2299 144.369 16.2299C145.43 16.2299 146.295 15.8775 146.97 15.1691C147.642 14.4608 147.979 13.5187 147.979 12.3393V6.4179C147.979 5.91543 148.225 5.6642 148.717 5.6642C149.192 5.6642 149.431 5.91543 149.431 6.4179V16.673C149.431 17.1615 149.202 17.4058 148.742 17.4058C148.267 17.4058 148.028 17.1615 148.028 16.673V15.2354C147.649 15.9577 147.121 16.509 146.45 16.8859C145.771 17.2627 145.012 17.4511 144.175 17.4511ZM154.736 17.0044C155.344 17.301 156.036 17.451 156.813 17.451C157.668 17.451 158.416 17.2556 159.056 16.8648C159.7 16.4705 160.178 15.9227 160.494 15.2144V16.6764C160.494 17.1649 160.733 17.4092 161.208 17.4092C161.651 17.4092 161.872 17.1649 161.872 16.6764V9.93153C161.872 8.46601 161.535 7.38432 160.863 6.67599C160.188 5.96766 159.155 5.61523 157.763 5.61523C157.116 5.61523 156.441 5.70596 155.745 5.8874C155.049 6.06885 154.377 6.33752 153.727 6.70041C153.474 6.82603 153.344 7.01097 153.337 7.25522C153.329 7.49947 153.41 7.69487 153.576 7.84491C153.744 7.99496 153.969 7.99147 154.254 7.83445C154.873 7.489 155.467 7.23777 156.036 7.08075C156.606 6.92373 157.193 6.84348 157.794 6.84348C158.729 6.84348 159.408 7.08424 159.837 7.56228C160.262 8.04381 160.477 8.80797 160.477 9.86175V10.7097H159.738C157.966 10.7097 156.571 10.8143 155.558 11.0167C154.546 11.2226 153.825 11.5645 153.396 12.0426C152.967 12.5241 152.753 13.1871 152.753 14.035C152.753 14.6805 152.932 15.2632 153.287 15.7796C153.642 16.2961 154.127 16.7043 154.736 17.0044ZM158.796 15.8145C158.283 16.1356 157.685 16.2961 157.003 16.2961C156.163 16.2961 155.499 16.0762 155.01 15.6366C154.518 15.1969 154.272 14.6247 154.272 13.9163C154.272 13.365 154.43 12.9324 154.746 12.6183C155.063 12.3043 155.622 12.0844 156.42 11.9588C157.218 11.8332 158.332 11.7704 159.756 11.7704H160.469V12.5485C160.469 13.2708 160.318 13.9163 160.02 14.4816C159.717 15.0469 159.309 15.4935 158.796 15.8145ZM173.839 9.59319C174.114 9.70485 174.412 9.76067 174.736 9.76067C175.059 9.76067 175.358 9.70485 175.632 9.59319C175.907 9.48153 176.149 9.32102 176.353 9.11515C176.557 8.90928 176.719 8.66851 176.831 8.39635C176.944 8.12418 177 7.82759 177 7.50657C177 7.18555 176.944 6.88896 176.831 6.61679C176.719 6.34462 176.557 6.10386 176.353 5.90148C176.146 5.6991 175.907 5.53859 175.632 5.42693C175.358 5.31527 175.059 5.25944 174.736 5.25944C174.412 5.25944 174.114 5.31527 173.836 5.42693C173.558 5.53859 173.316 5.6991 173.112 5.90148C172.908 6.10386 172.746 6.34462 172.634 6.61679C172.521 6.88896 172.465 7.18555 172.465 7.50657C172.465 7.82759 172.521 8.12418 172.634 8.39635C172.746 8.66851 172.908 8.90928 173.115 9.11515C173.323 9.32102 173.565 9.48153 173.839 9.59319ZM175.53 9.36289C175.284 9.46408 175.021 9.51642 174.736 9.51642C174.451 9.51642 174.184 9.46757 173.941 9.36289C173.695 9.25821 173.481 9.11864 173.298 8.9337C173.115 8.75226 172.975 8.53592 172.873 8.29516C172.771 8.05439 172.722 7.7892 172.722 7.50657C172.722 7.22393 172.771 6.96223 172.873 6.71798C172.975 6.47373 173.115 6.26088 173.298 6.07944C173.481 5.89799 173.695 5.75493 173.941 5.65374C174.184 5.55255 174.448 5.50021 174.736 5.50021C175.024 5.50021 175.288 5.55255 175.53 5.65374C175.777 5.75842 175.987 5.89799 176.17 6.07944C176.353 6.26088 176.494 6.47373 176.596 6.71798C176.698 6.95874 176.747 7.22393 176.747 7.50657C176.747 7.7892 176.698 8.0509 176.596 8.29516C176.494 8.53592 176.353 8.74877 176.17 8.9337C175.987 9.11864 175.773 9.2617 175.53 9.36289ZM173.854 8.68596C173.854 8.80111 173.913 8.86043 174.029 8.86043C174.142 8.86043 174.195 8.80111 174.191 8.67898V7.71244H174.623C174.746 7.71244 174.852 7.73338 174.936 7.77176C175.024 7.81363 175.087 7.88691 175.13 7.99508L175.425 8.72434C175.453 8.81507 175.506 8.85694 175.587 8.85694C175.646 8.85694 175.692 8.836 175.724 8.79413C175.755 8.75226 175.759 8.69643 175.734 8.62664L175.471 7.97763C175.407 7.81363 175.312 7.70546 175.182 7.6601C175.576 7.57985 175.773 7.34257 175.773 6.94828C175.773 6.70751 175.696 6.51909 175.548 6.38998C175.4 6.26088 175.186 6.19458 174.905 6.19458H174.061C173.924 6.19458 173.854 6.26088 173.854 6.39347V8.68596ZM174.862 7.43678H174.195V6.47373H174.862C175.249 6.47373 175.443 6.63424 175.443 6.95526C175.443 7.27627 175.249 7.43678 174.862 7.43678ZM16.3261 15.1902H16.3086C14.4313 15.1309 12.5083 14.3668 10.5923 12.9187L10.5747 12.9047C10.5545 12.8869 10.5329 12.8705 10.5108 12.8537C10.4982 12.8442 10.4855 12.8346 10.4728 12.8245C10.4448 12.8013 10.4154 12.7781 10.3852 12.7544C10.3472 12.7244 10.3081 12.6935 10.2689 12.6605C10.0263 12.4511 10.0017 12.0882 10.2126 11.8475C10.4236 11.6067 10.7927 11.5823 11.0317 11.7916C11.0673 11.8244 11.1064 11.8553 11.1466 11.887C11.1621 11.8992 11.1778 11.9116 11.1935 11.9242L11.2989 12.008C13.0075 13.2955 14.6949 13.9794 16.3191 14.0353C17.9433 13.9794 19.6343 13.2955 21.3428 12.008L21.4483 11.9242C21.4555 11.9184 21.4627 11.9126 21.47 11.9069C21.4784 11.9002 21.4868 11.8936 21.4951 11.887L21.4951 11.887C21.5353 11.8553 21.5745 11.8244 21.61 11.7916C21.8526 11.5823 22.2182 11.6067 22.4291 11.8475C22.64 12.0882 22.6154 12.4511 22.3729 12.6605C22.3025 12.7198 22.2357 12.7756 22.1725 12.8245L22.1215 12.8646L22.0705 12.9047L22.0529 12.9187C20.137 14.3633 18.214 15.1274 16.3367 15.1902H16.3261ZM30.9652 8.98608C31.3519 8.67554 31.9249 8.73137 32.2378 9.11519C32.5507 9.49902 32.4909 10.0643 32.1113 10.3783C30.8703 11.3763 29.6223 11.8334 28.4129 11.8334V11.8299C27.1087 11.8299 25.8853 11.3065 24.7954 10.3609C24.7706 10.3384 24.7442 10.3174 24.7174 10.296C24.7025 10.2841 24.6874 10.2721 24.6724 10.2597C23.8744 9.65604 23.101 9.36642 22.3732 9.342C21.6455 9.36642 20.8721 9.65952 20.0741 10.2632C20.0492 10.2856 20.0229 10.3066 19.996 10.3281C19.9811 10.3399 19.9661 10.3519 19.951 10.3644C18.8612 11.31 17.6378 11.8369 16.3336 11.8369C16.3248 11.8369 16.316 11.836 16.3072 11.8351C16.2984 11.8342 16.2896 11.8334 16.2808 11.8334C16.272 11.8334 16.2641 11.8342 16.2562 11.8351C16.2483 11.836 16.2404 11.8369 16.2316 11.8369H16.2246H16.2175C16.2088 11.8369 16.2008 11.836 16.1929 11.8351C16.185 11.8342 16.1771 11.8334 16.1683 11.8334C16.1595 11.8334 16.1507 11.8342 16.142 11.8351C16.1332 11.836 16.1244 11.8369 16.1156 11.8369C14.8113 11.8369 13.5914 11.31 12.4981 10.3644C12.4732 10.3419 12.4469 10.3209 12.42 10.2995C12.4052 10.2876 12.3901 10.2756 12.3751 10.2632C11.577 9.65604 10.8036 9.36642 10.0759 9.342C9.34819 9.36293 8.57478 9.65604 7.77675 10.2597C7.75187 10.2821 7.72554 10.3031 7.69869 10.3246C7.6838 10.3364 7.66875 10.3484 7.65371 10.3609C6.56389 11.303 5.34049 11.8299 4.03622 11.8299V11.8334C2.82688 11.8334 1.57887 11.3763 0.337884 10.3783C-0.0488244 10.0643 -0.105073 9.49902 0.207809 9.11519C0.524207 8.73137 1.09372 8.67204 1.48043 8.98608C2.36986 9.70489 3.23468 10.0329 4.03622 10.0329V10.0364C4.86237 10.0364 5.67095 9.68046 6.41975 9.0454C6.4303 9.03668 6.43997 9.02708 6.44964 9.01749C6.4593 9.00789 6.46897 8.9983 6.47952 8.98957C6.51612 8.95966 6.55403 8.93236 6.59165 8.90528C6.61547 8.88813 6.63916 8.87107 6.66233 8.85349C7.61504 8.08584 8.65915 7.62874 9.76654 7.55546V7.55197C9.79166 7.55079 9.81638 7.54919 9.84097 7.54761C9.88863 7.54454 9.9358 7.5415 9.9845 7.5415C9.99154 7.5415 9.99944 7.54238 10.0074 7.54325C10.0153 7.54412 10.0232 7.54499 10.0302 7.54499C10.0443 7.5415 10.0618 7.5415 10.0759 7.5415H10.0794H10.0829C10.09 7.5415 10.0979 7.54238 10.1058 7.54325C10.1137 7.54412 10.1216 7.54499 10.1286 7.54499C10.1357 7.54499 10.1436 7.54412 10.1515 7.54325C10.1594 7.54238 10.1673 7.5415 10.1743 7.5415C11.3977 7.5415 12.5508 8.01256 13.5914 8.85349C13.617 8.87287 13.6431 8.89225 13.6697 8.9119C13.7053 8.93825 13.7415 8.96508 13.7778 8.99306C14.6285 9.68046 15.4547 10.005 16.2246 10.0329C16.9945 10.005 17.8171 9.68046 18.6714 8.99306C18.7059 8.96487 18.7415 8.939 18.7777 8.91276C18.8042 8.89355 18.831 8.87415 18.8577 8.85349C19.8983 8.01256 21.0514 7.5415 22.2748 7.5415C22.2818 7.5415 22.2897 7.54238 22.2977 7.54325C22.3056 7.54412 22.3135 7.54499 22.3205 7.54499C22.3275 7.54499 22.3354 7.54412 22.3434 7.54325C22.3513 7.54238 22.3592 7.5415 22.3662 7.5415H22.3697H22.3732C22.3803 7.5415 22.3882 7.54238 22.3961 7.54325C22.404 7.54412 22.4119 7.54499 22.4189 7.54499C22.426 7.54499 22.4339 7.54412 22.4418 7.54325C22.4497 7.54238 22.4576 7.5415 22.4646 7.5415C22.5133 7.5415 22.5605 7.54454 22.6082 7.54761C22.6328 7.54919 22.6575 7.55079 22.6826 7.55197V7.55546C23.79 7.62874 24.8341 8.08584 25.7868 8.85349C25.81 8.87107 25.8337 8.88813 25.8575 8.90527C25.8951 8.93236 25.933 8.95966 25.9696 8.98957C25.9802 8.9983 25.989 9.00789 25.9978 9.01749C26.0065 9.02708 26.0153 9.03668 26.0259 9.0454C26.7782 9.68046 27.5833 10.0364 28.4094 10.0364V10.0329C29.2109 10.0329 30.0758 9.7014 30.9652 8.98608Z" fill="white"/>
</svg>
