<svg width="247" height="26" viewBox="0 0 247 26" fill="none" xmlns="http://www.w3.org/2000/svg">
<path d="M23.8753 17.8071C21.548 17.8381 19.8751 17.0518 18.3695 15.8229C17.2059 14.8732 15.9312 14.1532 14.3415 14.3679C13.1654 14.5269 12.1995 15.1382 11.3071 15.8697C9.84005 17.0748 8.19395 17.8319 6.25157 17.8009C4.25011 17.7691 2.56105 16.9431 1.06801 15.693C0.551533 15.261 0.530946 14.4933 0.957911 13.9756C1.16637 13.731 1.46122 13.5736 1.78278 13.5354C2.10433 13.4972 2.4286 13.581 2.68994 13.7698C2.94505 13.9465 3.1912 14.1399 3.45168 14.3104C5.61246 15.724 7.77773 15.5605 9.72279 13.8784C10.8354 12.9155 12.0868 12.184 13.5637 11.9084C15.7585 11.4976 17.7206 12.0409 19.492 13.3475C20.0407 13.7521 20.5795 14.1762 21.1614 14.5295C22.7233 15.4784 24.3184 15.5013 25.8893 14.5507C26.4837 14.1903 27.035 13.7556 27.5981 13.3493C28.7223 12.5347 29.9459 11.9587 31.3503 11.8147C33.3312 11.6106 35.091 12.1681 36.6717 13.3325C37.1488 13.6859 37.6 14.0719 38.0896 14.4041C39.6757 15.4792 41.3335 15.5526 43.0243 14.6629C43.4888 14.4008 43.9372 14.1117 44.367 13.7972C44.9569 13.3899 45.7096 13.4579 46.1339 13.9739C46.2426 14.1013 46.3244 14.2488 46.3745 14.4078C46.4247 14.5669 46.4422 14.7342 46.426 14.8999C46.4099 15.0657 46.3604 15.2266 46.2804 15.3733C46.2004 15.52 46.0916 15.6494 45.9603 15.754C42.7889 18.3284 39.1243 18.581 35.8518 15.9236C35.5752 15.7001 35.296 15.4819 35.0006 15.2805C33.1137 14.0136 31.3611 14.003 29.4697 15.2637C28.9515 15.6091 28.4797 16.0208 27.9722 16.3812C26.5964 17.3619 25.1822 17.808 23.8753 17.8071Z" fill="url(#paint0_linear_1002_1166)"/>
<path d="M32.8443 18.3541C32.7306 17.9969 32.492 17.6913 32.1711 17.4918C32.0305 17.4088 31.8696 17.3651 31.7057 17.3655C31.387 17.3655 31.0988 17.5272 30.8831 17.6685C30.6396 17.8275 30.3935 17.9927 30.1563 18.1517C29.3713 18.6765 28.5585 19.2198 27.7198 19.6536C26.3897 20.3445 25.0345 20.6952 23.6918 20.6952C22.3491 20.6952 20.9922 20.3418 19.6638 19.6518C18.8215 19.2101 18.0061 18.6703 17.2166 18.1456C16.9812 17.9892 16.7368 17.8266 16.4951 17.6694C16.2445 17.4929 15.9463 17.3939 15.6385 17.3849C15.4651 17.3849 15.294 17.4255 15.1395 17.5034C14.985 17.5812 14.8514 17.6941 14.7497 17.8328C14.6546 17.9528 14.5848 18.0903 14.5447 18.2374C14.5046 18.3845 14.4948 18.538 14.5161 18.6889C14.5448 18.8564 14.6071 19.0167 14.6993 19.1602C14.7915 19.3037 14.9118 19.4276 15.0531 19.5246L15.3217 19.7216C15.959 20.1846 16.6178 20.6634 17.3115 21.076C19.3881 22.3128 21.4916 22.9869 23.3982 23.0346H23.4089C24.9503 23.0284 26.3109 22.7633 27.82 22.1776C29.2844 21.6087 30.7318 20.7641 32.2428 19.6068C32.4809 19.4283 33.0322 19.0052 32.8443 18.3541Z" fill="url(#paint1_linear_1002_1166)"/>
<path d="M56.5441 25.0629C55.8624 25.0629 55.3396 24.878 54.9758 24.5082C54.612 24.1384 54.4307 23.6054 54.4319 22.9094V10.1911C54.4319 9.49621 54.6132 8.96893 54.9758 8.60926C55.3384 8.24958 55.8497 8.07064 56.5096 8.07243C57.1684 8.07243 57.6799 8.25137 58.0444 8.60926C58.4088 8.96714 58.5901 9.49442 58.5883 10.1911V12.6471L58.2139 11.6378C58.6313 10.5622 59.3677 9.63579 60.327 8.97967C61.2812 8.32951 62.4177 8.00414 63.7364 8.00354C65.0768 8.00354 66.1791 8.31758 67.0433 8.94567C67.9075 9.57375 68.5098 10.5382 68.85 11.8392H68.3732C68.7973 10.6881 69.5864 9.70284 70.6232 9.02977C71.6687 8.34621 72.8731 8.00414 74.2365 8.00354C75.5093 8.00354 76.5605 8.25018 77.3903 8.74346C78.2201 9.23675 78.8395 9.98233 79.2487 10.9802C79.6572 11.9787 79.8618 13.2406 79.8624 14.7657V22.9076C79.8624 23.6037 79.6747 24.1366 79.2994 24.5064C78.9241 24.8762 78.3956 25.0611 77.7139 25.0611C77.0322 25.0611 76.5095 24.8762 76.1457 24.5064C75.7818 24.1366 75.6005 23.6037 75.6017 22.9076V14.9348C75.6017 13.6787 75.3902 12.7589 74.9672 12.1756C74.5441 11.5922 73.8337 11.3008 72.836 11.3014C71.7228 11.3014 70.8465 11.6891 70.2071 12.4646C69.5677 13.24 69.2495 14.3112 69.2525 15.6783V22.912C69.2525 23.6081 69.0712 24.1411 68.7086 24.5109C68.346 24.8807 67.8232 25.0656 67.1403 25.0656C66.4586 25.0656 65.9301 24.8807 65.5548 24.5109C65.1795 24.1411 64.9922 23.6081 64.9928 22.912V14.9348C64.9928 13.6787 64.7813 12.7589 64.3582 12.1756C63.9352 11.5922 63.2363 11.3008 62.2615 11.3014C61.1477 11.3014 60.2714 11.6891 59.6326 12.4646C58.9938 13.24 58.6756 14.3112 58.678 15.6783V22.912C58.6853 24.346 57.9739 25.0629 56.5441 25.0629Z" fill="#2E3E49"/>
<path d="M89.7471 25.1298C88.5427 25.1298 87.4687 24.8998 86.5254 24.44C85.6315 24.023 84.8665 23.3785 84.3089 22.5727C83.7749 21.7874 83.4957 20.8603 83.5085 19.9145C83.5085 18.7031 83.8267 17.7443 84.463 17.0381C85.0994 16.3318 86.1334 15.8215 87.5651 15.5072C88.9962 15.1935 90.9168 15.0363 93.3269 15.0357H95.0312V17.4586H93.3605C91.9506 17.4586 90.8256 17.526 89.9855 17.6608C89.1455 17.7956 88.549 18.0252 88.1961 18.3497C87.8437 18.6754 87.6676 19.1299 87.6676 19.7132C87.6676 20.4529 87.9289 21.0583 88.4517 21.5295C88.9745 22.0007 89.7018 22.2363 90.6337 22.2363C91.3347 22.2493 92.0255 22.0686 92.628 21.7147C93.2083 21.3663 93.6847 20.8723 94.0086 20.2832C94.3582 19.6427 94.5343 18.924 94.5199 18.1967V14.3289C94.5199 13.2081 94.2697 12.4008 93.7693 11.9069C93.2689 11.413 92.428 11.1661 91.2465 11.1661C90.5301 11.1725 89.8163 11.2513 89.1162 11.4014C88.2872 11.5805 87.4811 11.8506 86.713 12.2066C86.2809 12.4088 85.9002 12.4649 85.5708 12.3748C85.2526 12.2937 84.9781 12.0952 84.8039 11.8201C84.6237 11.5442 84.5291 11.2223 84.5319 10.8941C84.5348 10.5458 84.6285 10.2041 84.8039 9.90187C84.9852 9.57739 85.2919 9.33612 85.724 9.17805C86.6958 8.77675 87.7067 8.47485 88.7409 8.27708C89.6115 8.10764 90.4961 8.01779 91.3834 8.00867C93.0193 8.00867 94.3658 8.25531 95.4228 8.74859C96.4451 9.20989 97.28 9.99793 97.7924 10.9854C98.3152 11.9839 98.5766 13.2681 98.5766 14.838V22.9136C98.5766 23.6097 98.4062 24.1426 98.0653 24.5124C97.7245 24.8822 97.2358 25.0672 96.5995 25.0672C95.9631 25.0672 95.4687 24.8822 95.1164 24.5124C94.7641 24.1426 94.5879 23.6097 94.5879 22.9136V21.2942H94.8599C94.7255 22.0297 94.4099 22.7214 93.9408 23.3082C93.4718 23.895 92.8637 24.3589 92.1702 24.6592C91.4632 24.9735 90.6554 25.1304 89.7471 25.1298Z" fill="#2E3E49"/>
<path d="M105.02 25.0629C104.338 25.0629 103.815 24.878 103.452 24.5082C103.088 24.1384 102.907 23.6054 102.908 22.9093V10.1911C102.908 9.49617 103.089 8.96889 103.452 8.60922C103.814 8.24955 104.326 8.07061 104.985 8.07239C105.645 8.07239 106.156 8.25134 106.52 8.60922C106.884 8.9671 107.065 9.49438 107.064 10.1911V12.4824L106.69 11.6414C107.19 10.452 107.968 9.54896 109.025 8.93221C110.082 8.31546 111.281 8.00708 112.621 8.00708C113.962 8.00708 115.064 8.25372 115.928 8.747C116.792 9.24029 117.439 9.98588 117.872 10.9838C118.303 11.9823 118.519 13.2441 118.52 14.7693V22.9111C118.52 23.6072 118.338 24.1401 117.976 24.51C117.613 24.8798 117.09 25.0647 116.408 25.0647C115.726 25.0647 115.197 24.8798 114.822 24.51C114.447 24.1401 114.259 23.6072 114.26 22.9111V14.9688C114.26 13.6906 114.016 12.7595 113.527 12.1755C113.038 11.5916 112.282 11.3002 111.26 11.3014C110.011 11.3014 109.016 11.6891 108.277 12.4645C107.538 13.2399 107.169 14.2662 107.169 15.5432V22.912C107.168 24.3459 106.452 25.0629 105.02 25.0629Z" fill="#2E3E49"/>
<path d="M128.952 25.13C127.911 25.1242 126.872 25.0229 125.85 24.8276C124.819 24.6476 123.828 24.2947 122.918 23.7844C122.591 23.5989 122.324 23.3244 122.15 22.9934C122.007 22.713 121.948 22.3979 121.98 22.0853C122.009 21.7936 122.128 21.5177 122.321 21.2944C122.514 21.0699 122.779 20.9159 123.071 20.8569C123.378 20.7901 123.713 20.8462 124.077 21.0251C124.891 21.42 125.749 21.7202 126.634 21.9198C127.408 22.086 128.198 22.1705 128.991 22.1721C130.079 22.1721 130.891 21.9869 131.429 21.6165C131.966 21.2461 132.233 20.7582 132.229 20.1528C132.229 19.6374 132.053 19.2393 131.701 18.9583C131.35 18.6774 130.821 18.4701 130.116 18.3365L126.706 17.6968C125.297 17.4278 124.223 16.9175 123.485 16.1659C122.747 15.4144 122.378 14.4442 122.377 13.2555C122.377 12.1782 122.679 11.2471 123.283 10.4622C123.888 9.67722 124.723 9.0718 125.789 8.64592C126.857 8.22004 128.084 8.0068 129.47 8.00621C130.417 8.00039 131.36 8.10763 132.281 8.32562C133.167 8.54454 134.021 8.87849 134.819 9.31874C135.115 9.45631 135.355 9.69002 135.497 9.98084C135.64 10.2717 135.677 10.602 135.603 10.9167C135.536 11.2145 135.395 11.4911 135.193 11.7219C134.998 11.9524 134.726 12.1073 134.426 12.1594C134.12 12.2149 133.773 12.1541 133.387 11.9742C132.744 11.6384 132.063 11.3786 131.358 11.2003C130.75 11.0486 130.127 10.9696 129.5 10.965C128.387 10.965 127.563 11.1556 127.028 11.5367C126.494 11.9179 126.227 12.4225 126.228 13.0506C126.222 13.2686 126.261 13.4855 126.343 13.6881C126.425 13.8906 126.548 14.0743 126.705 14.228C127.023 14.5429 127.512 14.7562 128.171 14.8677L131.58 15.5074C133.056 15.7758 134.174 16.2691 134.934 16.9873C135.694 17.7054 136.074 18.6702 136.076 19.8817C136.076 21.519 135.429 22.8032 134.134 23.7343C132.838 24.6654 131.111 25.1306 128.952 25.13Z" fill="#2E3E49"/>
<path d="M144.974 25.1298C143.77 25.1298 142.696 24.8998 141.753 24.44C140.859 24.0228 140.095 23.3783 139.537 22.5727C139.003 21.7875 138.723 20.8603 138.736 19.9145C138.736 18.7031 139.054 17.7443 139.69 17.0381C140.327 16.3318 141.361 15.8215 142.792 15.5072C144.225 15.1935 146.145 15.0363 148.554 15.0357H150.259V17.4586H148.589C147.179 17.4586 146.054 17.526 145.214 17.6608C144.373 17.7956 143.776 18.0252 143.423 18.3497C143.07 18.6754 142.894 19.1299 142.895 19.7132C142.895 20.4529 143.156 21.0583 143.679 21.5295C144.202 22.0007 144.929 22.2363 145.861 22.2363C146.562 22.2495 147.253 22.0688 147.855 21.7147C148.436 21.3665 148.912 20.8725 149.236 20.2832C149.586 19.6427 149.762 18.924 149.747 18.1967V14.3289C149.747 13.2081 149.497 12.4008 148.998 11.9069C148.498 11.413 147.657 11.1661 146.475 11.1661C145.758 11.1724 145.044 11.2513 144.344 11.4014C143.515 11.5805 142.709 11.8506 141.94 12.2066C141.509 12.4088 141.128 12.4649 140.798 12.3748C140.48 12.2932 140.206 12.0948 140.031 11.8201C139.851 11.5442 139.756 11.2223 139.759 10.8941C139.762 10.5458 139.856 10.2041 140.031 9.90187C140.212 9.57739 140.519 9.33612 140.952 9.17805C141.924 8.77675 142.935 8.47485 143.969 8.27708C144.84 8.1076 145.724 8.01775 146.612 8.00867C148.248 8.00867 149.594 8.25531 150.651 8.74859C151.673 9.20989 152.508 9.99793 153.021 10.9854C153.543 11.9839 153.804 13.2681 153.805 14.838V22.9136C153.805 23.6097 153.634 24.1426 153.293 24.5124C152.953 24.8822 152.464 25.0672 151.827 25.0672C151.19 25.0672 150.696 24.8822 150.345 24.5124C149.993 24.1426 149.817 23.6097 149.816 22.9136V21.2942H150.088C149.953 22.0299 149.637 22.7216 149.167 23.3084C148.697 23.8952 148.089 24.359 147.395 24.6592C146.69 24.9735 145.883 25.1304 144.974 25.1298Z" fill="#2E3E49"/>
<path d="M164.032 25.063C163.002 25.0621 161.976 24.9264 160.981 24.6595C159.943 24.3776 158.967 23.91 158.1 23.2798C157.932 23.1871 157.803 23.0379 157.738 22.8593C157.681 22.6912 157.67 22.5115 157.704 22.3377C157.734 22.1655 157.817 22.0067 157.942 21.8832C158.066 21.7607 158.229 21.6836 158.403 21.6649C158.61 21.6493 158.816 21.7091 158.982 21.8331C159.869 22.4164 160.732 22.8202 161.573 23.0445C162.395 23.2664 163.244 23.3796 164.096 23.3809C165.482 23.3809 166.539 23.1229 167.269 22.607C167.998 22.091 168.361 21.3956 168.357 20.5205C168.357 19.8048 168.124 19.2498 167.658 18.8555C167.192 18.4612 166.436 18.1415 165.391 17.8964L162.43 17.2244C160.999 16.9101 159.941 16.3995 159.257 15.6927C158.573 14.9859 158.232 14.0718 158.234 12.9504C158.234 11.9871 158.49 11.1461 159.001 10.4273C159.513 9.70859 160.24 9.15328 161.183 8.7614C162.126 8.36952 163.211 8.17328 164.439 8.17268C165.41 8.16884 166.377 8.3165 167.302 8.61019C168.185 8.88584 168.999 9.34327 169.689 9.95225C169.856 10.0679 169.982 10.2331 170.047 10.4238C170.103 10.5932 170.103 10.7759 170.047 10.9454C169.993 11.1099 169.892 11.2558 169.757 11.3659C169.624 11.4772 169.455 11.537 169.28 11.5341C169.071 11.5251 168.869 11.4547 168.7 11.3319C167.471 10.395 165.961 9.88712 164.408 9.88783C163.089 9.88783 162.072 10.1562 161.356 10.6931C160.641 11.2299 160.283 11.9588 160.282 12.8797C160.282 13.5758 160.504 14.1368 160.947 14.5627C161.39 14.9886 162.089 15.3136 163.043 15.5379L166.01 16.2107C167.487 16.5471 168.589 17.0464 169.316 17.7085C170.044 18.3706 170.406 19.2623 170.404 20.3836C170.404 21.8188 169.83 22.9571 168.682 23.7987C167.534 24.6404 165.984 25.0618 164.032 25.063Z" fill="#2E3E49"/>
<path d="M181.009 25.0626C179.781 25.0626 178.758 24.8384 177.94 24.3898C177.134 23.9539 176.489 23.2765 176.099 22.4555C175.69 21.6132 175.485 20.5757 175.485 19.3428V10.1273H172.962C172.705 10.1396 172.452 10.0623 172.247 9.90898C172.155 9.83293 172.083 9.73662 172.036 9.62783C171.988 9.51904 171.968 9.40081 171.975 9.28269C171.97 9.17037 171.993 9.05855 172.04 8.95627C172.087 8.85399 172.158 8.76413 172.247 8.69397C172.452 8.54066 172.705 8.46339 172.962 8.47566H175.485V4.27054C175.485 3.91265 175.576 3.64901 175.757 3.47961C175.938 3.31022 176.2 3.22611 176.541 3.22731C176.859 3.22731 177.109 3.31141 177.292 3.47961C177.473 3.64782 177.564 3.91176 177.564 4.27054V8.47566H182.166C182.483 8.47566 182.723 8.54813 182.881 8.69397C182.962 8.7696 183.024 8.86126 183.066 8.96279C183.107 9.06432 183.126 9.17339 183.121 9.28269C183.128 9.39789 183.111 9.51337 183.07 9.62138C183.028 9.7294 182.964 9.82746 182.881 9.90898C182.723 10.0548 182.483 10.1273 182.166 10.1273H177.564V19.0744C177.564 20.4433 177.848 21.4871 178.416 22.2058C178.984 22.9246 179.927 23.2825 181.245 23.2795C181.632 23.2891 182.017 23.2381 182.387 23.1283C182.633 23.0386 182.892 22.9873 183.154 22.9762C183.236 22.9777 183.316 22.9966 183.39 23.0315C183.463 23.0664 183.528 23.1165 183.58 23.1784C183.705 23.3132 183.768 23.5264 183.768 23.8181C183.766 24.0032 183.726 24.186 183.649 24.3549C183.612 24.4417 183.554 24.5179 183.479 24.5767C183.405 24.6355 183.316 24.6749 183.222 24.6913C182.506 24.92 181.76 25.0448 181.007 25.0617L181.009 25.0626Z" fill="#2E3E49"/>
<path d="M192.022 25.0628C190.704 25.0628 189.607 24.8272 188.732 24.356C187.856 23.8852 187.166 23.1383 186.771 22.2346C186.34 21.2928 186.124 20.1264 186.124 18.7354V9.31592C186.124 8.95804 186.215 8.68963 186.396 8.51068C186.577 8.33174 186.839 8.24227 187.18 8.24227C187.317 8.23486 187.454 8.25481 187.583 8.30094C187.712 8.34706 187.83 8.4184 187.93 8.51068C188.111 8.68963 188.202 8.95804 188.202 9.31592V18.6361C188.202 20.206 188.531 21.3781 189.19 22.1523C189.849 22.9265 190.883 23.3142 192.293 23.3154C193.838 23.3154 195.088 22.8048 196.043 21.7837C196.999 20.7625 197.476 19.4216 197.476 17.7611V9.31592C197.476 8.95804 197.567 8.68963 197.748 8.51068C197.93 8.33174 198.192 8.24227 198.532 8.24227C198.669 8.23475 198.806 8.25466 198.935 8.30079C199.064 8.34692 199.182 8.41832 199.282 8.51068C199.463 8.68963 199.554 8.95804 199.554 9.31592V23.9524C199.554 24.6485 199.225 24.9963 198.566 24.9957C198.429 25.0033 198.292 24.9834 198.163 24.9373C198.034 24.8911 197.916 24.8197 197.815 24.7273C197.634 24.5483 197.543 24.2897 197.543 23.9533V20.6241L197.953 20.8594C197.52 22.2283 196.77 23.2722 195.702 23.9909C194.634 24.7097 193.408 25.0669 192.022 25.0628Z" fill="#2E3E49"/>
<path d="M211.352 25.0628C209.874 25.0628 208.584 24.7207 207.483 24.0365C206.381 23.3524 205.528 22.3766 204.925 21.1091C204.321 19.8422 204.019 18.345 204.019 16.6176C204.019 14.8903 204.314 13.3991 204.904 12.1441C205.496 10.8879 206.342 9.9121 207.443 9.21661C208.544 8.52113 209.845 8.17338 211.346 8.17338C212.892 8.17338 214.21 8.56586 215.301 9.35082C216.381 10.1208 217.153 11.2399 217.483 12.5136H217.108V1.91311C217.108 1.55523 217.199 1.29159 217.38 1.12219C217.561 0.952795 217.811 0.868693 218.13 0.869886C218.47 0.869886 218.732 0.953988 218.914 1.12219C219.095 1.2904 219.186 1.55434 219.186 1.91311V23.9524C219.186 24.2889 219.095 24.5474 218.914 24.7264C218.814 24.8186 218.695 24.89 218.567 24.9361C218.438 24.9822 218.301 25.0022 218.164 24.9948C217.823 24.9948 217.561 24.9053 217.38 24.7264C217.199 24.5474 217.108 24.2889 217.108 23.9524V20.4863L217.483 20.7225C217.153 21.9964 216.381 23.1156 215.301 23.8853C214.213 24.6709 212.897 25.0634 211.352 25.0628ZM211.624 23.3467C212.76 23.3467 213.743 23.0831 214.572 22.5558C215.402 22.0285 216.039 21.2603 216.482 20.251C216.925 19.2418 217.146 18.0307 217.146 16.6176C217.146 14.4864 216.652 12.8375 215.664 11.6708C214.676 10.5041 213.329 9.92104 211.624 9.92164C210.51 9.92164 209.538 10.185 208.709 10.7117C207.88 11.2384 207.243 12.0012 206.799 13.0003C206.357 13.9988 206.135 15.2046 206.135 16.6176C206.135 18.7709 206.635 20.4309 207.635 21.5976C208.635 22.7643 209.965 23.3473 211.624 23.3467H211.624Z" fill="#2E3E49"/>
<path d="M225.704 4.26894C225.227 4.26894 224.858 4.14547 224.597 3.89853C224.336 3.65159 224.205 3.30385 224.204 2.8553C224.204 2.40676 224.335 2.06468 224.597 1.82907C224.858 1.59347 225.228 1.47417 225.704 1.47119C226.181 1.47119 226.55 1.59049 226.812 1.82907C227.074 2.06766 227.205 2.40974 227.205 2.8553C227.205 3.30445 227.074 3.65219 226.812 3.89853C226.55 4.14488 226.181 4.26834 225.704 4.26894ZM225.704 24.9286C225.364 24.9286 225.102 24.8275 224.92 24.6253C224.738 24.4231 224.648 24.1547 224.648 23.8201V9.4153C224.648 9.05742 224.739 8.789 224.92 8.61006C225.102 8.43112 225.364 8.34165 225.704 8.34165C225.841 8.33413 225.978 8.35404 226.107 8.40017C226.236 8.4463 226.354 8.5177 226.454 8.61006C226.635 8.789 226.726 9.05742 226.726 9.4153V23.8201C226.726 24.1565 226.641 24.4249 226.47 24.6253C226.3 24.8257 226.045 24.9268 225.704 24.9286Z" fill="#2E3E49"/>
<path d="M238.795 25.0627C237.249 25.0627 235.908 24.715 234.772 24.0195C233.637 23.324 232.756 22.3482 232.13 21.092C231.504 19.8394 231.192 18.3482 231.192 16.6185C231.192 15.3402 231.369 14.1849 231.721 13.1524C232.046 12.1684 232.567 11.2588 233.255 10.4772C233.919 9.73088 234.747 9.14398 235.676 8.76115C236.665 8.36006 237.726 8.15984 238.795 8.17243C240.367 8.17243 241.719 8.52018 242.852 9.21566C243.985 9.91115 244.866 10.8926 245.494 12.1601C246.119 13.4271 246.432 14.9132 246.432 16.6185C246.432 17.9194 246.256 19.0858 245.903 20.1177C245.58 21.0961 245.058 21.9991 244.369 22.7714C243.705 23.5072 242.884 24.088 241.965 24.4713C241.033 24.865 239.976 25.0621 238.795 25.0627ZM238.795 23.3467C239.931 23.3467 240.914 23.083 241.744 22.5558C242.575 22.0285 243.211 21.2602 243.653 20.251C244.097 19.2418 244.318 18.0306 244.318 16.6176C244.318 14.4864 243.823 12.8374 242.835 11.6707C241.846 10.504 240.5 9.92099 238.795 9.92159C237.682 9.92159 236.71 10.1849 235.88 10.7116C235.05 11.2383 234.414 12.0012 233.971 13.0003C233.527 13.9988 233.306 15.2045 233.306 16.6176C233.306 18.7708 233.806 20.4308 234.807 21.5975C235.807 22.7642 237.136 23.3473 238.795 23.3467Z" fill="#2E3E49"/>
<defs>
<linearGradient id="paint0_linear_1002_1166" x1="-35.5473" y1="2.31741" x2="42.0895" y2="69.8493" gradientUnits="userSpaceOnUse">
<stop stop-color="#9CCDA0"/>
<stop offset="0.25" stop-color="#5AA495"/>
<stop offset="0.51" stop-color="#54A7B7"/>
<stop offset="0.76" stop-color="#6E658E"/>
<stop offset="1" stop-color="#CC658E"/>
</linearGradient>
<linearGradient id="paint1_linear_1002_1166" x1="-0.0303678" y1="8.48246" x2="48.0751" y2="26.3655" gradientUnits="userSpaceOnUse">
<stop stop-color="#9CCDA0"/>
<stop offset="0.25" stop-color="#5AA495"/>
<stop offset="0.51" stop-color="#54A7B7"/>
<stop offset="0.76" stop-color="#6E658E"/>
<stop offset="1" stop-color="#CC658E"/>
</linearGradient>
</defs>
</svg>
