<svg width="59" height="14" viewBox="0 0 59 14" fill="none" xmlns="http://www.w3.org/2000/svg">
<g clip-path="url(#clip0_479_44)">
<path d="M58.6327 2.89233C58.0597 2.19288 57.0249 2.08741 56.3183 2.65363C54.6994 3.9637 53.1305 4.56323 51.6673 4.56323C50.1652 4.56878 48.6964 3.91929 47.3334 2.7591C47.3 2.72579 47.2666 2.68694 47.2277 2.65363C47.1164 2.56481 47.0051 2.4871 46.8939 2.40383C45.1637 0.999387 43.2665 0.161163 41.247 0.0279358V0.0168335C41.1135 0.0112824 40.9855 -0.00537109 40.852 -0.00537109C40.8242 -0.00537109 40.7964 -0.00537109 40.7686 -0.00537109C40.7407 -0.00537109 40.7129 -0.00537109 40.6851 -0.00537109C40.6851 -0.00537109 40.6796 -0.00537109 40.674 -0.00537109C40.6684 -0.00537109 40.6684 -0.00537109 40.6629 -0.00537109C40.635 -0.00537109 40.6072 -0.00537109 40.5794 -0.00537109C40.5516 -0.00537109 40.5238 -0.00537109 40.496 -0.00537109C38.2706 -0.00537109 36.1732 0.855057 34.2816 2.39273C34.1704 2.48154 34.0535 2.55926 33.9423 2.64808C32.3901 3.90264 30.8935 4.49661 29.4915 4.54657C28.0895 4.49661 26.593 3.89709 25.0408 2.64808C24.9295 2.55371 24.8127 2.47599 24.7014 2.39273C22.8099 0.855057 20.7125 -0.00537109 18.4871 -0.00537109C18.4593 -0.00537109 18.4315 -0.00537109 18.4036 -0.00537109C18.3758 -0.00537109 18.348 -0.00537109 18.3202 -0.00537109C18.3202 -0.00537109 18.3146 -0.00537109 18.3091 -0.00537109C18.3035 -0.00537109 18.3035 -0.00537109 18.2979 -0.00537109C18.2701 -0.00537109 18.2423 -0.00537109 18.2145 -0.00537109C18.1867 -0.00537109 18.1589 -0.00537109 18.131 -0.00537109C17.9975 -0.00537109 17.8696 0.0112824 17.736 0.0168335V0.0279358C15.7221 0.161163 13.8194 0.999387 12.0892 2.40383C11.9779 2.4871 11.8666 2.56481 11.7554 2.65363C11.7164 2.68694 11.683 2.72579 11.6497 2.7591C10.2866 3.91929 8.81788 4.56878 7.31576 4.56878C5.85258 4.56323 4.2837 3.95815 2.66475 2.64808C1.96376 2.07631 0.923401 2.18178 0.35037 2.88678C-0.222662 3.58622 -0.116957 4.62429 0.589596 5.19606C2.84278 7.01683 5.11821 7.85506 7.31576 7.85506C9.68578 7.85506 11.9111 6.88916 13.8973 5.16275C13.9696 5.09614 14.0475 5.04062 14.1254 4.97956C15.5774 3.87488 16.985 3.34197 18.3091 3.29756C19.6332 3.34197 21.0351 3.87488 22.4928 4.97956C22.5651 5.04062 22.643 5.09614 22.7153 5.16275C24.7014 6.88916 26.9268 7.85506 29.2968 7.85506C29.3302 7.85506 29.358 7.85506 29.3914 7.85506C29.4248 7.85506 29.4526 7.85506 29.4804 7.85506C29.4804 7.85506 29.486 7.85506 29.4915 7.85506C29.4971 7.85506 29.4971 7.85506 29.5027 7.85506C29.5305 7.85506 29.5639 7.85506 29.5917 7.85506C29.625 7.85506 29.6529 7.85506 29.6862 7.85506C32.0563 7.85506 34.2816 6.88916 36.2678 5.16275C36.3401 5.09614 36.418 5.04062 36.4903 4.97956C37.9423 3.87488 39.3499 3.34197 40.674 3.29756C41.9981 3.34197 43.4001 3.87488 44.8577 4.97956C44.93 5.04062 45.0079 5.09614 45.0858 5.16275C47.0663 6.88916 49.2973 7.84951 51.6673 7.84951C53.8648 7.84951 56.1403 7.01683 58.3935 5.19606C59.0944 4.62429 59.2057 3.59177 58.6327 2.88678V2.89233Z" fill="white"/>
<path d="M29.6917 14.0001H29.6583C26.2424 13.889 22.743 12.4902 19.2603 9.84781L19.2269 9.82561C19.1657 9.77565 19.1045 9.72569 19.0433 9.67573C18.9265 9.58136 18.8041 9.48699 18.6762 9.37596C18.2367 8.99293 18.1921 8.3268 18.576 7.88826C18.9599 7.44971 19.6275 7.40531 20.067 7.78833C20.1616 7.86605 20.2562 7.94932 20.3619 8.03259C20.4231 8.08255 20.4898 8.13251 20.5566 8.18802C23.661 10.5417 26.7375 11.7907 29.6917 11.8962C32.6459 11.7907 35.7169 10.5417 38.8268 8.18802C38.888 8.13806 38.9548 8.08255 39.0216 8.03259C39.1273 7.94932 39.2274 7.8716 39.3164 7.78833C39.7559 7.40531 40.4235 7.44971 40.8074 7.89381C41.1913 8.33235 41.1468 8.99849 40.7017 9.38151C40.5738 9.49254 40.4514 9.58691 40.3345 9.68128C40.2733 9.73124 40.2121 9.77565 40.1509 9.83116L40.1176 9.85336C36.6349 12.4957 33.1355 13.8946 29.7195 14.0056H29.6862L29.6917 14.0001Z" fill="white"/>
</g>
<defs>
<clipPath id="clip0_479_44">
<rect width="59" height="14" fill="white"/>
</clipPath>
</defs>
</svg>
