<svg width="60" height="16" viewBox="0 0 60 16" fill="none" xmlns="http://www.w3.org/2000/svg">
<path d="M30.4341 8.14739C27.3836 8.18846 25.1907 7.14424 23.2173 5.5122C21.692 4.25092 20.0212 3.29469 17.9375 3.5798C16.3958 3.79099 15.1298 4.6029 13.96 5.57438C12.037 7.17474 9.87937 8.18025 7.33334 8.13918C4.70988 8.09694 2.49589 6.99992 0.538857 5.33973C-0.138128 4.76599 -0.165113 3.74641 0.394543 3.05886C0.667791 2.73395 1.05426 2.52498 1.47576 2.47422C1.89725 2.42347 2.32228 2.53473 2.66485 2.78549C2.99923 3.02014 3.32189 3.27709 3.66331 3.50354C6.49562 5.38079 9.33379 5.16373 11.8833 2.9298C13.3417 1.65092 14.982 0.679443 16.9179 0.313378C19.7948 -0.232199 22.3666 0.489372 24.6886 2.22466C25.4078 2.76202 26.1141 3.3252 26.8767 3.79451C28.9241 5.05462 31.0149 5.08512 33.074 3.82267C33.8531 3.34397 34.5758 2.76672 35.3138 2.22701C36.7874 1.14524 38.3913 0.380256 40.2322 0.18901C42.8287 -0.0820181 45.1354 0.658325 47.2074 2.20471C47.8327 2.67403 48.4241 3.18675 49.0659 3.6279C51.1449 5.05579 53.3178 5.15317 55.5342 3.97168C56.1431 3.62358 56.7307 3.23963 57.2941 2.82186C58.0673 2.28098 59.054 2.37132 59.6102 3.05652C59.7526 3.22574 59.8598 3.42169 59.9256 3.63288C59.9913 3.84407 60.0143 4.06625 59.9931 4.28642C59.9719 4.50659 59.907 4.72032 59.8021 4.91509C59.6973 5.10985 59.5546 5.28174 59.3825 5.42068C55.2256 8.83963 50.4222 9.17519 46.1327 5.64595C45.7701 5.34911 45.404 5.05931 45.0169 4.7918C42.5436 3.10931 40.2463 3.09523 37.7671 4.76951C37.0878 5.22826 36.4695 5.77501 35.8042 6.25371C34.0009 7.55606 32.1471 8.14857 30.4341 8.14739Z" fill="#FFF0D9"/>
<path d="M42.1904 8.8737C42.0414 8.39942 41.7287 7.99354 41.308 7.72858C41.1237 7.61827 40.9128 7.56027 40.6979 7.56079C40.2803 7.56079 39.9025 7.77551 39.6197 7.96323C39.3006 8.17442 38.9779 8.39383 38.667 8.60502C37.638 9.30195 36.5727 10.0235 35.4733 10.5996C33.7298 11.5171 31.9535 11.9829 30.1935 11.9829C28.4336 11.9829 26.6549 11.5136 24.9138 10.5973C23.8097 10.0106 22.7408 9.29373 21.706 8.5968C21.3974 8.38913 21.0771 8.17325 20.7603 7.9644C20.4317 7.73007 20.0409 7.59858 19.6375 7.58661C19.4101 7.58661 19.186 7.64053 18.9834 7.74393C18.7809 7.84734 18.6058 7.99728 18.4724 8.18146C18.3477 8.34073 18.2563 8.52347 18.2037 8.71879C18.1511 8.91411 18.1384 9.11802 18.1662 9.31837C18.2038 9.5409 18.2855 9.75369 18.4063 9.94428C18.5272 10.1349 18.6849 10.2994 18.8702 10.4283L19.2222 10.6899C20.0575 11.3047 20.9211 11.9407 21.8304 12.4886C24.5524 14.1312 27.3096 15.0264 29.8087 15.0898H29.8228C31.8432 15.0815 33.6266 14.7296 35.6047 13.9517C37.5242 13.1961 39.4214 12.0744 41.4019 10.5374C41.714 10.3004 42.4367 9.73841 42.1904 8.8737Z" fill="#FFF0D9"/>
</svg>
