<svg width="161" height="17" viewBox="0 0 161 17" fill="none" xmlns="http://www.w3.org/2000/svg">
<path d="M36.7619 16.5219C36.3182 16.5219 35.9779 16.4 35.7411 16.1561C35.5043 15.9122 35.3862 15.5607 35.387 15.1016V6.71362C35.387 6.25532 35.505 5.90757 35.7411 5.67036C35.9771 5.43315 36.3099 5.31513 36.7395 5.31631C37.1683 5.31631 37.5013 5.43433 37.7385 5.67036C37.9757 5.90639 38.0937 6.25414 38.0925 6.71362V8.33339L37.8488 7.66778C38.1206 6.95836 38.5999 6.34738 39.2243 5.91465C39.8455 5.48586 40.5852 5.27127 41.4436 5.27087C42.3161 5.27087 43.0337 5.47799 43.5962 5.89223C44.1588 6.30646 44.5508 6.94257 44.7722 7.80054H44.4619C44.7379 7.0414 45.2516 6.3916 45.9264 5.9477C46.607 5.49687 47.391 5.27127 48.2785 5.27087C49.107 5.27087 49.7913 5.43354 50.3314 5.75887C50.8715 6.0842 51.2747 6.57593 51.541 7.23407C51.807 7.8926 51.9401 8.72481 51.9405 9.73069V15.1004C51.9405 15.5595 51.8184 15.911 51.5741 16.1549C51.3298 16.3988 50.9858 16.5207 50.542 16.5207C50.0983 16.5207 49.758 16.3988 49.5212 16.1549C49.2844 15.911 49.1664 15.5595 49.1671 15.1004V9.84222C49.1671 9.01375 49.0295 8.40715 48.7541 8.02241C48.4787 7.63768 48.0163 7.44551 47.3668 7.44591C46.6422 7.44591 46.0718 7.70161 45.6556 8.21301C45.2394 8.72441 45.0323 9.43093 45.0342 10.3326V15.1034C45.0342 15.5624 44.9162 15.9139 44.6802 16.1578C44.4442 16.4017 44.1039 16.5237 43.6594 16.5237C43.2156 16.5237 42.8716 16.4017 42.6273 16.1578C42.383 15.9139 42.2611 15.5624 42.2615 15.1034V9.84222C42.2615 9.01375 42.1238 8.40715 41.8484 8.02241C41.573 7.63768 41.1181 7.44551 40.4835 7.44591C39.7585 7.44591 39.1881 7.70161 38.7723 8.21301C38.3565 8.72441 38.1494 9.43093 38.151 10.3326V15.1034C38.1557 16.0491 37.6927 16.5219 36.7619 16.5219Z" fill="#FFF0D9"/>
<path d="M58.3748 16.5663C57.5908 16.5663 56.8917 16.4146 56.2776 16.1113C55.6958 15.8364 55.1978 15.4113 54.8349 14.8798C54.4872 14.3619 54.3055 13.7504 54.3138 13.1267C54.3138 12.3278 54.521 11.6954 54.9352 11.2296C55.3494 10.7638 56.0225 10.4273 56.9544 10.22C57.886 10.0131 59.1362 9.90941 60.705 9.90902H61.8143V11.507H60.7268C59.8091 11.507 59.0768 11.5514 58.53 11.6403C57.9832 11.7292 57.5949 11.8807 57.3651 12.0947C57.1358 12.3095 57.0211 12.6092 57.0211 12.994C57.0211 13.4818 57.1913 13.881 57.5315 14.1918C57.8718 14.5026 58.3453 14.658 58.9519 14.658C59.4082 14.6665 59.8578 14.5474 60.25 14.314C60.6278 14.0842 60.9378 13.7584 61.1487 13.3698C61.3763 12.9474 61.4909 12.4735 61.4815 11.9938V9.44286C61.4815 8.70368 61.3187 8.17124 60.993 7.84551C60.6672 7.51979 60.1198 7.35693 59.3508 7.35693C58.8844 7.36113 58.4198 7.41313 57.9641 7.51212C57.4245 7.63024 56.8998 7.80837 56.3998 8.04319C56.1185 8.17655 55.8707 8.21352 55.6563 8.15412C55.4491 8.10063 55.2705 7.96967 55.1571 7.78827C55.0398 7.60632 54.9782 7.39403 54.98 7.17754C54.9819 6.94783 55.0429 6.72247 55.1571 6.52314C55.2751 6.30914 55.4747 6.15002 55.756 6.04577C56.3886 5.7811 57.0466 5.58199 57.7198 5.45156C58.2865 5.33981 58.8623 5.28055 59.4399 5.27454C60.5048 5.27454 61.3812 5.4372 62.0693 5.76253C62.7347 6.06677 63.2781 6.5865 63.6117 7.23773C63.952 7.89626 64.1221 8.74322 64.1221 9.77861V15.1047C64.1221 15.5637 64.0112 15.9152 63.7893 16.1591C63.5675 16.403 63.2494 16.525 62.8352 16.525C62.4209 16.525 62.0992 16.403 61.8698 16.1591C61.6405 15.9152 61.5258 15.5637 61.5258 15.1047V14.0366H61.7028C61.6153 14.5217 61.4099 14.9779 61.1046 15.3649C60.7993 15.7519 60.4035 16.0579 59.952 16.2559C59.4918 16.4632 58.966 16.5667 58.3748 16.5663Z" fill="#FFF0D9"/>
<path d="M68.3164 16.522C67.8726 16.522 67.5324 16.4 67.2955 16.1561C67.0587 15.9122 66.9407 15.5608 66.9415 15.1017V6.7137C66.9415 6.2554 67.0595 5.90765 67.2955 5.67044C67.5316 5.43323 67.8644 5.31521 68.294 5.31639C68.7232 5.31639 69.0562 5.43441 69.293 5.67044C69.5298 5.90647 69.6478 6.25422 69.647 6.7137V8.22489L69.4033 7.67022C69.7286 6.88581 70.2353 6.29022 70.9234 5.88346C71.6114 5.4767 72.3917 5.27332 73.2642 5.27332C74.1371 5.27332 74.8547 5.43598 75.4168 5.76131C75.979 6.08664 76.4007 6.57837 76.6819 7.23651C76.9628 7.89504 77.1035 8.72725 77.1039 9.73313V15.1029C77.1039 15.5619 76.9858 15.9134 76.7498 16.1573C76.5138 16.4012 76.1735 16.5232 75.729 16.5232C75.2852 16.5232 74.9412 16.4012 74.6969 16.1573C74.4526 15.9134 74.3307 15.5619 74.3311 15.1029V9.86472C74.3311 9.0217 74.1719 8.40762 73.8537 8.0225C73.5354 7.63737 73.0437 7.4452 72.3785 7.44599C71.565 7.44599 70.9177 7.70169 70.4365 8.21309C69.9554 8.72449 69.7151 9.40131 69.7155 10.2436V15.1034C69.7147 16.0491 69.2483 16.522 68.3164 16.522Z" fill="#FFF0D9"/>
<path d="M83.8945 16.5664C83.2167 16.5625 82.5407 16.4958 81.8752 16.3669C81.2045 16.2482 80.5591 16.0155 79.9669 15.6789C79.7537 15.5566 79.5802 15.3755 79.4671 15.1573C79.3738 14.9723 79.3353 14.7645 79.3562 14.5583C79.3753 14.3659 79.4527 14.184 79.5781 14.0367C79.7041 13.8886 79.8761 13.7871 80.0667 13.7482C80.2661 13.7041 80.4842 13.7411 80.721 13.8591C81.2512 14.1195 81.8098 14.3176 82.3857 14.4492C82.8897 14.5588 83.404 14.6145 83.9199 14.6156C84.628 14.6156 85.1569 14.4934 85.5066 14.2491C85.8563 14.0048 86.03 13.6831 86.0276 13.2838C86.0276 12.9439 85.9132 12.6813 85.6842 12.496C85.4553 12.3107 85.1112 12.174 84.6522 12.0859L82.4329 11.664C81.5151 11.4866 80.816 11.15 80.3357 10.6544C79.8554 10.1587 79.615 9.51887 79.6146 8.73485C79.6146 8.02439 79.8113 7.41032 80.2047 6.89262C80.5981 6.37492 81.1418 5.97564 81.8357 5.69476C82.5308 5.41388 83.3296 5.27325 84.232 5.27285C84.848 5.26901 85.4622 5.33975 86.0613 5.48351C86.6385 5.6279 87.1941 5.84814 87.7135 6.1385C87.9063 6.22923 88.0622 6.38336 88.1551 6.57516C88.248 6.76697 88.2723 6.98483 88.2239 7.19238C88.1804 7.38876 88.0887 7.57125 87.9572 7.72345C87.83 7.87543 87.6532 7.97761 87.458 8.012C87.2585 8.04859 87.0325 8.00846 86.7812 7.88986C86.3626 7.66835 85.9193 7.49703 85.4606 7.37944C85.0652 7.27936 84.6593 7.22726 84.2515 7.22424C83.5265 7.22424 82.9901 7.34993 82.6423 7.60131C82.2946 7.85268 82.1209 8.18548 82.1213 8.59972C82.1172 8.7435 82.1426 8.88659 82.196 9.02016C82.2494 9.15372 82.3296 9.27492 82.4317 9.37626C82.639 9.58397 82.9571 9.72461 83.3858 9.79817L85.6051 10.2201C86.5662 10.3971 87.2939 10.7224 87.7884 11.1961C88.2829 11.6697 88.5307 12.306 88.5319 13.105C88.5319 14.1848 88.1104 15.0318 87.2674 15.6459C86.4244 16.2599 85.3001 16.5668 83.8945 16.5664Z" fill="#FFF0D9"/>
<path d="M94.3241 16.5663C93.5401 16.5663 92.8411 16.4146 92.227 16.1113C91.6454 15.8362 91.1477 15.4111 90.7848 14.8798C90.437 14.362 90.2551 13.7505 90.2632 13.1267C90.2632 12.3278 90.4703 11.6954 90.8846 11.2296C91.2988 10.7638 91.9719 10.4273 92.9038 10.22C93.8361 10.0131 95.0863 9.90941 96.6544 9.90902H97.7643V11.507H96.6768C95.7594 11.507 95.0271 11.5514 94.4799 11.6403C93.9327 11.7292 93.5442 11.8807 93.3145 12.0947C93.0848 12.3095 92.9701 12.6092 92.9705 12.994C92.9705 13.4818 93.1406 13.881 93.4809 14.1918C93.8212 14.5026 94.2946 14.658 94.9012 14.658C95.3576 14.6667 95.8073 14.5475 96.1994 14.314C96.5772 14.0843 96.8874 13.7585 97.0981 13.3698C97.3257 12.9474 97.4403 12.4735 97.4309 11.9938V9.44286C97.4309 8.70368 97.2682 8.17124 96.9429 7.84551C96.6176 7.51979 96.0702 7.35693 95.3007 7.35693C94.8344 7.3611 94.3697 7.4131 93.914 7.51212C93.3742 7.63023 92.8493 7.80836 92.3491 8.04319C92.0683 8.17655 91.8204 8.21352 91.6056 8.15412C91.3987 8.10029 91.2201 7.96942 91.1064 7.78827C90.9891 7.60632 90.9276 7.39403 90.9294 7.17754C90.9313 6.94783 90.9922 6.72247 91.1064 6.52314C91.2244 6.30914 91.4243 6.15002 91.7059 6.04577C92.3385 5.7811 92.9966 5.58199 93.6697 5.45156C94.2364 5.33978 94.8122 5.28052 95.3898 5.27454C96.4547 5.27454 97.3312 5.4372 98.0192 5.76253C98.6847 6.06677 99.2281 6.5865 99.5617 7.23773C99.9016 7.89626 100.072 8.74322 100.072 9.77861V15.1047C100.072 15.5637 99.9612 15.9152 99.7393 16.1591C99.5174 16.403 99.1992 16.525 98.7845 16.525C98.3703 16.525 98.0487 16.403 97.8198 16.1591C97.5908 15.9152 97.4761 15.5637 97.4757 15.1047V14.0366H97.6528C97.5648 14.5219 97.3589 14.9781 97.0532 15.365C96.7475 15.752 96.3513 16.058 95.8996 16.2559C95.441 16.4632 94.9158 16.5667 94.3241 16.5663Z" fill="#FFF0D9"/>
<path d="M106.729 16.522C106.058 16.5214 105.391 16.432 104.743 16.2559C104.068 16.07 103.432 15.7616 102.868 15.346C102.758 15.2849 102.675 15.1864 102.632 15.0686C102.595 14.9578 102.588 14.8393 102.61 14.7246C102.63 14.6111 102.684 14.5064 102.765 14.4249C102.846 14.3441 102.952 14.2933 103.065 14.2809C103.2 14.2706 103.334 14.3101 103.442 14.3918C104.019 14.7766 104.581 15.0429 105.128 15.1908C105.664 15.3372 106.216 15.4118 106.771 15.4127C107.673 15.4127 108.361 15.2425 108.836 14.9022C109.311 14.562 109.547 14.1033 109.544 13.5262C109.544 13.0541 109.392 12.6881 109.089 12.428C108.786 12.168 108.294 11.9572 107.614 11.7955L105.686 11.3523C104.755 11.145 104.066 10.8083 103.621 10.3421C103.176 9.87595 102.954 9.27308 102.955 8.53352C102.955 7.8982 103.122 7.34352 103.454 6.86949C103.787 6.39546 104.261 6.02922 104.875 5.77077C105.488 5.51231 106.195 5.38289 106.994 5.38249C107.626 5.37996 108.255 5.47734 108.858 5.67104C109.432 5.85284 109.962 6.15452 110.411 6.55616C110.52 6.63244 110.602 6.74136 110.645 6.86713C110.681 6.97889 110.681 7.0994 110.645 7.21115C110.609 7.31968 110.544 7.4159 110.456 7.48849C110.369 7.56189 110.259 7.60131 110.145 7.59942C110.009 7.59351 109.878 7.54708 109.768 7.46606C108.967 6.84816 107.985 6.51321 106.974 6.51368C106.115 6.51368 105.453 6.6907 104.987 7.04475C104.522 7.3988 104.289 7.87951 104.288 8.4869C104.288 8.94598 104.432 9.31596 104.721 9.59684C105.009 9.87772 105.464 10.0921 106.086 10.24L108.016 10.6838C108.978 10.9056 109.696 11.2349 110.169 11.6716C110.642 12.1082 110.878 12.6963 110.877 13.4359C110.877 14.3824 110.503 15.1332 109.756 15.6882C109.008 16.2433 108 16.5212 106.729 16.522Z" fill="#FFF0D9"/>
<path d="M117.78 16.522C116.981 16.522 116.315 16.3741 115.782 16.0782C115.258 15.7907 114.838 15.344 114.584 14.8025C114.318 14.247 114.184 13.5627 114.184 12.7496V6.67179H112.542C112.375 6.67989 112.21 6.62892 112.077 6.52781C112.017 6.47766 111.97 6.41414 111.939 6.34239C111.908 6.27064 111.895 6.19267 111.9 6.11476C111.897 6.04069 111.911 5.96693 111.942 5.89948C111.973 5.83202 112.019 5.77276 112.077 5.72649C112.21 5.62538 112.375 5.57441 112.542 5.58251H114.184V2.80913C114.184 2.5731 114.243 2.39923 114.361 2.2875C114.48 2.17578 114.65 2.12032 114.872 2.1211C115.079 2.1211 115.242 2.17657 115.36 2.2875C115.479 2.39844 115.538 2.57251 115.538 2.80913V5.58251H118.533C118.74 5.58251 118.896 5.6303 118.999 5.72649C119.051 5.77637 119.092 5.83682 119.119 5.90378C119.146 5.97074 119.158 6.04268 119.155 6.11476C119.16 6.19073 119.148 6.2669 119.121 6.33814C119.095 6.40938 119.053 6.47405 118.999 6.52781C118.896 6.624 118.74 6.67179 118.533 6.67179H115.538V12.5726C115.538 13.4754 115.722 14.1638 116.092 14.6379C116.462 15.1119 117.076 15.3479 117.934 15.346C118.185 15.3523 118.436 15.3186 118.677 15.2462C118.838 15.1871 119.006 15.1533 119.177 15.1459C119.23 15.1469 119.282 15.1594 119.33 15.1824C119.378 15.2054 119.42 15.2385 119.454 15.2793C119.535 15.3682 119.576 15.5088 119.576 15.7012C119.575 15.8233 119.549 15.9438 119.499 16.0552C119.475 16.1125 119.436 16.1627 119.388 16.2015C119.339 16.2402 119.282 16.2662 119.221 16.2771C118.754 16.4279 118.269 16.5102 117.779 16.5214L117.78 16.522Z" fill="#FFF0D9"/>
<path d="M124.949 16.5219C124.091 16.5219 123.377 16.3665 122.807 16.0557C122.237 15.7453 121.788 15.2527 121.531 14.6566C121.25 14.0355 121.11 13.2662 121.11 12.3488V6.13649C121.11 5.90045 121.169 5.72343 121.287 5.60541C121.405 5.4874 121.575 5.42839 121.797 5.42839C121.886 5.4235 121.975 5.43666 122.059 5.46708C122.143 5.4975 122.22 5.54455 122.285 5.60541C122.403 5.72343 122.462 5.90045 122.462 6.13649V12.2833C122.462 13.3187 122.676 14.0917 123.105 14.6024C123.534 15.113 124.207 15.3687 125.125 15.3695C126.131 15.3695 126.944 15.0327 127.566 14.3592C128.188 13.6858 128.499 12.8014 128.499 11.7062V6.13649C128.499 5.90045 128.558 5.72343 128.676 5.60541C128.794 5.4874 128.965 5.42839 129.187 5.42839C129.276 5.42343 129.365 5.43656 129.449 5.46698C129.533 5.49741 129.609 5.5445 129.675 5.60541C129.793 5.72343 129.852 5.90045 129.852 6.13649V15.7896C129.852 16.2487 129.637 16.478 129.208 16.4776C129.119 16.4826 129.03 16.4695 128.946 16.4391C128.862 16.4087 128.785 16.3616 128.72 16.3006C128.602 16.1826 128.543 16.0121 128.543 15.7902V13.5945L128.81 13.7497C128.528 14.6525 128.039 15.3409 127.344 15.815C126.649 16.289 125.851 16.5246 124.949 16.5219Z" fill="#FFF0D9"/>
<path d="M137.531 16.522C136.569 16.522 135.73 16.2964 135.012 15.8452C134.295 15.394 133.74 14.7504 133.348 13.9145C132.954 13.0789 132.758 12.0915 132.758 10.9523C132.758 9.81303 132.95 8.82957 133.334 8.00188C133.719 7.17341 134.27 6.52983 134.986 6.07114C135.703 5.61245 136.55 5.38311 137.527 5.38311C138.534 5.38311 139.392 5.64196 140.102 6.15965C140.805 6.66745 141.307 7.40556 141.522 8.24558H141.278V1.25433C141.278 1.01829 141.337 0.844416 141.455 0.732695C141.573 0.620973 141.736 0.565506 141.943 0.566292C142.165 0.566292 142.335 0.62176 142.453 0.732695C142.571 0.84363 142.63 1.0177 142.63 1.25433V15.7897C142.63 16.0116 142.571 16.1821 142.453 16.3002C142.388 16.361 142.311 16.4081 142.227 16.4385C142.144 16.4689 142.054 16.4821 141.965 16.4772C141.743 16.4772 141.573 16.4182 141.455 16.3002C141.337 16.1821 141.278 16.0116 141.278 15.7897V13.5038L141.522 13.6596C141.307 14.4997 140.805 15.2378 140.102 15.7455C139.394 16.2636 138.537 16.5224 137.531 16.522ZM137.708 15.3903C138.447 15.3903 139.087 15.2164 139.627 14.8686C140.168 14.5209 140.582 14.0142 140.87 13.3486C141.158 12.683 141.303 11.8842 141.303 10.9523C141.303 9.54671 140.981 8.45919 140.338 7.68973C139.695 6.92027 138.818 6.53573 137.708 6.53612C136.983 6.53612 136.351 6.7098 135.811 7.05716C135.271 7.40452 134.857 7.90766 134.568 8.56659C134.28 9.22511 134.135 10.0203 134.135 10.9523C134.135 12.3724 134.461 13.4672 135.112 14.2367C135.763 15.0061 136.628 15.3907 137.708 15.3903H137.708Z" fill="#FFF0D9"/>
<path d="M146.874 2.80795C146.563 2.80795 146.322 2.72652 146.153 2.56365C145.983 2.40079 145.897 2.17145 145.897 1.87562C145.897 1.57979 145.982 1.35419 146.153 1.1988C146.323 1.04341 146.563 0.964735 146.874 0.962769C147.184 0.962769 147.424 1.04145 147.595 1.1988C147.765 1.35615 147.85 1.58176 147.85 1.87562C147.85 2.17184 147.765 2.40119 147.595 2.56365C147.424 2.72612 147.184 2.80755 146.874 2.80795ZM146.874 16.4335C146.652 16.4335 146.482 16.3668 146.363 16.2334C146.245 16.1001 146.186 15.923 146.186 15.7024V6.20208C146.186 5.96605 146.245 5.78903 146.363 5.67101C146.481 5.553 146.652 5.49399 146.874 5.49399C146.963 5.48903 147.052 5.50216 147.136 5.53258C147.22 5.563 147.296 5.61009 147.362 5.67101C147.48 5.78903 147.539 5.96605 147.539 6.20208V15.7024C147.539 15.9242 147.483 16.1013 147.372 16.2334C147.261 16.3656 147.095 16.4323 146.874 16.4335Z" fill="#FFF0D9"/>
<path d="M155.395 16.522C154.388 16.522 153.515 16.2926 152.776 15.8339C152.037 15.3752 151.464 14.7317 151.056 13.9032C150.649 13.0771 150.446 12.0936 150.446 10.9528C150.446 10.1098 150.561 9.34778 150.79 8.66683C151.002 8.01788 151.341 7.41794 151.788 6.90249C152.221 6.41028 152.76 6.0232 153.365 5.77072C154.008 5.50619 154.699 5.37414 155.395 5.38245C156.418 5.38245 157.298 5.61179 158.036 6.07048C158.773 6.52917 159.346 7.17649 159.755 8.01243C160.162 8.84798 160.366 9.82811 160.366 10.9528C160.366 11.8108 160.251 12.58 160.022 13.2606C159.811 13.9059 159.471 14.5015 159.023 15.0108C158.591 15.4961 158.057 15.8791 157.458 16.1319C156.851 16.3916 156.164 16.5216 155.395 16.522ZM155.395 15.3902C156.134 15.3902 156.774 15.2163 157.315 14.8686C157.855 14.5208 158.269 14.0141 158.557 13.3485C158.846 12.6829 158.99 11.8841 158.99 10.9522C158.99 9.54664 158.668 8.45912 158.024 7.68966C157.381 6.9202 156.504 6.53566 155.395 6.53605C154.67 6.53605 154.037 6.70973 153.497 7.05709C152.957 7.40445 152.543 7.90759 152.255 8.56652C151.966 9.22504 151.822 10.0203 151.822 10.9522C151.822 12.3723 152.148 13.4671 152.799 14.2366C153.45 15.0061 154.315 15.3906 155.395 15.3902Z" fill="#FFF0D9"/>
<path d="M15.3066 11.1642C13.7724 11.1848 12.6696 10.6597 11.6771 9.83887C10.91 9.20454 10.0697 8.72362 9.0217 8.86701C8.24634 8.97323 7.60964 9.38156 7.02133 9.87015C6.05419 10.675 4.96904 11.1807 3.68857 11.1601C2.36915 11.1388 1.25567 10.5871 0.271417 9.75213C-0.0690587 9.46358 -0.0826306 8.9508 0.198837 8.60502C0.336262 8.44161 0.530631 8.33651 0.742611 8.31099C0.954592 8.28546 1.16835 8.34142 1.34064 8.46753C1.50881 8.58554 1.67109 8.71477 1.8428 8.82866C3.26725 9.77278 4.69465 9.66362 5.97689 8.54011C6.71036 7.89692 7.53529 7.40834 8.50892 7.22423C9.9558 6.94984 11.2493 7.31274 12.417 8.18547C12.7787 8.45573 13.134 8.73897 13.5175 8.975C14.5472 9.60874 15.5987 9.62408 16.6343 8.98916C17.0261 8.74841 17.3896 8.45809 17.7608 8.18665C18.5019 7.6426 19.3086 7.25787 20.2344 7.16168C21.5402 7.02537 22.7003 7.39772 23.7424 8.17544C24.0569 8.41147 24.3543 8.66934 24.6771 8.89121C25.7227 9.60933 26.8155 9.65831 27.9302 9.0641C28.2364 8.88903 28.532 8.69593 28.8153 8.48582C29.2042 8.21379 29.7004 8.25923 29.9801 8.60384C30.0518 8.68895 30.1057 8.78749 30.1388 8.89371C30.1718 8.99992 30.1834 9.11166 30.1727 9.22239C30.1621 9.33312 30.1294 9.44061 30.0767 9.53857C30.024 9.63652 29.9522 9.72297 29.8657 9.79285C27.775 11.5123 25.3592 11.6811 23.2019 9.90614C23.0196 9.75685 22.8355 9.6111 22.6407 9.47656C21.3968 8.63039 20.2415 8.62331 18.9946 9.46535C18.653 9.69607 18.342 9.97105 18.0074 10.2118C17.1005 10.8668 16.1682 11.1648 15.3066 11.1642Z" fill="#FFF0D9"/>
<path d="M21.2193 11.5294C21.1443 11.2909 20.9871 11.0868 20.7755 10.9535C20.6828 10.8981 20.5767 10.8689 20.4687 10.8691C20.2586 10.8691 20.0686 10.9771 19.9264 11.0715C19.7659 11.1778 19.6036 11.2881 19.4472 11.3943C18.9297 11.7448 18.394 12.1077 17.8411 12.3974C16.9642 12.8589 16.0708 13.0932 15.1857 13.0932C14.3006 13.0932 13.406 12.8571 12.5303 12.3963C11.9751 12.1012 11.4375 11.7407 10.9171 11.3902C10.7619 11.2857 10.6008 11.1772 10.4415 11.0721C10.2762 10.9543 10.0796 10.8881 9.87675 10.8821C9.76239 10.8821 9.64966 10.9092 9.5478 10.9612C9.44595 11.0133 9.35787 11.0887 9.2908 11.1813C9.22809 11.2614 9.18213 11.3533 9.15567 11.4515C9.12921 11.5498 9.12279 11.6523 9.13679 11.7531C9.15571 11.865 9.19677 11.972 9.25756 12.0679C9.31836 12.1637 9.39766 12.2465 9.49084 12.3113L9.66786 12.4429C10.088 12.7521 10.5223 13.0719 10.9796 13.3475C12.3486 14.1736 13.7353 14.6238 14.9921 14.6557H14.9992C16.0153 14.6516 16.9123 14.4745 17.9071 14.0833C18.8725 13.7033 19.8267 13.1392 20.8227 12.3662C20.9797 12.247 21.3432 11.9643 21.2193 11.5294Z" fill="#FFF0D9"/>
</svg>
